<?xml version="1.0" encoding="UTF-8"?>
<svg id="Layer_2" data-name="Layer 2" xmlns="http://www.w3.org/2000/svg" width="2722.22" height="1887.13" viewBox="0 0 2722.22 1887.13">
  <defs>
    <style>
      .cls-1 {
        fill: #f4d5d1;
      }

      .cls-2 {
        fill: #f9d6d9;
      }

      .cls-3 {
        fill: #f7d8d4;
      }

      .cls-4 {
        fill: #ed9022;
      }

      .cls-5 {
        fill: #f1c8c7;
      }

      .cls-6 {
        fill: #fff;
      }

      .cls-7 {
        fill: #e3b8b7;
      }

      .cls-8 {
        fill: #fdebea;
      }

      .cls-9 {
        fill: #6c3431;
      }

      .cls-10 {
        fill: #969696;
      }

      .cls-11 {
        fill: #854135;
      }

      .cls-12 {
        fill: #b33b31;
      }

      .cls-13 {
        fill: #a8a8a8;
      }

      .cls-14 {
        fill: #1d1d35;
      }

      .cls-15 {
        fill: #447a72;
      }

      .cls-16 {
        fill: #884236;
      }

      .cls-17 {
        fill: #599a93;
      }

      .cls-18 {
        fill: #77bbb6;
      }

      .cls-19 {
        fill: #adadad;
        isolation: isolate;
        opacity: .21;
      }

      .cls-20 {
        opacity: .46;
      }

      .cls-21 {
        opacity: .36;
      }
    </style>
  </defs>
  <g id="Layer_1-2" data-name="Layer 1">
    <path class="cls-19" d="M1628.36,80.44C1077.01,422.68,643.69-42.65,165.4,427.88-113.89,702.63,12.12,1166.71,223.2,1440.07c351.16,454.79,911.38,499.06,1438.63,394.91,408.4-80.68,752.75-233.87,885.22-669.4C2755.81,479.22,2153.26-245.37,1628.36,80.44Z"/>
    <polygon class="cls-13" points="1688.65 1183.56 1834.77 1183.56 2044.38 168.67 1904.28 139.7 1688.65 1183.56"/>
    <polygon class="cls-10" points="2317.97 862.02 1435.22 679.66 1410.23 657.25 1503.55 348.99 1544.52 351.67 1481.35 318.02 1517.48 137.87 2400.22 320.22 2425.27 342.7 2388.66 519.89 2318.72 521.18 2357.21 528.54 2382.21 550.96 2317.97 862.02"/>
    <polygon class="cls-13" points="2292.97 839.6 1410.23 657.25 1478.56 326.51 1519.52 329.2 1485.33 293.67 1517.48 137.87 2400.22 320.22 2363.61 497.42 2293.72 498.71 2357.21 528.54 2292.97 839.6"/>
    <g>
      <path class="cls-10" d="M2312.59,496.88h-2.1l-6.18-.43-23.76-1.94-17.15-1.51-20.38-2.42c-14.57-1.83-31.29-3.55-49.51-6.56l-28.76-4.35c-10-1.56-20.32-3.6-31.02-5.38-21.5-3.66-44.24-8.44-68.22-13.28-47.9-10.16-100.32-22.47-155.04-36.4-109.4-28.17-208-55.27-279.93-72.85-17.9-4.57-34.25-8.28-48.38-11.72-14.14-3.44-26.88-6.24-36.77-8.44l-23.22-5.38-6.02-1.45c-.7-.15-1.38-.37-2.04-.65,.71,.03,1.41,.14,2.1,.32l6.13,1.13,23.33,4.68c10.16,2.04,22.58,4.68,36.88,7.96s30.7,6.83,48.71,11.24c72.04,16.99,170.8,43.76,280.14,71.88,54.73,13.92,107.04,26.34,154.83,36.66,23.98,4.89,46.66,9.78,68.11,13.55,10.75,1.94,21.02,3.98,30.97,5.38l28.65,4.57c18.22,3.17,34.84,5.05,49.41,7.04l20.32,2.69,17.1,1.77,23.71,2.58,6.13,.75,1.99,.54Z"/>
      <path class="cls-10" d="M2356.94,468.66c-.69-.39-1.35-.82-1.99-1.29l-5.38-4.03c-4.89-3.49-11.88-9.03-21.5-15.59-26.5-18.59-54.11-35.54-82.68-50.75-42.42-22.41-86.82-40.88-132.63-55.16-56.15-17.25-114.12-27.93-172.73-31.83-62.42-4.57-121.98,1.51-176.23,2.74-25.72,.91-51.48,.39-77.15-1.56-54.8-4.51-108.55-17.59-159.29-38.76-10.75-4.46-18.65-8.23-24.08-10.75l-6.13-3.12-2.04-1.13c.77,.2,1.51,.49,2.2,.86l6.29,2.8c5.38,2.47,13.6,6.07,24.25,10.32,30.04,12.04,61.09,21.37,92.79,27.9,21.86,4.5,43.98,7.62,66.23,9.35,25.57,1.78,51.21,2.19,76.82,1.24,54.08-1.4,113.81-7.58,176.55-3.01,58.87,3.93,117.08,14.75,173.43,32.26,45.93,14.5,90.4,33.26,132.84,56.02,28.54,15.34,56.03,32.55,82.31,51.5,9.3,6.67,16.13,12.42,20.97,16.13l5.38,4.3c.63,.47,1.22,.99,1.77,1.56Z"/>
      <path class="cls-10" d="M1930.25,231.63c-1.33,.62-2.72,1.1-4.14,1.45l-12.1,3.6c-5.38,1.61-11.67,3.39-19.25,5.11-7.58,1.72-16.13,4.09-25.8,5.81-9.68,1.72-20.11,4.03-31.56,5.38s-23.6,3.23-36.45,4.68c-27.98,2.7-56.09,3.8-84.19,3.28-28.1-.75-56.13-3.06-83.97-6.94-12.79-2.04-24.94-3.82-36.23-6.29-11.29-2.47-21.5-4.62-31.23-6.99-9.73-2.37-18.01-4.78-25.48-6.94s-13.87-4.14-19.03-5.91l-11.93-4.14c-1.4-.42-2.77-.96-4.09-1.61,1.46,.17,2.91,.49,4.3,.97l12.1,3.55c5.38,1.61,11.61,3.49,19.14,5.38,7.53,1.88,16.13,4.46,25.54,6.45,9.41,1.99,19.94,4.57,31.23,6.56,11.29,1.99,23.39,4.03,36.13,5.97,27.71,3.68,55.6,5.88,83.54,6.61,27.97,.49,55.95-.51,83.81-3.01,12.79-1.4,25-2.53,36.34-4.35,11.34-1.83,21.88-3.39,31.5-5.38,9.62-1.99,18.22-3.71,25.8-5.38,7.58-1.67,14.09-3.17,19.35-4.57l12.2-2.96c1.47-.27,2.97-.38,4.46-.32Z"/>
      <path class="cls-10" d="M1695.26,546.98s1.4,.75,3.98,2.37l11.61,7.15c10.21,6.18,25.16,15.64,45.16,26.34,24.1,13.39,49.93,23.4,76.77,29.73,8.1,1.8,16.3,3.06,24.57,3.76,8.65,1.08,17.41-.82,24.84-5.38,3.61-2.65,6.22-6.44,7.42-10.75,1.17-4.46,1.17-9.14,0-13.6-2.82-9.32-8.81-17.37-16.93-22.74-67.31-44.62-162.09-77.15-269.34-80.16-13.39-.43-26.88-.43-40.64,0-13.76,.43-27.74,3.66-36.93,13.87-4.69,4.87-7.23,11.41-7.04,18.17,.5,6.84,3.13,13.34,7.53,18.6,8.66,11.07,21.13,18.76,33.12,26.88,48.38,32.79,99.62,65.37,157.25,87.95,57.63,22.58,118.86,32.74,176.55,24.19,14.23-2.11,28.26-5.42,41.93-9.89,13.47-3.81,25.55-11.42,34.78-21.93,8.26-10.93,12.63-24.31,12.42-38.01,.04-13.43-2.94-26.69-8.71-38.81-11.73-23.26-29.71-42.79-51.93-56.39-20.92-12.93-43.61-22.73-67.36-29.08-22.85-6.61-45.48-11.34-67.09-16.13l-62.2-14.09-187.68-42.63-50.96-11.77-13.22-3.12c-3.01-.7-4.52-1.18-4.52-1.18l4.57,.86,13.33,2.8,51.13,11.18,187.89,41.61,62.2,13.87c21.5,4.89,44.3,9.52,67.31,16.13,24.04,6.37,47,16.25,68.17,29.3,22.72,13.85,41.12,33.77,53.12,57.52,5.97,12.53,9.05,26.23,9.03,40.11,.24,14.39-4.34,28.45-13.01,39.94-9.61,11-22.19,18.99-36.23,23.01-13.85,4.59-28.08,7.95-42.52,10.05-58.38,8.71-120.37-1.67-178.16-24.3-57.79-22.63-109.4-55.21-157.68-88.17-11.93-8.28-24.62-16.13-33.76-27.79-4.83-5.77-7.71-12.92-8.23-20.43-.19-7.57,2.65-14.91,7.9-20.38,4.98-5.32,11.26-9.25,18.22-11.4,6.76-2.04,13.75-3.19,20.81-3.44,13.87-.54,27.47-.48,40.91,0,107.9,3.28,202.94,36.07,270.68,81.34,8.53,5.71,14.79,14.23,17.69,24.08,1.26,4.83,1.26,9.9,0,14.73-1.32,4.73-4.23,8.87-8.23,11.72-7.82,4.83-17.05,6.86-26.18,5.75-8.37-.78-16.69-2.09-24.89-3.92-26.93-6.52-52.83-16.76-76.93-30.43-20-10.75-34.84-20.54-44.94-26.88-4.95-3.17-8.76-5.38-11.4-7.42s-4.14-2.8-4.14-2.8Z"/>
      <path class="cls-10" d="M2339.79,604.35c-1.82-.2-3.61-.54-5.38-1.02-3.33-.91-8.33-1.88-14.73-3.01-18.27-2.61-36.83-2.47-55.05,.43-26.97,4.54-53.14,12.98-77.68,25.05-29.87,15.24-58.71,32.41-86.34,51.39-27.78,19.09-56.91,36.16-87.15,51.07-24.94,11.88-51.56,19.86-78.92,23.65-18.47,2.48-37.23,1.96-55.53-1.56-4.95-.98-9.83-2.28-14.62-3.87-1.7-.45-3.36-1.07-4.95-1.83,1.73,.27,3.44,.67,5.11,1.18,3.33,.97,8.28,2.04,14.68,3.28,18.2,2.97,36.75,3.14,55,.48,27.04-4.08,53.32-12.19,77.95-24.08,30.02-15,58.96-32.06,86.61-51.07,27.77-19.07,56.79-36.24,86.88-51.39,24.84-12.1,51.35-20.4,78.65-24.62,18.45-2.73,37.21-2.51,55.59,.65,5.1,.85,10.15,2.02,15.11,3.49,1.65,.44,3.25,1.04,4.78,1.77Z"/>
      <path class="cls-10" d="M2323.45,691.87c0,.32-4.19-1.4-11.93-3.12-10.94-2.37-22.21-2.74-33.28-1.08-16.4,2.78-32.36,7.69-47.47,14.62-18.69,8.17-36.78,17.63-54.14,28.33-18.71,11.07-36.56,21.88-53.76,30.11-15.09,7.46-30.98,13.18-47.36,17.04-11.07,2.52-22.41,3.64-33.76,3.33-3.08-.08-6.15-.34-9.19-.81-1.08-.05-2.15-.25-3.17-.59,0-.38,4.46,0,12.36,0,11.22-.16,22.38-1.61,33.28-4.3,16.1-4.16,31.71-10.03,46.56-17.53,16.88-8.28,34.57-19.08,53.33-30.21,17.5-10.81,35.8-20.28,54.73-28.33,15.4-6.92,31.68-11.68,48.38-14.14,11.32-1.5,22.83-.77,33.87,2.15,2.98,.81,5.9,1.8,8.76,2.96,1,.39,1.94,.91,2.8,1.56Z"/>
    </g>
    <path class="cls-10" d="M2039.33,246.41c0,.91-34.03-5.75-75.59-14.89-41.56-9.14-75.26-17.26-74.89-18.12s34.03,5.75,75.59,14.89c41.56,9.14,74.89,17.26,74.89,18.12Z"/>
    <g>
      <path class="cls-6" d="M1811.43,474.95l-27.63-6.02-7.74,35.59-51.34-11.13,7.74-35.64-98.33-21.5,7.47-34.3,108.76-97.95,54.51,11.83-99.46,92.25,37.63,8.17,6.88-31.61,49.73,10.75-6.88,31.66,27.63,6.02-8.98,41.88Z"/>
      <path class="cls-6" d="M1834.6,419.85c13.33-61.5,55.59-89.19,103.11-78.87,47.52,10.32,74.19,53.17,60.8,114.56-13.39,61.39-55.64,89.24-102.9,78.92-47.26-10.32-74.4-53.22-61.02-114.62Zm111.07,24.19c8.49-39.03-.54-56.34-17.26-60-16.72-3.66-32.26,8.28-40.97,47.31-8.71,39.03,.59,56.39,17.58,60.1,16.99,3.71,32.15-8.33,40.64-47.42Z"/>
      <path class="cls-6" d="M2179.63,555.11l-27.63-6.02-7.74,35.64-51.39-11.34,7.8-35.64-98.33-21.5,7.47-34.3,108.7-97.95,54.51,11.99-99.4,92.2,37.63,8.23,6.88-31.66,49.67,10.75-6.88,31.61,27.63,6.02-8.92,41.99Z"/>
      <g>
        <path class="cls-6" d="M1772.08,606.88l-2.74,11.67-55.96-12.9,17.47-74.62,54.51,12.74-2.74,11.61-40.59-9.52-4.57,19.41,36.02,8.49-2.63,11.4-36.07-8.44-4.84,20.59,42.15,9.57Z"/>
        <path class="cls-6" d="M1833.68,633.6l-10.11-25.43c-.98-.13-1.95-.33-2.9-.59l-16.88-3.92-5.11,21.5-13.87-3.23,17.53-74.67,30.7,7.2c19.62,4.62,29.46,17.47,25.59,34.03-2.02,10.62-10.75,18.68-21.5,19.84l11.45,28.55-14.89-3.28Zm-4.03-67.31l-16.13-3.82-6.99,29.78,16.13,3.76c12.15,2.85,19.78-1.24,21.99-10.75,2.2-9.52-2.85-16.13-15-18.98h0Z"/>
        <path class="cls-6" d="M1911.64,651.88l-10.11-25.43c-.98-.15-1.95-.34-2.9-.59l-16.83-4.09-5.38,21.77-13.87-3.28,17.47-74.67,30.75,7.2c19.62,4.62,29.41,17.47,25.54,34.03-2,10.63-10.74,18.7-21.5,19.84l11.4,28.55-14.57-3.33Zm-3.98-67.31l-16.13-3.82-6.99,29.78,16.13,3.76c12.15,2.85,19.73-1.24,21.93-10.75s-2.8-16.13-14.95-18.98h0Z"/>
        <path class="cls-6" d="M1944.22,620.11c5.38-22.04,26.07-34.35,49.19-28.92,23.12,5.43,36.45,25.64,31.23,47.79-5.21,22.15-26.07,34.41-49.19,28.98s-36.4-25.75-31.23-47.85Zm66.45,15.59c3.36-14.46-5.64-28.91-20.1-32.26-14.46-3.36-28.91,5.64-32.26,20.1-3.36,14.46,5.64,28.91,20.1,32.26h0c13.96,3.67,28.24-4.67,31.91-18.62,.13-.49,.24-.98,.34-1.48h0Z"/>
        <path class="cls-6" d="M2079.48,691.23l-10.11-25.43-2.96-.59-16.83-3.92-5.11,21.5-13.87-3.23,17.53-74.67,30.7,7.2c19.62,4.62,29.46,17.47,25.59,34.03-2.04,10.62-10.76,18.66-21.5,19.84l11.45,28.55-14.89-3.28Zm-4.03-67.36l-16.13-3.76-6.99,29.73,16.13,3.82c12.2,2.85,19.78-1.24,21.99-10.75s-2.85-16.18-15-19.03Z"/>
      </g>
    </g>
    <g>
      <polygon class="cls-5" points="1663.99 1652.62 2056.98 1573.81 2202.43 1880.88 1688.94 1880.88 1663.99 1652.62"/>
      <path class="cls-15" d="M0,1883.33c0-2.05,609.34-3.8,1361.11-3.8s1361.11,1.75,1361.11,3.8-609.21,3.8-1361.11,3.8S0,1885.52,0,1883.33Z"/>
      <g>
        <g class="cls-20">
          <path class="cls-18" d="M997.51,1245.55l6.84-1.08c-28.73-182.08-233.41-481.08-235.47-484.08l-5.7,3.93c2.05,2.98,205.86,300.7,234.34,481.24Z"/>
        </g>
        <path class="cls-8" d="M793.75,744.41l1.1,1.66c4.64,6.96,2.98,16.34-3.77,21.28l-38.22,28c-6.98,5.11-16.78,3.59-21.87-3.4l-2.97-4.07c-4.12-5.65-10.62-9.06-17.61-9.17-30.34-.49-115.49-7.85-139.42-73.9-3.8-21.15,26.04-39.6,54.24-17.36,0,0-51.53-48.82-36.34-78.11,15.19-29.29,79.19,33.09,79.19,33.09,0,0-43.39-59.12-21.15-73.77,22.24-14.65,71.06,42.85,71.06,42.85,0,0-7.05-53.16,25.49-47.73,31.04,5.17,77.36,87.79,48.2,159.88-2.77,6.84-2.03,14.61,2.07,20.75Z"/>
        <rect class="cls-2" x="639.4" y="612.8" width="6.92" height="63.72" transform="translate(-260.26 759.65) rotate(-52.34)"/>
        <rect class="cls-2" x="683.07" y="595.75" width="6.92" height="47.24" transform="translate(-179.52 295.5) rotate(-21.55)"/>
        <circle class="cls-2" cx="677.85" cy="597.41" r="10.31"/>
        <circle class="cls-2" cx="614.23" cy="625.2" r="10.31"/>
        <path class="cls-2" d="M628.78,739.67l5.93-3.56c-.09-.16-9.36-15.85-5.99-26.5,1.09-3.46,3.43-5.95,7.15-7.62,17.77-7.97,36.26,18.08,36.43,18.35l5.92-3.55c-.17-.33-16.73-33.3-9.55-53.67,2.08-5.92,5.91-10.06,11.68-12.66,29.51-13.31,55.64,25.49,55.91,25.88l10.97,16.57-4.73-19.3c-7.27-29.67-2.97-39.84,1.91-43.15,9.15-6.2,28.77,5.05,35.57,9.9l4.03-5.63c-2.91-2.07-28.78-19.96-43.47-10.01-8.08,5.47-10.6,17.5-7.6,36.61-11.29-11.94-31.9-27.75-55.43-17.18-7.5,3.38-12.67,8.98-15.38,16.68-4.58,13.01-1.13,29.58,2.91,41.86-8.37-6.76-19.93-12.41-32-7.02-5.56,2.49-9.24,6.48-10.93,11.87-4.28,13.63,6.22,31.38,6.67,32.13Z"/>
      </g>
      <path class="cls-1" d="M2088.04,1208.7h33.2l150.24,146.69s34.73-91.72,0-161.18l48.73-107.75s87.51,48.98,137.38,208.38c49.87,159.4,75.69,215.93,37.4,270.93-38.29,54.99-173.65,12.25-258.24-26.93-84.6-39.18-248.45-189.68-248.45-189.68l99.74-140.45Z"/>
      <path class="cls-4" d="M1645.03,842.77c-17,35.56-11.64,61.53-11.64,61.53,0,0-34.51,7.9-23.7,47.81,10.81,39.91,74.42,56.13,74.42,56.13l110.18,26.61s76.92-9.56,75.25-70.26c.03-20.37-6.65-34.51-17.88-48.23-11.23-13.72-.83-37.83-29.1-57.79-28.27-19.96-58.62-27.02-87.31-22.87-28.69,4.16-43.66,6.65-59.45,3.33-15.8-3.33-26.19-5.82-30.77,3.74Z"/>
      <path class="cls-3" d="M1648.27,890.95s4.07-16.27,20.65-16.27,28.47,7.2,30.67,33.17c2.19,25.97,5.32,66.34,51.32,62.27,46-4.07,58.2-15.33,58.2-15.33,0,0,21.9,49.13-21.59,55.38l32.23,106.39,46.31-8.23-52.26,91.78-71.66,11.89-88.87-75.41,55.38-11.89-6.88-60.39s-60.39-14.39-57.26-81.98c3.13-67.59,3.75-91.37,3.75-91.37Z"/>
      <path d="M1498.92,1202.57s33.2-45.72,82.73-54.97c49.53-9.25,86.51-14.21,86.51-14.21,0,0,35.61,58.48,95.39,43.39,59.78-15.09,74.87-31.11,87.68-66.23,0,0,73.45-16.05,111.59-12.06,38.15,3.99,158.42,110.2,158.42,110.2,0,0-61.09,131.79-116.56,150.85l33.18,250.03-318.55,62.84-220.39-469.86Z"/>
      <path class="cls-7" d="M1710.43,1148.99c-1.14,0-2.11-.87-2.22-2.03l-1.77-19.41c-.11-1.23,.79-2.32,2.02-2.43,1.21-.1,2.32,.79,2.43,2.02l1.77,19.41c.11,1.23-.79,2.32-2.02,2.43-.07,0-.14,0-.21,0Z"/>
      <path class="cls-7" d="M1719.63,1068.53c-4.97,0-10.32-.63-16.07-2.07-1.2-.3-1.92-1.51-1.63-2.71,.3-1.2,1.5-1.93,2.71-1.62,43.29,10.82,61.77-26.64,62.53-28.24,.53-1.11,1.87-1.58,2.97-1.06,1.11,.53,1.59,1.86,1.06,2.97-.18,.37-16.01,32.72-51.58,32.72Z"/>
      <path class="cls-18" d="M26.77,1407.62c-17.23,76.43,160.53,167.3,160.53,167.3,0,0-70.63,46.91-23.12,103.72,47.52,56.81,195.2,70.93,195.2,70.93,0,0-68.06,53.94,10.27,60.36,78.34,6.42,391.68-65.49,391.68-65.49l-286.38-461.03s-128.42,7.71-166.95,104.02c-17.98,34.67-256.84-88.04-281.24,20.19Z"/>
      <path class="cls-18" d="M810.54,1856.26c-.76,0-1.49-.38-1.91-1.08-81.41-134.79-517.21-328.43-521.6-330.37-1.13-.5-1.64-1.81-1.14-2.94,.5-1.12,1.82-1.64,2.95-1.14,4.41,1.94,441.48,196.16,523.62,332.14,.64,1.06,.3,2.43-.76,3.07-.36,.22-.76,.32-1.15,.32Z"/>
      <path class="cls-12" d="M1436.05,1712.35s39.22-2.18,39.1-21.29c-.12-19.11-39.1-12.32-39.1-12.32v33.61Z"/>
      <polygon points="1445.92 1670.36 1498.52 1880.88 892.2 1880.88 974.57 1674.51 1445.92 1670.36"/>
      <path class="cls-18" d="M314.43,1880.88s34.78-56.82,79.03-36.28c44.25,20.55,352.46-165.66,471.89-147.68s167.81,41.09,167.81,41.09c0,0,180.21-4.03,232.86,44.86s61.64,98.01,61.64,98.01H314.43Z"/>
      <path class="cls-14" d="M1532.8,806.63c10.36-4.68,12.81-21.62,5.48-37.83-4.36-9.63-11.19-16.81-18.19-20.08-.5-2.6-.98-5.21-1.57-7.79,1.45-.15,2.87-.51,4.21-1.12,10.36-4.68,12.81-21.62,5.48-37.83-7.33-16.21-21.67-25.55-32.03-20.86-.32,.14-.61,.34-.92,.5-1.23-2.18-2.46-4.36-3.77-6.5,2.63-.75,4.92-2.06,6.66-4.02,7.56-8.49,2.41-25.41-11.5-37.79-12.7-11.3-28.28-14.87-36.66-8.95-.4-.38-.81-.75-1.21-1.12,3.48-1.8,6.05-4.4,7.31-7.73,4.03-10.63-6.89-24.63-24.4-31.26-13.76-5.22-27.46-4.31-34.66,1.47-2.21-1.24-4.44-2.46-6.69-3.64,.28-.73,.51-1.47,.66-2.25,2.23-11.15-9.44-22.88-26.06-26.2-12.23-2.44-23.71,.36-29.82,6.44-2.28-.65-4.58-1.25-6.89-1.85,.04-.42,.09-.83,.09-1.26,0-11.37-13.74-20.58-30.69-20.58-12.77,0-23.72,5.24-28.34,12.68-1.02-.06-2.04-.16-3.06-.21-2.99-9.27-15.27-16.21-29.98-16.21-16.33,0-29.64,8.56-30.6,19.35-1.75,.26-3.5,.53-5.25,.83-.78-1.24-1.63-2.44-2.64-3.57-10.94-12.25-30.98-12.22-44.76,.09-6.16,5.5-10.01,12.53-11.43,19.71-3.19,1.25-6.36,2.52-9.48,3.87-9.89-8.23-26.21-6.87-38.06,3.7-7.55,6.74-11.57,15.71-11.68,24.12-2.52,1.77-5.01,3.58-7.46,5.43-2.49-2.79-5.57-4.96-9.19-6.22-13.44-4.68-28.92,4.69-34.57,20.92-3.2,9.18-2.56,18.59,1.03,25.88-1.18,1.42-2.32,2.87-3.47,4.31-.36-.15-.71-.32-1.08-.45-13.44-4.68-28.92,4.69-34.57,20.92-4.04,11.6-1.94,23.55,4.48,31.14-1.43,3.27-2.77,6.58-4.04,9.93-12.27-1.57-25.15,7.42-30.2,21.92-5.65,16.23,.66,33.19,14.1,37.86,.86,.3,1.72,.54,2.59,.72-.2,2.67-.34,5.35-.45,8.04-8,3.2-15.03,10.49-18.45,20.32-5.65,16.23,.66,33.19,14.1,37.86,3.37,1.17,6.87,1.46,10.31,.98,.99,4.04,2.1,8.05,3.31,12.01-4.21,1.55-7.79,4.19-10.24,7.91-7.54,11.45-1.6,28.66,13.26,38.44,6.79,4.47,14.25,6.58,21.09,6.5,.57,.92,1.19,1.82,1.78,2.73-3.07,1.59-5.69,3.84-7.61,6.76-7.54,11.45-1.6,28.66,13.26,38.44,11.83,7.78,25.73,8.49,34.71,2.68,.36,.33,.72,.67,1.08,1-1.44,1.01-2.7,2.22-3.67,3.69-6.25,9.5,.73,25.12,15.59,34.9,8.94,5.88,18.68,8.28,26.4,7.21,2.43,8.89,12.92,17.22,26.79,20.27,10.85,2.39,21.19,.98,28.02-3.12,4,7.37,13.39,13.83,25.24,16.43,15.13,3.33,29.26-.73,34.27-9.16,.77,.11,1.53,.22,2.3,.32,1.09,3.6,3.08,6.56,6,8.48,7.12,4.68,17.67,1.94,26.63-5.99,2.64,.07,5.27,.18,7.93,.18,27.3,0,53.63-3.59,78.49-10.2,1.12,3.33,3.04,6.09,5.8,7.91,9.5,6.25,25.12-.73,34.9-15.59,1.8-2.74,3.28-5.56,4.43-8.37,2.99-1.35,5.96-2.73,8.89-4.17,1.15,2.94,2.97,5.38,5.49,7.04,9.5,6.25,25.12-.73,34.9-15.59,2.46-3.73,4.31-7.61,5.55-11.41,.33,.27,.66,.55,1.02,.79,9.5,6.25,25.12-.73,34.9-15.59,7.76-11.79,9.48-24.99,5.12-33.06,1.12-1.35,2.2-2.72,3.29-4.09,1.96,1.89,4.25,3.22,6.84,3.79,11.1,2.44,23.2-9.66,27.02-27.03,2.34-10.66,1.01-20.82-2.92-27.65,.33-.75,.67-1.49,1-2.23,.44,.15,.88,.31,1.34,.41,11.1,2.44,23.2-9.66,27.02-27.03,3.68-16.73-1.68-32.21-12-35.51,.18-1.69,.3-3.39,.44-5.08,3.36,.79,6.66,.64,9.63-.71Z"/>
      <path class="cls-11" d="M509.12,867.18s85.35-20.32,112.59,6.5c27.23,26.83,81.29,85.35,86.98,101.61s13.41,74.79,0,103.64c-13.41,28.86-54.42,238.95-54.42,238.95,0,0,251.94-166.56,279.64-175.37s173.14-29.59,213.44-25.81c40.29,3.78-113.52,497.25-113.52,497.25l-74.79-100.23-4.08-75.45-240.15,109.64s-219.95,92.94-272.79-34.84c-52.84-127.78,22.1-404.74,22.1-404.74l45.01-241.15Z"/>
      <path class="cls-16" d="M1418,1126.33s127.4,44.73,169.75,113.8c42.35,69.06,74.27,172,103.59,273.64,29.32,101.64,99.68,367.11,99.68,367.11h-244.97s-50.17-202.28-72.97-251.14c-22.8-48.86-55.08-503.41-55.08-503.41Z"/>
      <path class="cls-16" d="M1212.04,860.22v-12.11c0-45.25,35.8-82.38,81.02-84.03h0c45.73-1.67,83.71,34.95,83.71,80.71v10.02s8.8,71.56,8.8,84.72-10.8,61.43-43.88,74.59c0,0-11.48,83.03,16.54,102.27l-46.24,58.06h-40.5l-91.13-63.9s48.6-1.58,42.53-110.94c-.68-51.3-4.73-71.89-4.73-71.89,0,0-55.69,0-52.65-42.53s46.54-24.97,46.54-24.97Z"/>
      <path class="cls-9" d="M1306.89,1025.96c-13.6,0-31.55-3.54-52.31-16.2-1.05-.64-1.39-2.01-.74-3.07,.64-1.05,2.01-1.39,3.07-.74,49.87,30.39,83.13,6.63,83.46,6.38,.99-.73,2.39-.52,3.12,.47,.73,.99,.53,2.38-.46,3.12-.36,.27-9.13,6.69-24.5,9.14-3.4,.54-7.3,.9-11.63,.9Z"/>
      <path class="cls-5" d="M1186.29,1110.56s46.27,45.99,105.12,37.1c58.85-8.88,65.14-34.42,65.14-34.42l67.73,12.95s86.12,375.03,50.87,564.86c0,0-121.24-11.18-200.34,10.32-79.1,21.5-303.52,35.25-363.71-7.74,0,0,31.81-214.96,43.85-255.37l5.99-2.83s-3.88,70.67,29.51,64.85c33.4-5.82,61.74-50.09,83.1-104.85,21.36-54.75,64.3-217.55,64.3-280.65l48.43-4.24Z"/>
      <g>
        <path class="cls-18" d="M2329.07,1040.02l-5.66,.27c-7.14-150.58,107.27-423.92,108.42-426.67l5.22,2.2c-1.15,2.73-115.07,274.9-107.99,424.2Z"/>
        <path class="cls-8" d="M2409.27,604.94l-.61,1.51c-2.56,6.34,.32,13.58,6.54,16.42l35.24,16.1c6.43,2.94,14.03,.1,16.96-6.34l1.7-3.76c2.36-5.21,7-9.01,12.58-10.26,24.21-5.41,91.19-25.41,99.42-82.27-.46-17.57-27.41-27.4-46.31-4.92,0,0,33.18-47.63,16.17-68.57-17.01-20.94-57.94,39.61-57.94,39.61,0,0,24.96-54.54,4.73-62.58-20.24-8.05-49.81,46.08-49.81,46.08,0,0-3.15-43.74-28.32-34.01-24,9.28-47.42,83.11-12.13,136.02,3.35,5.02,4.04,11.36,1.78,16.96Z"/>
        <rect class="cls-2" x="2487.54" y="497.24" width="52.11" height="5.66" transform="translate(496.62 2081.23) rotate(-49.35)"/>
        <rect class="cls-2" x="2455.12" y="484.22" width="38.63" height="5.66" transform="translate(1570.44 2841.38) rotate(-80.13)"/>
        <circle class="cls-2" cx="2477.75" cy="468.02" r="8.43"/>
        <circle class="cls-2" cx="2533.3" cy="479.75" r="8.43"/>
        <path class="cls-2" d="M2540.61,573.83l-5.34-1.87c.05-.14,4.87-14.24,.41-22.22-1.44-2.59-3.73-4.2-6.99-4.92-15.55-3.44-26.04,20.49-26.14,20.73l-5.33-1.87c.08-.29,7.89-29.44-1.24-44.57-2.65-4.39-6.4-7.08-11.45-8.2-25.84-5.77-40.34,29.62-40.49,29.98l-6.05,15.09,.59-16.24c.91-24.97-4.22-32.4-8.68-34.24-8.35-3.45-22.2,8.81-26.84,13.82l-4.16-3.84c1.98-2.14,19.75-20.75,33.15-15.21,7.38,3.04,11.39,12.26,12.15,28.06,7.07-11.43,20.95-27.51,41.54-22.94,6.57,1.46,11.64,5.1,15.08,10.81,5.82,9.66,5.8,23.5,4.6,34.01,5.58-6.8,13.9-13.24,24.47-10.92,4.87,1.07,8.47,3.66,10.72,7.69,5.69,10.21,.22,26.16-.02,26.83Z"/>
      </g>
      <g class="cls-21">
        <path class="cls-18" d="M2328.41,1016.71s23.85-224.63,183.88-350.87,136.17,38.76,80.51,107.35c-55.66,68.58-264.39,243.52-264.39,243.52Z"/>
        <path class="cls-18" d="M2248.89,1180.71s-14.91-379.69,49.7-462.19c64.61-82.5,94.43-21.87,94.43-5.96s-76.03,280.44-72.81,345.9c3.23,65.45-71.32,122.26-71.32,122.26Z"/>
      </g>
      <path class="cls-18" d="M580.21,1510.87s104.67,35.99,138.92,96.2l105.4-3.5s-49.62-140.2-244.32-92.69Z"/>
      <path class="cls-18" d="M259.15,863.81c-75.36,88.18,20.64,159.51,121.04,220.5,100.4,60.99,353.74,189.14,419.08,437.42,65.34,248.28,86.25,359.15,86.25,359.15h199.93c.42,.87-264.6-644.16-415.55-867.48-134.36-198.78-342.74-229.17-410.75-149.59Z"/>
      <path class="cls-17" d="M206,1645.87c-35.02-70.05,71.87-265.27,277.03-278.34,205.16-13.07,304.47,182.94,304.47,182.94,0,0-159.42-86.25-303.17,11.76-143.74,98.01-241.75,156.81-278.34,83.63Z"/>
      <path class="cls-11" d="M495.42,961.36c-2.41,35.82,19.93,41.1,44.09,42.1,24.16,1,141.99,12.46,141.99,12.46l-44.09-78.22-105.37-1.74s-34.88-.5-36.62,25.41Z"/>
      <path class="cls-9" d="M960.95,1437.67c-.84,0-1.64-.47-2.02-1.28-.53-1.11-.05-2.44,1.07-2.97l69.02-32.55c1.11-.53,2.45-.05,2.97,1.07,.53,1.11,.05,2.44-1.07,2.97l-69.02,32.55c-.31,.14-.63,.21-.95,.21Z"/>
      <path class="cls-9" d="M644.22,940.9h-.07l-70.84-2.04c-1.23-.04-3.65-.23-3.62-1.46,.04-1.23,1.78-.79,3.03-.76l71.56-.21c1.23,.04,2.2,1.06,2.17,2.3-.03,1.21-1.03,2.17-2.23,2.17Z"/>
      <path class="cls-18" d="M334.17,1518.23l-2.82-3.46c1.89-1.54,190.71-153.3,339.9-96.54l-1.59,4.18c-146.83-55.88-333.62,94.3-335.49,95.83Z"/>
      <path class="cls-17" d="M884.68,1540.68c-82.49-269.38-323.63-490.75-326.05-492.95l3-3.3c2.44,2.21,244.46,224.38,327.32,494.95l-4.27,1.31Z"/>
      <path class="cls-15" d="M670.45,1528.1c-44.55,35.7-29.78,121.6,30.2,192.26,59.98,70.66,110.92,162.52,110.92,162.52,0,0-140.58-132.94-165.6-144.44-25.02-11.5-74.32-28.76-98.97,21.36-24.65,50.12,60.8,122.07,60.8,122.07h498.73c-4.43-9.37-9.02-14.21-13.64-23.49-11.71-23.55-23.78-46.93-36.17-70.13-16.53-30.95-33.66-61.59-51.6-91.74-18.83-31.64-38.54-62.82-59.94-92.8-18.46-25.85-38.14-51.33-61.19-73.29-16.21-15.45-41.36-38.95-66.38-32.54-20.12,5.16-30.21,29.79-30.1,48.77,.27,45.92,4.49,58.56,4.49,58.56,0,0-50.57-133.98-121.54-77.1Z"/>
      <path class="cls-18" d="M2143.31,1479.81s117.83-464.76,271.65-615.31c153.83-150.55,233.47-88.37,236.74-68.73s21.82,77.46-43.64,142.92c-65.46,65.46-158.19,171.28-218.2,253.11-60,81.82-166.92,288.02-166.92,288.02h-79.64Z"/>
      <path class="cls-17" d="M2180.41,1482.04c-.1,0-.21,0-.32-.02-1.22-.17-2.07-1.3-1.9-2.52,32.43-229.74,262.12-540.13,264.43-543.24,.75-.99,2.15-1.19,3.13-.46,.99,.74,1.19,2.13,.46,3.12-2.31,3.1-231.32,312.59-263.6,541.2-.16,1.11-1.11,1.92-2.21,1.92Z"/>
      <path class="cls-17" d="M2048.38,1385.83c-67.21,13.95-79.65,80.71-99.83,223.03-20.18,142.31-30.8,271.88-30.8,271.88h536.33s-7.43-105.14-133.82-123.2c0,0,270.82-16.99,282.5-138.06,11.68-121.07-178.42-66.91-178.42-66.91,0,0,249.55-146.56,178.94-266.57-70.61-120.01-285.14,105.14-285.14,105.14,0,0,1.06-152.93-97.71-135.94-98.77,16.99-104.08,204.97-104.08,204.97,0,0-11.68-86.03-67.97-74.34Z"/>
      <path class="cls-18" d="M1922.21,1878.51c-.63,0-1.25-.26-1.69-.78-.81-.93-.7-2.35,.24-3.15l448.11-385.74c.94-.8,2.35-.7,3.15,.24,.81,.93,.7,2.35-.24,3.15l-448.11,385.74c-.42,.36-.94,.54-1.46,.54Z"/>
      <path class="cls-18" d="M2355.74,1654.85c-.08,0-.17,0-.25-.01l-155.34-17.16,3.62-142.74c.03-1.23,1.04-2.17,2.29-2.18,1.23,.03,2.21,1.06,2.18,2.29l-3.51,138.64,151.26,16.7c1.23,.14,2.11,1.24,1.98,2.46-.13,1.14-1.09,1.99-2.21,1.99Z"/>
      <path class="cls-18" d="M2180.4,1802.34c-.16,0-.32-.02-.48-.05l-138.28-30.58v-143.86c0-1.23,1-2.23,2.23-2.23s2.23,1,2.23,2.23v140.27l134.78,29.8c1.2,.27,1.96,1.46,1.7,2.66-.23,1.04-1.16,1.75-2.18,1.75Z"/>
      <path class="cls-15" d="M1301.15,1766.49s97.39-55.42,142.62-51.34c45.23,4.07,.81,95.35-23.63,133.25,0,0,182.7-171.71,310.89-188.28,128.19-16.56-29.53,146.91-29.53,146.91,0,0,190.72-114.81,320.57-91.06,129.85,23.75,4.75,164.9,4.75,164.9h-730l4.32-114.39Z"/>
      <path class="cls-15" d="M1219.5,1685.84c-66.46,11.46-46.29,172.8-46.29,172.8,0,0-35.75-104.05-82.96-95.8-47.21,8.25-63.25,64.2-55,118.04h346.52s-63.48-212.07-162.26-195.04Z"/>
      <path class="cls-3" d="M2305.02,1015.16s-48.26-20.46-50.96,21.62c0,0-22.39-3.86-18.92,27.02,0,0-28.18-1.93-18.53,38.61,0,0-27.41-3.86-16.21,36.29,11.2,40.15,34.75,71.04,53.66,72.19,18.92,1.16,12.74-23.16,12.74-23.16,0,0,20.46,8.11,25.48-4.63s2.7-19.69,2.7-19.69c0,0,20.83,.97,18.64-20.23l-2.19-21.2s21.86,12.02,21.86-13.66-36.72-77.92-36.72-77.92l8.45-15.24Z"/>
      <path class="cls-7" d="M2267.29,1191.31c-.55,0-1.09-.2-1.53-.6-16.72-15.62-49.36-82.4-50.75-85.23-.54-1.11-.08-2.45,1.03-2.99,1.09-.53,2.45-.09,2.98,1.03,.34,.69,33.66,68.87,49.79,83.93,.9,.84,.95,2.25,.1,3.16-.44,.47-1.03,.71-1.63,.71Z"/>
      <path class="cls-7" d="M2295.48,1163.34c-.44,0-.89-.13-1.28-.41-28.17-19.8-61.44-95.42-62.84-98.63-.49-1.13,.02-2.45,1.15-2.94,1.13-.49,2.45,.02,2.94,1.15,.34,.77,34.17,77.68,61.31,96.76,1.01,.71,1.25,2.1,.55,3.11-.44,.62-1.12,.95-1.83,.95Z"/>
      <path class="cls-7" d="M2311.44,1126.4c-.37,0-.75-.09-1.09-.28-33.14-18.56-57.27-86.62-58.28-89.51-.41-1.16,.2-2.44,1.37-2.84,1.17-.42,2.43,.2,2.84,1.37,.24,.69,24.58,69.36,56.25,87.09,1.08,.6,1.46,1.96,.86,3.04-.41,.73-1.17,1.14-1.95,1.14Z"/>
    </g>
  </g>
</svg>