<svg xmlns="http://www.w3.org/2000/svg" width="84.433" height="34.994" viewBox="0 0 84.433 34.994">
  <path id="Path_15558" data-name="Path 15558" d="M35.957,252.625c-.01.01-6.645-.7-9.118-2.077a21.249,21.249,0,0,1-2.409-1.456c-9.477-7.034-18.85-6.846-28.4.015a23.747,23.747,0,0,1-8,3.593,26.8,26.8,0,0,1-21.6-3.485,38.152,38.152,0,0,0-10.059-4.808,17.8,17.8,0,0,0-2.473-.489,2.093,2.093,0,0,0-2.241,2.8,89.514,89.514,0,0,0,3.732,8.539,3.79,3.79,0,0,0,2.572,2.029,28.411,28.411,0,0,1,9.27,3.9,37.183,37.183,0,0,0,9.872,4.738c5.7,1.545,11.16.148,16.066-3.194,3.391-2.315,6.841-4.516,10.968-5.3a24.327,24.327,0,0,1,2.577-.41,3.215,3.215,0,0,1,3.559,2.577,2.97,2.97,0,0,1-2.364,3.653c-5,.652-8.978,3.337-13.026,5.977-4.121,2.685-8.727,3.7-14.171,3.677a26.82,26.82,0,0,1-14.26-4.349l-.049-.03a1.2,1.2,0,0,0-1.584,1.757c16.412,21.22,71.138-3.506,71.138-3.506l-.01-14.14ZM21.395,265.938c-2.113.059-4.625-1.979-4.7-3.825a3.117,3.117,0,0,1,2.976-3.332c2.285-.118,4.778,1.89,4.8,3.88a3.2,3.2,0,0,1-3.085,3.282Z" transform="translate(48.476 -243.888)" fill="#fff" opacity="0.3"/>
</svg>
