<svg xmlns="http://www.w3.org/2000/svg" width="104.158" height="94.868" viewBox="0 0 104.158 94.868">
  <g id="Layer_1-2" transform="translate(0.011 -1.003)">
    <g id="Group_12810" data-name="Group 12810" transform="translate(-0.011 1.003)">
      <g id="freepik--background-simple--inject-169" transform="translate(2.064 5.078)" opacity="0.21">
        <path id="Path_18060" data-name="Path 18060" d="M84.3,146.187s21.657,1.013,35.356-23.462-2.42-46.989-27.32-51.854-37.3-23.131-59.5-9.148S22.971,150.174,84.3,146.187Z" transform="translate(-22.57 -56.551)" fill="#adadad"/>
        <path id="Path_18061" data-name="Path 18061" d="M84.3,146.187s21.657,1.013,35.356-23.462-2.42-46.989-27.32-51.854-37.3-23.131-59.5-9.148S22.971,150.174,84.3,146.187Z" transform="translate(-22.57 -56.551)" fill="#adadad" opacity="0.4"/>
      </g>
      <path id="Path_18062" data-name="Path 18062" d="M46.449,469.191l3.472,1.824-.4-9.8-8.282,5.242,3.472,1.818L42.1,473.254h0a2.071,2.071,0,0,0-1.273.437l-4.614-2.135v-.027a2.118,2.118,0,0,0-4.231-.207h0a1.311,1.311,0,0,0,0,.208,2.211,2.211,0,0,0,.191.879l-6.006,6.552a2.053,2.053,0,0,0-.6-.093,1.475,1.475,0,0,0-.311.033l-8.648-10.98a2.113,2.113,0,0,0-3.865-1.7,2.022,2.022,0,0,0-.18.841,2.335,2.335,0,0,0,.109.639L2.82,477.8a2.113,2.113,0,1,0,1.261,2.731h0a2.184,2.184,0,0,0,.125-.726,1.833,1.833,0,0,0-.071-.513L14.1,469.07a1.953,1.953,0,0,0,.606.1,1.9,1.9,0,0,0,.388-.038l8.6,10.92a2.136,2.136,0,1,0,3.756,2.036,2.092,2.092,0,0,0,.257-.9,1.381,1.381,0,0,0,0-.213,2.212,2.212,0,0,0-.109-.65l6.148-6.693a1.928,1.928,0,0,0,.355.033,2.108,2.108,0,0,0,1.179-.36l4.7,2.184a2.113,2.113,0,0,0,4.224-.129c0-.025,0-.048,0-.073a2.082,2.082,0,0,0-.377-1.091l2.632-5Z" transform="translate(0.011 -419.149)"/>
      <g id="Group_12803" data-name="Group 12803" transform="translate(50.782 4.414)">
        <path id="Path_18063" data-name="Path 18063" d="M582.821,99.593a22.541,22.541,0,1,0-22.07-23c0,.017,0,.034,0,.051A22.531,22.531,0,0,0,582.821,99.593Zm.788-38.455a15.965,15.965,0,1,1-16.284,15.639v0a15.965,15.965,0,0,1,16.284-15.636h0Z" transform="translate(-560.266 -54.039)" opacity="0.2"/>
        <path id="Path_18064" data-name="Path 18064" d="M667.185,133.192l-.155.181a15.928,15.928,0,0,1,13.147-6.457c.146,0,.293.006.437.016a.448.448,0,0,1-.455.414,15.437,15.437,0,0,0-12.974,5.847Z" transform="translate(-656.834 -119.817)"/>
        <path id="Path_18065" data-name="Path 18065" d="M659.587,220.725a.575.575,0,0,1,.329-.131.455.455,0,0,1,.32.14l.05.05a15.964,15.964,0,0,1-27.6-11.251v0a15.9,15.9,0,0,1,2.933-8.9.247.247,0,0,1-.018.03,15.753,15.753,0,0,0,1.746,20.226c.219.219.457.43.688.638a15.41,15.41,0,0,0,9.188,3.7h1.109a15.325,15.325,0,0,0,11.254-4.5Z" transform="translate(-625.628 -186.795)"/>
        <path id="Path_18066" data-name="Path 18066" d="M596.146,88.577a.006.006,0,0,1,0,0A22.974,22.974,0,1,1,579.938,49.29c.131,0,.263,0,.393,0a.458.458,0,0,1,.439.469v.026q-.212-.011-.425-.014a22.54,22.54,0,0,0-23,22.07v.05a22.54,22.54,0,0,0,38.789,16.032l.014.014a.474.474,0,0,1,0,.638Z" transform="translate(-556.859 -49.29)"/>
        <path id="Path_18067" data-name="Path 18067" d="M678.811,54.73l-.131,6.592a.073.073,0,0,1,0,.025,15.963,15.963,0,0,1,10.879,26.874l4.615,4.647A22.538,22.538,0,0,0,678.809,54.73ZM664.9,68.053c.061-.09.126-.178.195-.265-.062.073-.119.144-.174.219-.006.016-.014.032-.02.046Z" transform="translate(-654.899 -54.233)" fill="#77bcb7"/>
        <path id="Path_18068" data-name="Path 18068" d="M578.983,49.45a23.458,23.458,0,1,1-.049,0h.05Zm-.918,45.071a22.092,22.092,0,1,0-21.633-22.541v.011h0a22.1,22.1,0,0,0,21.633,22.54Zm.788-38.455a16.384,16.384,0,1,1-16.714,16.048v0a16.384,16.384,0,0,1,16.714-16.044Zm-.648,31.84a15.476,15.476,0,1,0-15.157-15.788v0h0A15.476,15.476,0,0,0,578.2,87.9v.01Z" transform="translate(-555.5 -49.435)"/>
      </g>
      <g id="Group_12805" data-name="Group 12805" transform="translate(50.642 59.12)">
        <path id="Path_18069" data-name="Path 18069" d="M589.934,671.228c-4.939,0-8.964-4.574-8.964-10.244S585,650.74,589.934,650.74s8.964,4.573,8.964,10.244-3.988,10.244-8.964,10.244Z" transform="translate(-578.409 -650.372)" fill="#606060" opacity="0.4"/>
        <path id="Path_18070" data-name="Path 18070" d="M586.3,667.941c-5.122,0-9.33-4.756-9.33-10.611s4.171-10.611,9.33-10.611,9.33,4.756,9.33,10.611S591.459,667.941,586.3,667.941Zm0-20.489c-4.72,0-8.6,4.427-8.6,9.878s3.841,9.878,8.6,9.878,8.6-4.427,8.6-9.878S591.056,647.452,586.3,647.452Z" transform="translate(-574.775 -646.72)"/>
        <path id="Path_18071" data-name="Path 18071" d="M559.156,660.984c0-5.232,3.439-9.549,7.866-10.171-.366-.037-.731-.073-1.1-.073-4.939,0-8.964,4.573-8.964,10.245s4.025,10.244,8.964,10.244c.366,0,.731-.037,1.1-.073-4.427-.622-7.866-4.939-7.866-10.171h0Z" transform="translate(-556.594 -650.372)" fill="#fff"/>
        <g id="Group_12804" data-name="Group 12804" transform="translate(0 0)">
          <path id="Path_18072" data-name="Path 18072" d="M562.29,667.941c-5.122,0-9.33-4.756-9.33-10.611s4.171-10.611,9.33-10.611c.366,0,.731.037,1.134.073v.731c-4.281.585-7.537,4.829-7.537,9.805s3.256,9.22,7.537,9.805v.731a11.077,11.077,0,0,1-1.134.073ZM560.753,647.6c-3.988.842-7.061,4.9-7.061,9.732s3.037,8.891,7.061,9.732a11.258,11.258,0,0,1,0-19.464Z" transform="translate(-552.96 -646.72)"/>
          <path id="Path_18073" data-name="Path 18073" d="M560.135,680.686H557.94a.366.366,0,0,1,0-.731h2.195a.345.345,0,0,1,.366.366A.366.366,0,0,1,560.135,680.686Zm-1.756-1.829h-2.195a.366.366,0,1,1,0-.731h2.195a.346.346,0,0,1,.366.366A.366.366,0,0,1,558.379,678.856Zm-1.244-2.195H554.94a.366.366,0,0,1,0-.731h2.195a.366.366,0,0,1,0,.731Zm-.585-1.829h-2.195a.366.366,0,0,1,0-.731h2.195a.366.366,0,1,1,0,.731ZM556.257,673h-2.122a.366.366,0,0,1,0-.731h2.158a.345.345,0,0,1,.366.366A.376.376,0,0,1,556.257,673Zm.073-1.829h-2.195a.366.366,0,1,1,0-.731h2.195a.345.345,0,0,1,.366.366A.366.366,0,0,1,556.331,671.174Zm.293-1.829h-2.195a.366.366,0,1,1,0-.731h2.195a.366.366,0,1,1,0,.731Zm.658-1.829h-2.195a.366.366,0,0,1,0-.731h2.195a.366.366,0,1,1,0,.731Zm1.354-2.195H556.44a.366.366,0,0,1,0-.731h2.195a.366.366,0,1,1,0,.731Zm1.975-1.829h-2.158a.366.366,0,0,1,0-.731h2.158a.345.345,0,0,1,.366.366A.366.366,0,0,1,560.611,663.491Z" transform="translate(-553.696 -661.294)"/>
          <path id="Path_18074" data-name="Path 18074" d="M607.061,689.25a5.4,5.4,0,0,1-.768-.037.367.367,0,1,1,.073-.731,4.2,4.2,0,0,0,.695.037.366.366,0,0,1,0,.731l.036-.366-.036.366Zm2.122-.4a.32.32,0,0,1-.329-.219.38.38,0,0,1,.219-.475,4.76,4.76,0,0,0,.622-.293.352.352,0,0,1,.329.622,5.616,5.616,0,0,1-.695.292C609.293,688.848,609.256,688.848,609.183,688.848Zm-4.939-.256a.33.33,0,0,1-.183-.037c-.219-.11-.439-.256-.658-.366a.37.37,0,1,1,.4-.622,4.733,4.733,0,0,0,.585.329.33.33,0,0,1,.146.475A.278.278,0,0,1,604.244,688.592Zm7.354-1.317a.332.332,0,0,1-.256-.11.353.353,0,0,1,0-.512,6.538,6.538,0,0,0,.475-.512.363.363,0,1,1,.549.475,3.638,3.638,0,0,1-.512.548A.332.332,0,0,1,611.6,687.275Zm-9.586-.512a.333.333,0,0,1-.292-.146,3.8,3.8,0,0,1-.439-.622.37.37,0,0,1,.622-.4c.146.183.256.366.4.548a.353.353,0,0,1-.037.512A.4.4,0,0,1,602.012,686.763Zm11.2-1.866a.22.22,0,0,1-.146-.037.363.363,0,0,1-.183-.475c.073-.219.183-.439.256-.658a.37.37,0,0,1,.695.256c-.073.256-.183.475-.256.695A.4.4,0,0,1,613.208,684.9Zm-12.586-.658a.351.351,0,0,1-.329-.256c-.073-.219-.146-.475-.219-.731a.359.359,0,0,1,.695-.183c.073.219.11.439.183.658a.38.38,0,0,1-.219.475A.134.134,0,0,1,600.622,684.239Zm13.281-2.158h0a.376.376,0,0,1-.366-.4c0-.219.037-.439.037-.658a.366.366,0,0,1,.731,0h0a4.894,4.894,0,0,1-.037.731A.361.361,0,0,1,613.9,682.081Zm-13.757-.695a.345.345,0,0,1-.366-.366h0a5.4,5.4,0,0,1,.037-.768.367.367,0,0,1,.731.073c0,.219-.037.475-.037.695A.345.345,0,0,1,600.146,681.386Zm13.5-2.158a.385.385,0,0,1-.366-.292c-.073-.219-.11-.439-.183-.658a.37.37,0,0,1,.695-.256c.073.219.146.475.219.731a.376.376,0,0,1-.256.439C613.72,679.191,613.683,679.228,613.647,679.228Zm-13.025-.695a.134.134,0,0,1-.11-.037.366.366,0,0,1-.219-.475c.073-.219.183-.475.256-.695a.36.36,0,0,1,.658.293,4.873,4.873,0,0,0-.256.658A.313.313,0,0,1,600.622,678.533Zm11.891-1.976a.451.451,0,0,1-.292-.146c-.146-.183-.256-.366-.4-.548a.363.363,0,1,1,.548-.475,3.787,3.787,0,0,1,.439.622.36.36,0,0,1-.11.512A.4.4,0,0,1,612.513,676.557Zm-10.5-.548a.519.519,0,0,1-.219-.073.353.353,0,0,1-.036-.512,3.64,3.64,0,0,1,.512-.548.362.362,0,0,1,.512.512,6.551,6.551,0,0,0-.475.512A.415.415,0,0,1,602.012,676.009Zm8.451-1.464a.279.279,0,0,1-.183-.073,4.714,4.714,0,0,0-.585-.329.33.33,0,0,1-.146-.475.323.323,0,0,1,.475-.146c.219.11.439.256.658.366a.36.36,0,0,1,.11.512A.657.657,0,0,1,610.464,674.545Zm-6.22-.366a.384.384,0,0,1-.329-.183.323.323,0,0,1,.146-.475,5.626,5.626,0,0,1,.695-.293.37.37,0,1,1,.256.695,3.24,3.24,0,0,0-.622.293A.22.22,0,0,0,604.244,674.18Zm3.512-.622h-.037a3.975,3.975,0,0,0-.658-.037.366.366,0,1,1,0-.731h0a5.4,5.4,0,0,1,.768.037.428.428,0,0,1,.329.4A.466.466,0,0,1,607.756,673.558Z" transform="translate(-595.5 -670.407)"/>
          <path id="Path_18075" data-name="Path 18075" d="M637.407,720.786a.316.316,0,0,0-.219-.11.4.4,0,0,0-.256.11,3.42,3.42,0,0,1-2.6,1.025,3.347,3.347,0,0,1-2.158-.731,3.16,3.16,0,0,1-1.1-1.756H634a.366.366,0,1,0,0-.731h-3.073c0-.146-.036-.329-.036-.512a2.773,2.773,0,0,1,.036-.549h3.293a.366.366,0,0,0,0-.731h-3.147a3.618,3.618,0,0,1,1.061-1.756,2.883,2.883,0,0,1,1.9-.731,3.691,3.691,0,0,1,2.67,1.243v.768a.366.366,0,1,0,.731,0v-2.268a.366.366,0,1,0-.731,0v.475a4.066,4.066,0,0,0-2.6-.952,3.733,3.733,0,0,0-2.525.952,4.035,4.035,0,0,0-1.281,2.268h-.731a.366.366,0,0,0,0,.731h.622c0,.183-.036.366-.036.549a2.252,2.252,0,0,0,.036.512h-.842a.366.366,0,0,0,0,.731h.952a3.89,3.89,0,0,0,1.354,2.268,3.951,3.951,0,0,0,2.671.915,4.248,4.248,0,0,0,3.11-1.244.3.3,0,0,0,.11-.256c0-.036-.11-.146-.146-.219" transform="translate(-622.04 -707.468)"/>
        </g>
      </g>
      <g id="Group_12807" data-name="Group 12807" transform="translate(12.048 21.966)">
        <path id="Path_18076" data-name="Path 18076" d="M149.4,246.513c2.359,3.39,1.142,8.334-2.75,11.042s-8.951,2.13-11.31-1.26-1.142-8.334,2.75-11.042,8.934-2.155,11.31,1.26h0Z" transform="translate(-133.831 -243.241)" fill="#606060" opacity="0.4"/>
        <path id="Path_18077" data-name="Path 18077" d="M146.6,243.387c2.445,3.515,1.191,8.674-2.826,11.468s-9.272,2.2-11.736-1.336-1.191-8.674,2.826-11.468S144.139,239.847,146.6,243.387Zm-14.06,9.783c2.253,3.239,7.143,3.786,10.884,1.183s4.945-7.353,2.673-10.617-7.143-3.786-10.884-1.183S130.272,249.906,132.543,253.17Z" transform="translate(-130.785 -240.288)"/>
        <path id="Path_18078" data-name="Path 18078" d="M164.3,294.964c-3.59,2.5-8.195,2.2-10.736-.541.15.269.3.538.474.788,2.359,3.39,7.418,3.967,11.31,1.26s5.108-7.653,2.75-11.042c-.175-.251-.375-.484-.574-.719,1.687,3.335.367,7.757-3.223,10.254h0Z" transform="translate(-151.478 -280.649)" fill="#fff"/>
        <g id="Group_12806" data-name="Group 12806" transform="translate(1.814 1.823)">
          <path id="Path_18079" data-name="Path 18079" d="M165.683,283.273c2.445,3.515,1.191,8.674-2.826,11.468s-9.272,2.2-11.736-1.336c-.175-.251-.325-.519-.491-.814l.5-.349c2.445,2.658,6.913,2.866,10.327.49s4.772-6.637,3.13-9.854l.5-.349A9.221,9.221,0,0,1,165.683,283.273Zm-13.225,10.768c2.482,2.335,6.736,2.5,10.05.2s4.651-6.329,3.307-9.493a9.412,9.412,0,0,1-13.357,9.293Z" transform="translate(-150.63 -280.491)"/>
          <path id="Path_18080" data-name="Path 18080" d="M191.524,320.6l1.049,1.507a.306.306,0,1,1-.5.349l-1.049-1.507a.289.289,0,0,1,.077-.426A.306.306,0,0,1,191.524,320.6Zm-.417,2.079,1.049,1.507a.306.306,0,1,1-.5.349l-1.049-1.507a.289.289,0,0,1,.077-.426A.306.306,0,0,1,191.107,322.677Zm-.912,1.9,1.049,1.507a.306.306,0,0,1-.5.349l-1.049-1.507a.306.306,0,1,1,.5-.349Zm-.975,1.275,1.049,1.507a.306.306,0,1,1-.5.349l-1.049-1.507a.306.306,0,1,1,.5-.349Zm-1.115,1.074,1.013,1.456a.306.306,0,1,1-.5.349l-1.031-1.481a.289.289,0,0,1,.077-.426.314.314,0,0,1,.443.1Zm-1.29.824,1.049,1.507a.306.306,0,0,1-.5.349l-1.049-1.507a.289.289,0,0,1,.077-.426A.306.306,0,0,1,186.814,327.751Zm-1.4.673,1.049,1.507a.306.306,0,1,1-.5.349l-1.049-1.507a.306.306,0,0,1,.5-.349Zm-1.57.421,1.049,1.507a.306.306,0,0,1-.5.349l-1.049-1.507a.306.306,0,0,1,.5-.349Zm-2.153.119,1.049,1.507a.306.306,0,0,1-.5.349l-1.049-1.507a.306.306,0,1,1,.5-.349Zm-2.2-.483,1.031,1.481a.306.306,0,1,1-.5.349L179,328.831a.289.289,0,0,1,.077-.426A.306.306,0,0,1,179.5,328.482Z" transform="translate(-176.346 -314.959)"/>
          <path id="Path_18081" data-name="Path 18081" d="M163.8,262.612a4.462,4.462,0,0,1,.342.545.307.307,0,0,1-.537.3,3.464,3.464,0,0,0-.307-.495.306.306,0,1,1,.5-.349l-.269.15.269-.15h0Zm-1.289-1.264a.268.268,0,0,1,.006.331.319.319,0,0,1-.431.077,3.916,3.916,0,0,0-.5-.287.294.294,0,0,1,.269-.523,4.639,4.639,0,0,1,.533.337c.068-.01.085.016.12.066Zm2.183,3.511a.278.278,0,0,1,.062.143c.029.2.034.423.063.626a.31.31,0,0,1-.619.021,3.858,3.858,0,0,0-.054-.559.276.276,0,0,1,.257-.327A.233.233,0,0,1,164.7,264.859Zm-4.415-4.417a.278.278,0,0,1,.047.229.3.3,0,0,1-.352.245,5.516,5.516,0,0,0-.579-.081.3.3,0,0,1,.064-.6,3.01,3.01,0,0,1,.621.09.279.279,0,0,1,.2.123Zm4.225,6.822a.279.279,0,0,1,.039.271,3.153,3.153,0,0,1-.218.6.31.31,0,1,1-.573-.235c.056-.187.129-.35.185-.538a.3.3,0,0,1,.369-.219.331.331,0,0,1,.2.123Zm-6.626-6.791a.185.185,0,0,1,.045.118.3.3,0,0,1-.239.353c-.186.055-.389.084-.574.139a.309.309,0,0,1-.156-.6c.21-.072.414-.1.6-.156a.336.336,0,0,1,.325.146Zm5.558,8.951a.3.3,0,0,1-.018.348c-.116.155-.257.327-.4.5a.3.3,0,0,1-.457-.389c.116-.155.249-.285.365-.44a.319.319,0,0,1,.431-.077.112.112,0,0,1,.078.058Zm-7.822-8.083h0a.314.314,0,0,1-.1.443c-.151.105-.319.185-.469.29a.306.306,0,1,1-.349-.5h0a4.152,4.152,0,0,1,.519-.325A.3.3,0,0,1,155.618,261.341Zm6.092,9.771a.289.289,0,0,1-.077.426l-.175-.251.175.251a4.47,4.47,0,0,1-.545.342.307.307,0,1,1-.3-.537c.151-.105.344-.2.495-.307A.289.289,0,0,1,161.71,271.113Zm-7.928-8.234a.322.322,0,0,1-.027.391c-.116.155-.249.285-.365.44a.31.31,0,0,1-.508-.355c.116-.155.257-.327.4-.5a.314.314,0,0,1,.423-.034c.017.025.06.033.078.058Zm5.742,9.27a.113.113,0,0,1,.027.092.305.305,0,0,1-.221.378c-.186.055-.414.1-.6.156a.3.3,0,1,1-.114-.591,4.023,4.023,0,0,0,.574-.139.262.262,0,0,1,.333.1Zm-7.034-7.216a.377.377,0,0,1,.039.271c-.056.187-.129.35-.185.538a.3.3,0,0,1-.589-.15,3.155,3.155,0,0,1,.218-.6.3.3,0,0,1,.4-.169A.334.334,0,0,1,152.491,264.932Zm4.638,7.468a.441.441,0,0,1,.055.186.3.3,0,0,1-.334.27,3.01,3.01,0,0,1-.621-.09.3.3,0,1,1,.107-.6,5.516,5.516,0,0,0,.579.081.348.348,0,0,1,.215.148Zm-5.04-5.1a.238.238,0,0,1,.037.161,3.858,3.858,0,0,0,.054.559.276.276,0,0,1-.257.327.269.269,0,0,1-.327-.257c-.029-.2-.034-.423-.063-.626a.3.3,0,0,1,.3-.32.544.544,0,0,1,.258.156Zm2.719,4.443a.323.323,0,0,1,.032.314.27.27,0,0,1-.4.127,4.635,4.635,0,0,1-.533-.337.31.31,0,0,1,.355-.508,2.7,2.7,0,0,0,.5.287.186.186,0,0,0,.045.118Zm-2.1-2.114.017.025a3.233,3.233,0,0,0,.29.469.306.306,0,0,1-.5.349l.251-.175-.251.175h0a4.464,4.464,0,0,1-.342-.545.358.358,0,0,1,.119-.418.388.388,0,0,1,.418.119Z" transform="translate(-151.449 -260.227)"/>
          <path id="Path_18082" data-name="Path 18082" d="M176.956,284.039a.264.264,0,0,0,.029.2.331.331,0,0,0,.2.123,2.855,2.855,0,0,1,1.944,1.294,2.794,2.794,0,0,1,.528,1.831,2.638,2.638,0,0,1-.681,1.592l-1.4-2.008a.306.306,0,1,0-.5.349l1.467,2.109c-.1.069-.208.182-.334.27a2.288,2.288,0,0,1-.394.237l-1.572-2.26a.306.306,0,1,0-.5.349l1.5,2.159a3.026,3.026,0,0,1-1.711.111,2.41,2.41,0,0,1-1.411-.956,2.843,2.843,0,0,1-.509-1.7,2.885,2.885,0,0,1,.087-.731l.527-.367a.306.306,0,0,0-.349-.5l-1.557,1.083a.306.306,0,0,0,.349.5l.326-.227a3.394,3.394,0,0,0,.588,2.237,3.065,3.065,0,0,0,1.858,1.278,3.368,3.368,0,0,0,2.168-.2l.349.5a.306.306,0,1,0,.5-.349l-.3-.427c.125-.088.269-.15.394-.237a1.838,1.838,0,0,0,.334-.27l.4.578a.306.306,0,1,0,.5-.349l-.454-.653a3.262,3.262,0,0,0,.91-2.012,3.3,3.3,0,0,0-.647-2.27,3.554,3.554,0,0,0-2.338-1.54.256.256,0,0,0-.229.047c-.026.017-.048.145-.08.206" transform="translate(-170.208 -281.627)"/>
        </g>
      </g>
      <g id="Group_12809" data-name="Group 12809" transform="translate(38.475 0)">
        <path id="Path_18083" data-name="Path 18083" d="M438.555,10.322c-1.734,1.708-4.729,1.494-6.69-.5s-2.129-4.989-.395-6.7,4.729-1.494,6.69.5,2.142,4.976.395,6.7Z" transform="translate(-429.323 -1.797)" fill="#606060" opacity="0.4"/>
        <path id="Path_18084" data-name="Path 18084" d="M436.885,8.656c-1.8,1.772-4.92,1.556-6.945-.5s-2.2-5.168-.393-6.951,4.92-1.556,6.945.5S438.7,6.872,436.885,8.656ZM429.8,1.463c-1.657,1.632-1.488,4.528.4,6.441s4.765,2.14,6.435.5,1.488-4.528-.4-6.441-4.765-2.14-6.435-.5Z" transform="translate(-427.526 -0.003)"/>
        <path id="Path_18085" data-name="Path 18085" d="M424.206,25.291A4.87,4.87,0,0,1,423.451,19c-.141.113-.282.228-.41.354-1.734,1.708-1.566,4.705.395,6.7s4.956,2.2,6.69.5a5.418,5.418,0,0,0,.36-.4,4.871,4.871,0,0,1-6.279-.851Z" transform="translate(-421.664 -17.263)" fill="#fff"/>
        <g id="Group_12808" data-name="Group 12808" transform="translate(0 1.1)">
          <path id="Path_18086" data-name="Path 18086" d="M428.455,25.267c-1.8,1.772-4.92,1.556-6.945-.5s-2.2-5.168-.393-6.951c.129-.126.27-.24.423-.367l.253.257a4.691,4.691,0,0,0,.744,6.049,4.692,4.692,0,0,0,6.037.836l.253.257A5.488,5.488,0,0,1,428.455,25.267Zm-7.574-6.61a4.769,4.769,0,0,0,.886,5.859,4.749,4.749,0,0,0,5.844.975,5.547,5.547,0,0,1-6.73-6.833Z" transform="translate(-419.867 -16.955)"/>
          <path id="Path_18087" data-name="Path 18087" d="M427,42.119l-.771.759a.18.18,0,0,1-.253-.257l.771-.759a.171.171,0,0,1,.255,0A.181.181,0,0,1,427,42.119Zm-1.249-.035-.771.759a.18.18,0,1,1-.253-.257l.771-.759a.171.171,0,0,1,.255,0A.181.181,0,0,1,425.747,42.084Zm-1.2-.341-.771.759a.18.18,0,1,1-.253-.257l.771-.759a.18.18,0,1,1,.253.257Zm-.838-.44-.771.759a.18.18,0,1,1-.253-.257l.771-.759a.18.18,0,1,1,.253.257Zm-.735-.541-.745.734a.18.18,0,0,1-.253-.257l.758-.747a.171.171,0,0,1,.255,0A.186.186,0,0,1,422.978,40.762Zm-.607-.667-.771.759a.18.18,0,1,1-.253-.257l.771-.759a.171.171,0,0,1,.255,0A.181.181,0,0,1,422.371,40.095Zm-.53-.743-.771.759a.18.18,0,1,1-.253-.257l.771-.759a.18.18,0,1,1,.253.257Zm-.4-.87-.771.759a.18.18,0,1,1-.253-.257l.771-.759a.18.18,0,1,1,.253.257Zm-.283-1.239-.771.759a.18.18,0,1,1-.253-.257l.771-.759a.18.18,0,1,1,.253.257Zm.061-1.326-.758.747a.18.18,0,1,1-.253-.257l.758-.747a.171.171,0,0,1,.255,0A.181.181,0,0,1,421.217,35.917Z" transform="translate(-420.055 -33.449)"/>
          <path id="Path_18088" data-name="Path 18088" d="M447.2,18.74a2.656,2.656,0,0,1-.282.253.181.181,0,1,1-.228-.282,2.115,2.115,0,0,0,.257-.228.18.18,0,0,1,.253.257l-.113-.141.113.141Zm.606-.875a.158.158,0,0,1-.192.037.189.189,0,0,1-.088-.243,2.287,2.287,0,0,0,.117-.318.173.173,0,0,1,.331.1,2.9,2.9,0,0,1-.143.343c.013.038,0,.051-.027.076Zm-1.823,1.618a.155.155,0,0,1-.077.05c-.115.037-.242.062-.357.1a.183.183,0,0,1-.074-.357,2.323,2.323,0,0,0,.319-.087.163.163,0,0,1,.216.116.137.137,0,0,1-.027.178Zm2.126-3.006a.164.164,0,0,1-.128.05.174.174,0,0,1-.177-.18A3.447,3.447,0,0,0,447.8,16a.179.179,0,1,1,.357-.023,1.791,1.791,0,0,1,.01.37A.162.162,0,0,1,448.112,16.478Zm-3.542,3.135a.164.164,0,0,1-.154.05,1.869,1.869,0,0,1-.369-.067.183.183,0,0,1,.079-.357c.114.014.217.04.331.054a.174.174,0,0,1,.165.193.193.193,0,0,1-.052.127Zm3.285-4.527c-.013.013-.038.038-.064.037a.179.179,0,0,1-.229-.1c-.05-.1-.088-.218-.138-.32a.183.183,0,0,1,.333-.15c.063.115.1.23.151.333a.2.2,0,0,1-.052.2Zm-4.647,4.121a.172.172,0,0,1-.2.024c-.1-.052-.216-.116-.33-.181a.177.177,0,1,1,.18-.3c.1.052.19.116.292.168a.189.189,0,0,1,.088.243.067.067,0,0,1-.026.051Zm3.916-5.351h0a.186.186,0,0,1-.268-.015c-.076-.077-.139-.166-.215-.244a.18.18,0,0,1,.257-.253h0a2.409,2.409,0,0,1,.24.27A.178.178,0,0,1,447.125,13.856Zm-5.07,4.513a.171.171,0,0,1-.255,0l.129-.126-.129.126a2.659,2.659,0,0,1-.253-.282.181.181,0,1,1,.282-.228c.076.077.152.18.228.257a.171.171,0,0,1,0,.255Zm3.994-5.426a.191.191,0,0,1-.229.024c-.1-.052-.19-.116-.292-.168a.183.183,0,0,1,.155-.331c.1.052.216.116.33.181a.185.185,0,0,1,.062.242c-.013.013-.013.038-.026.051Zm-4.813,4.26a.063.063,0,0,1-.051.025.18.18,0,0,1-.241-.091c-.05-.1-.1-.23-.151-.333a.177.177,0,0,1,.332-.125,2.41,2.41,0,0,0,.138.32.154.154,0,0,1-.027.2Zm3.492-4.806a.223.223,0,0,1-.154.05c-.114-.014-.217-.04-.331-.054a.179.179,0,0,1,.028-.357,1.868,1.868,0,0,1,.369.067.178.178,0,0,1,.139.218.192.192,0,0,1-.051.076Zm-3.876,3.438a.256.256,0,0,1-.1.05.174.174,0,0,1-.19-.167,1.793,1.793,0,0,1-.01-.37.179.179,0,0,1,.357,0,3.185,3.185,0,0,0,.01.345.2.2,0,0,1-.065.14Zm2.461-3.436a.137.137,0,0,1-.09.037,2.323,2.323,0,0,0-.319.087.163.163,0,0,1-.216-.116.159.159,0,0,1,.116-.216c.115-.037.242-.062.357-.1a.177.177,0,0,1,.216.142A.323.323,0,0,1,443.313,12.4ZM441,14.421a.189.189,0,0,1-.179.049.16.16,0,0,1-.113-.218,2.9,2.9,0,0,1,.143-.343.183.183,0,0,1,.331.155,1.575,1.575,0,0,0-.117.318A.108.108,0,0,0,441,14.421Zm1.018-1.432-.013.013a2.021,2.021,0,0,0-.244.215.18.18,0,1,1-.253-.257l.126.129-.126-.129h0a2.656,2.656,0,0,1,.282-.253.212.212,0,0,1,.255.027A.231.231,0,0,1,442.021,12.988Z" transform="translate(-438.653 -12.034)"/>
          <path id="Path_18089" data-name="Path 18089" d="M465.242,25.579a.156.156,0,0,0-.115.037.2.2,0,0,0-.052.127A1.685,1.685,0,0,1,464.517,27a1.646,1.646,0,0,1-1.011.489,1.555,1.555,0,0,1-.993-.237l1.028-1.012a.18.18,0,1,0-.253-.257l-1.079,1.063c-.05-.051-.127-.1-.19-.167a1.422,1.422,0,0,1-.177-.206L463,25.536a.18.18,0,1,0-.253-.257l-1.1,1.088a1.782,1.782,0,0,1-.235-.984,1.423,1.423,0,0,1,.415-.915,1.818,1.818,0,0,1,1.368-.486l.266.27A.18.18,0,0,0,463.71,24l-.784-.8a.18.18,0,0,0-.257.253l.165.167a2.006,2.006,0,0,0-1.241.564,1.839,1.839,0,0,0-.558,1.207,1.985,1.985,0,0,0,.335,1.24l-.257.253a.18.18,0,0,0,.253.257l.219-.215c.063.064.113.141.177.206a1.075,1.075,0,0,0,.19.167l-.3.291a.18.18,0,1,0,.253.257l.334-.329a1.922,1.922,0,0,0,1.26.328,1.95,1.95,0,0,0,1.254-.6,2.094,2.094,0,0,0,.662-1.512.15.15,0,0,0-.05-.128,1.1,1.1,0,0,0-.127-.027" transform="translate(-457.267 -22.128)"/>
        </g>
      </g>
    </g>
  </g>
</svg>
