<svg xmlns="http://www.w3.org/2000/svg" width="171.339" height="112.332" viewBox="0 0 171.339 112.332">
  <g id="Layer_1-2" transform="translate(0 0.001)">
    <g id="Group_12797" data-name="Group 12797" transform="translate(0 -0.001)">
      <g id="Group_12794" data-name="Group 12794">
        <g id="Group_12789" data-name="Group 12789" transform="translate(65.994 29.72)">
          <rect id="Rectangle_1572" data-name="Rectangle 1572" width="13.594" height="3.596" transform="translate(6.907)" fill="#ebebeb"/>
          <path id="Path_18022" data-name="Path 18022" d="M542.679,273.973a.306.306,0,0,1,0,.067v.891c0,.62.013,1.512.022,2.638l-.041-.041,13.594-.028c-.031.03.069-.067-.067.069h0v-3.6l.069.067-9.687-.03-2.862-.019h-.03l2.845-.019,9.736-.03h.067v3.638h0c-.137.14-.036.039-.069.069l-13.594-.028h-.041v-.041c0-1.135.019-2.037.026-2.663v-.874a.355.355,0,0,1,.036-.067Z" transform="translate(-542.62 -270.342)" fill="#e0e0e0"/>
        </g>
        <g id="Group_12790" data-name="Group 12790" transform="translate(47.397 5.67)">
          <rect id="Rectangle_1573" data-name="Rectangle 1573" width="13.105" height="3.467" transform="translate(0 3.58)" fill="#ebebeb"/>
          <path id="Path_18023" data-name="Path 18023" d="M456.735,50.171a.285.285,0,0,1,0-.064v-.86c0-.6-.013-1.457-.022-2.543l.04.04-13.1.027c.029-.029-.067.064.064-.067h0v3.467l-.067-.064,9.339.029,2.758.019h.029l-2.743.019-9.386.029h-.064V46.7h0c.133-.135.035-.038.067-.067l13.1.027h.04v.04c0,1.093-.019,1.964-.024,2.567v.843a.471.471,0,0,1-.035.064Z" transform="translate(-437.028 -46.623)" fill="#e0e0e0"/>
        </g>
        <path id="Path_18024" data-name="Path 18024" d="M210.335,446.107v-.87c0-.563-.012-1.372-.023-2.395l.038.038-12.341.026.063-.063h0V446.1l-.061-.061,8.794.028,2.6.018h.885a.281.281,0,0,1,.063,0h-.921l-2.582.018-8.838.028h-.061v-3.32h0l.063-.063,12.341.026h.038v.038c0,1.03-.016,1.849-.021,2.418v.794a.853.853,0,0,0-.038.084Z" transform="translate(-173.875 -388.902)" fill="#e0e0e0"/>
        <path id="Path_18025" data-name="Path 18025" d="M259.537,419.15a.278.278,0,0,1,0-.063v-.827c0-.573-.016-1.38-.026-2.374l.046.046-7.414.018.063-.063h0v3.259l-.058-.061,5.3.028,1.545.018h.566a.838.838,0,0,1-.135,0h-.4l-1.521.016-5.345.028h-.1v-3.32h0c-.016,0,.119-.119.063-.063l7.414.018h.046v.046c0,1.014-.021,1.824-.026,2.4v.645a.955.955,0,0,1-.023.251Z" transform="translate(-221.404 -365.21)" fill="#e0e0e0"/>
        <path id="Path_18026" data-name="Path 18026" d="M840.312,30.545v-.87c0-.563,0-1.374-.021-2.4l.038.04-12.341.023.063-.063h0v3.264l-.061-.063,8.794.028,2.6.018h.03l-2.582.018-8.838.028h-.061V27.281h0l.063-.061,12.341.023h.038v.038c0,1.033-.016,1.852-.021,2.42V30.5a.21.21,0,0,1-.04.051Z" transform="translate(-727.236 -23.909)" fill="#e0e0e0"/>
        <path id="Path_18027" data-name="Path 18027" d="M889.726,3.367a.253.253,0,0,1,0-.061V2.479c0-.573-.016-1.383-.026-2.376l.046.046-7.414.018c-.058.056.077-.077.061-.063h0V3.364l-.058-.058,5.3.028,1.545.018h.566a.832.832,0,0,1-.135,0h-.406l-1.521.018-5.345.028h-.061V.074h0c-.016.016.119-.119.063-.061l7.414.018h.046V.074c0,1.014-.021,1.824-.026,2.4v.645c0,.159-.038.248-.054.243Z" transform="translate(-774.975 0.001)" fill="#e0e0e0"/>
        <path id="Path_18028" data-name="Path 18028" d="M886.12,317.3v.87c0,.563,0,1.374.021,2.4l-.038-.04,12.341-.023-.063.063h0V317.3l.061.063-8.795-.028-2.6-.018h-.03l2.582-.018,8.838-.028h.061v3.29h0l-.063.061L886.1,320.6h-.038v-.038c0-1.033.016-1.852.021-2.42v-.794a.2.2,0,0,1,.04-.051Z" transform="translate(-778.296 -278.683)" fill="#e0e0e0"/>
        <path id="Path_18029" data-name="Path 18029" d="M872.218,344.113a.26.26,0,0,1,0,.061V345c0,.573.016,1.383.026,2.376l-.046-.046,7.414-.018c.058-.056-.077.077-.061.063h0v-3.262l.058.058-5.3-.028-1.545-.018h-.566a.832.832,0,0,1,.135,0h.406l1.521-.018,5.345-.028h.061V347.4h0c.016-.016-.119.119-.063.061l-7.414-.018h-.046V347.4c0-1.014.021-1.824.026-2.4v-.645c0-.159.038-.248.054-.243Z" transform="translate(-766.069 -302.232)" fill="#e0e0e0"/>
        <g id="Group_12793" data-name="Group 12793" transform="translate(0 51.766)">
          <rect id="Rectangle_1574" data-name="Rectangle 1574" width="61.422" height="47.378" transform="translate(18.088 12.966)" fill="#f5f5f5"/>
          <path id="Path_18030" data-name="Path 18030" d="M274.293,576.8c.085,0,.153-10.563.153-23.581s-.068-23.587-.153-23.587-.153,10.557-.153,23.587S274.185,576.8,274.293,576.8Z" transform="translate(-240.799 -516.981)" fill="#ebebeb"/>
          <rect id="Rectangle_1575" data-name="Rectangle 1575" width="4.708" height="5.321" transform="translate(23.295 49.373)" fill="#fafafa"/>
          <rect id="Rectangle_1576" data-name="Rectangle 1576" width="6.977" height="10.109" transform="translate(53.791 12.995)" fill="#ebebeb"/>
          <rect id="Rectangle_1577" data-name="Rectangle 1577" width="6.977" height="10.109" transform="translate(53.791 49.901)" fill="#ebebeb"/>
          <rect id="Rectangle_1578" data-name="Rectangle 1578" width="77.545" height="59.812" transform="translate(75.898 0.525)" fill="#ebebeb"/>
          <path id="Path_18031" data-name="Path 18031" d="M1100.779,485.181c-.085,0-.159-13.331-.159-29.775s.074-29.775.159-29.775.153,13.331.153,29.775S1100.864,485.181,1100.779,485.181Z" transform="translate(-966.761 -425.63)" fill="#e0e0e0"/>
          <rect id="Rectangle_1579" data-name="Rectangle 1579" width="5.945" height="6.722" transform="translate(140.923 46.339)" fill="#fafafa"/>
          <rect id="Rectangle_1580" data-name="Rectangle 1580" width="8.809" height="12.763" transform="translate(99.558 0.583)" fill="#e0e0e0"/>
          <rect id="Rectangle_1581" data-name="Rectangle 1581" width="8.809" height="12.763" transform="translate(99.558 47.008)" fill="#e0e0e0"/>
          <rect id="Rectangle_1582" data-name="Rectangle 1582" width="46.901" height="36.174" transform="translate(68.67 24.352)" fill="#77bcb7"/>
          <rect id="Rectangle_1583" data-name="Rectangle 1583" width="3.596" height="4.067" transform="translate(72.647 52.29)" fill="#fafafa"/>
          <g id="Group_12791" data-name="Group 12791" transform="translate(95.932 24.442)" opacity="0.3">
            <rect id="Rectangle_1584" data-name="Rectangle 1584" width="5.327" height="7.721" fill="#fff"/>
          </g>
          <g id="Group_12792" data-name="Group 12792" transform="translate(95.932 52.698)" opacity="0.3">
            <rect id="Rectangle_1585" data-name="Rectangle 1585" width="5.327" height="7.721" fill="#fff"/>
          </g>
          <path id="Path_18032" data-name="Path 18032" d="M659,666.589c-.142,0-.262-7.942-.262-17.773s.119-17.766.262-17.766.255,7.942.255,17.766S659.144,666.589,659,666.589Z" transform="translate(-578.623 -606.067)" opacity="0.5"/>
          <path id="Path_18033" data-name="Path 18033" d="M164.116,921.347c0,.079-36.736.147-82.058.147S0,921.426,0,921.347s36.727-.147,82.058-.147S164.116,921.262,164.116,921.347Z" transform="translate(0 -860.928)" fill="#ebebeb"/>
        </g>
      </g>
      <g id="Group_12795" data-name="Group 12795" transform="translate(128.613 13.536)">
        <path id="Path_18034" data-name="Path 18034" d="M1070.911,274.421c3.278,0,6.555,0,9.833,0a11.217,11.217,0,0,1,4.536.8,5.4,5.4,0,0,1,3.248,6.345,5.531,5.531,0,0,1-4.249,3.838,5.061,5.061,0,0,1-4.534-.817,3.564,3.564,0,0,1-1.442-3.8,3.741,3.741,0,0,1,3.171-2.648,3.1,3.1,0,0,1,3,.9,4.793,4.793,0,0,1,.747,1.419.434.434,0,0,1-.354.619c-.308.067-.483-.1-.572-.387a2.087,2.087,0,0,0-2.368-1.643,2.765,2.765,0,0,0-2.766,2.734,2.712,2.712,0,0,0,1.366,2.193,4.606,4.606,0,0,0,5.039-.13,3.9,3.9,0,0,0,2.159-3.643,4.353,4.353,0,0,0-2.385-3.875,8.35,8.35,0,0,0-3.994-.918c-2.732-.022-5.462-.01-8.194-.01h-13.383c-.136,0-.274.007-.41,0-.292-.024-.5-.161-.5-.477s.2-.458.489-.486c.135-.013.272,0,.41,0Z" transform="translate(-1058.693 -254.579)" fill="#ebebeb"/>
        <path id="Path_18035" data-name="Path 18035" d="M1205.83,118.748a9.081,9.081,0,0,1-1.582,4.6.5.5,0,0,1-.667.225,9.722,9.722,0,0,1-4.122-2.966,6.028,6.028,0,0,1-.4-6.688,1.177,1.177,0,0,0-.174-1.576c-.085-.085-.206-.193-.206-.291a1.063,1.063,0,0,1,.119-.632c.178-.213.44-.141.632.069a.681.681,0,0,1,.113.141,3.049,3.049,0,0,0,1.985,1.49,6.808,6.808,0,0,1,2.7,1.636A5.193,5.193,0,0,1,1205.83,118.748Zm-5.821-4.628a5.842,5.842,0,0,0-.687,3.917c.5,2.363,2.29,3.515,4.254,4.5,2.44-3.242,1.073-8.012-2.378-8.449.387.769.83,1.515,1.146,2.312a1.8,1.8,0,0,0,1.577,1.293c.152.017.405.32.381.445-.034.178-.26.362-.449.452a1.506,1.506,0,0,1-.583.015c.173.586.342,1.149.5,1.716.093.324.139.646-.276.791-.31.108-.513-.085-.664-.557-.289-.909-.586-1.815-.9-2.715-.147-.418-.351-.816-.541-1.249-.235.306-.414.567-.619.8a.438.438,0,0,1-.68.069.46.46,0,0,1-.021-.718,1.77,1.77,0,0,0-.061-2.626Z" transform="translate(-1181.12 -111.294)" fill="#ebebeb"/>
        <path id="Path_18036" data-name="Path 18036" d="M1332.821,270.052c.039-.1.132-.322.208-.551.1-.315.3-.523.64-.411.378.124.383.439.257.749-.361.883-.736,1.759-1.107,2.638-.04.1-.084.191-.14.316a1.583,1.583,0,0,1,.59.084c.167.1.376.322.364.476s-.251.326-.425.434c-.1.062-.267,0-.4.017a1.47,1.47,0,0,0-1.152.631c-.22.323-.473.624-.717.941a3.7,3.7,0,0,0,3.99-3.155,8.864,8.864,0,0,0-.9-4.6,10.058,10.058,0,0,0-3.982,3.351,4.205,4.205,0,0,0-.662,2.994c.058.354.01.673-.4.725-.431.055-.521-.283-.562-.617a5.565,5.565,0,0,1,1.325-4.35,12.7,12.7,0,0,1,4.235-3.156.468.468,0,0,1,.7.192,9.655,9.655,0,0,1,1.14,5.925,4.385,4.385,0,0,1-3.874,3.576,4.82,4.82,0,0,1-.764.111,4.109,4.109,0,0,0-2.51.719,1.692,1.692,0,0,1-.372.165c-.324.139-.647.185-.8-.218-.136-.367.129-.516.421-.681a10.817,10.817,0,0,0,1.747-1.12,8.753,8.753,0,0,0,2.241-3.169,2.46,2.46,0,0,0-.03-1.311c-.051-.288-.238-.6.1-.75.209-.092.51.021.833.047Z" transform="translate(-1294.633 -247.611)" fill="#ebebeb"/>
        <path id="Path_18037" data-name="Path 18037" d="M1152.623,241.092h-15.656c-.136,0-.274,0-.41,0a.459.459,0,0,1-.5-.477c0-.315.2-.454.5-.477.12-.01.242,0,.364,0h31.45c.646,0,.859.122.858.483s-.206.478-.859.478Z" transform="translate(-1126.504 -224.461)" fill="#ebebeb"/>
        <path id="Path_18038" data-name="Path 18038" d="M1057.492,309.029a4.3,4.3,0,0,1,.539-.454c.093-.053.237-.018.359-.018h13.066a3.844,3.844,0,0,1,2.586.825,2.406,2.406,0,0,1,.2.189c.4.421.482.761.207.972-.423.322-.637-.024-.893-.3a2.836,2.836,0,0,0-2.221-.738q-6.4-.007-12.793,0a1.279,1.279,0,0,1-.495-.026,3.024,3.024,0,0,1-.553-.45Z" transform="translate(-1057.49 -284.556)" fill="#ebebeb"/>
        <path id="Path_18039" data-name="Path 18039" d="M1066.656,198.677c-2.411,0-4.821,0-7.233-.006a.982.982,0,0,1-.586-.151.454.454,0,0,1,.242-.769,2.446,2.446,0,0,1,.454-.017h14.328c.091,0,.182,0,.272,0,.319-.009.545.114.55.459.006.371-.229.486-.568.486-1.622,0-3.245,0-4.867,0h-2.593Z" transform="translate(-1058.55 -187.22)" fill="#ebebeb"/>
        <path id="Path_18040" data-name="Path 18040" d="M1286.359,198.656c-.652,0-1.3-.006-1.956,0-.353,0-.626-.108-.615-.493.01-.356.28-.457.609-.456q1.956.009,3.911,0c.336,0,.586.108.588.472s-.242.482-.581.477C1287.663,198.65,1287.011,198.656,1286.359,198.656Z" transform="translate(-1256.265 -187.2)" fill="#ebebeb"/>
        <path id="Path_18041" data-name="Path 18041" d="M1085.916,241.041a1.314,1.314,0,0,1-.538-.015c-.173-.089-.394-.285-.4-.443a.6.6,0,0,1,.361-.46,4.013,4.013,0,0,1,1.219,0,.558.558,0,0,1,.354.422.7.7,0,0,1-.367.471,1.605,1.605,0,0,1-.628.018v0Z" transform="translate(-1081.635 -224.415)" fill="#ebebeb"/>
        <path id="Path_18042" data-name="Path 18042" d="M1349.156,198.563a1.757,1.757,0,0,1-.626-.017c-.16-.066-.372-.282-.363-.418a.619.619,0,0,1,.36-.463,4.217,4.217,0,0,1,1.261,0,.6.6,0,0,1,.383.443c0,.154-.217.371-.388.445a1.674,1.674,0,0,1-.626.017v0Z" transform="translate(-1312.814 -187.116)" fill="#ebebeb"/>
        <path id="Path_18043" data-name="Path 18043" d="M1207.076,134.283a1.769,1.769,0,0,1,.061,2.626.461.461,0,0,0,.021.718.438.438,0,0,0,.68-.069c.206-.237.386-.5.619-.8.19.432.393.831.541,1.249.317.9.613,1.806.9,2.715.151.471.354.665.664.557.415-.145.369-.467.276-.791-.16-.566-.331-1.13-.5-1.716a1.506,1.506,0,0,0,.583-.015c.188-.09.415-.275.449-.452.024-.126-.229-.429-.381-.445a1.8,1.8,0,0,1-1.577-1.293c-.318-.8-.759-1.543-1.147-2.312,3.452.437,4.819,5.207,2.379,8.449-1.964-.983-3.758-2.134-4.254-4.5a5.827,5.827,0,0,1,.687-3.917Z" transform="translate(-1188.188 -131.458)" fill="#fff"/>
      </g>
      <g id="Group_12796" data-name="Group 12796" transform="translate(3.512 18.367)">
        <path id="Path_18044" data-name="Path 18044" d="M51.763,222.758H67.921c.122,0,.243,0,.364,0,.311.008.54.128.546.474s-.21.48-.525.494c-.152.006-.3,0-.455,0q-15.545,0-31.089,0a9.727,9.727,0,0,0-4.38.845,4.38,4.38,0,0,0-2.064,5.925,5.023,5.023,0,0,0,6.731,1.807,2.754,2.754,0,0,0,1.3-2.919,2.946,2.946,0,0,0-4.3-1.579,2.8,2.8,0,0,0-.735,1.093c-.14.3-.224.6-.617.5-.416-.1-.415-.414-.331-.758a2.834,2.834,0,0,1,2.288-2.151,4.123,4.123,0,0,1,4.237,1.753,3.577,3.577,0,0,1-1.323,4.862c-3.252,2.106-8.143-.047-8.645-3.883a5.125,5.125,0,0,1,2.34-5.1,8.052,8.052,0,0,1,4.069-1.293c.8-.063,1.607-.073,2.409-.074q7.009-.009,14.019,0Z" transform="translate(-28.874 -214.031)" fill="#ebebeb"/>
        <path id="Path_18045" data-name="Path 18045" d="M57.549,153.783A2.655,2.655,0,0,0,55.37,155.6c-.1.321-.293.567-.666.434-.409-.146-.355-.468-.225-.793.033-.081.056-.168.109-.33l-.763.23c-.71.214-1.422.426-2.13.645a.463.463,0,0,1-.657-.3c-.1-.316.072-.522.375-.619.157-.051.316-.094.534-.158-.151-.114-.317-.179-.369-.294-.088-.2-.2-.489-.119-.622a.625.625,0,0,1,.6-.161,2.793,2.793,0,0,0,2.989.083,18.493,18.493,0,0,0,4.782-2.476.463.463,0,0,1,.721.043c.22.27.114.507-.128.707a.518.518,0,0,1-.071.057,5.472,5.472,0,0,0-2.228,2.643c-1.494,2.882-4.259,3.922-7.491,2.935a24.874,24.874,0,0,1-2.43-1.006.489.489,0,0,1-.314-.7,7.517,7.517,0,0,1,4.521-4.625,6.492,6.492,0,0,1,4.281.168c.293.1.489.27.393.6-.1.359-.384.407-.692.306a6.543,6.543,0,0,0-2.591-.376,5.505,5.505,0,0,0-4.22,2.75c-.242.361-.437.753-.671,1.164,1.712.812,3.409,1.439,5.293.936a5.325,5.325,0,0,0,3.351-3.075Z" transform="translate(-45.53 -151.014)" fill="#ebebeb"/>
        <path id="Path_18046" data-name="Path 18046" d="M161.624,261.461H147.511c-.152,0-.343.05-.446-.023-.173-.122-.383-.317-.4-.495-.011-.139.236-.326.4-.437.1-.063.266-.018.4-.018h28.316c.106,0,.213,0,.319,0,.3.016.5.145.507.465.01.345-.2.484-.516.5-.136.009-.274,0-.41,0H161.624Z" transform="translate(-132.341 -247.16)" fill="#ebebeb"/>
        <path id="Path_18047" data-name="Path 18047" d="M152.632,297.113H158c.136,0,.311-.045.4.022.163.122.364.3.379.474.013.137-.2.334-.359.437-.109.072-.294.034-.445.034q-5.343,0-10.687,0h-.227c-.337,0-.623-.089-.612-.5s.3-.472.636-.471Q149.859,297.116,152.632,297.113Z" transform="translate(-132.148 -279.331)" fill="#ebebeb"/>
        <path id="Path_18048" data-name="Path 18048" d="M271.024,297.129c.181,0,.394-.06.535.016.17.09.384.293.387.451a.605.605,0,0,1-.369.455,3.98,3.98,0,0,1-1.036.029.443.443,0,0,1-.476-.491.457.457,0,0,1,.5-.465c.151-.006.3,0,.454,0v.006Z" transform="translate(-240.731 -279.338)" fill="#ebebeb"/>
      </g>
    </g>
  </g>
</svg>
