<?xml version="1.0" encoding="UTF-8"?><svg id="Layer_2" xmlns="http://www.w3.org/2000/svg" viewBox="0 0 920.17 962.88"><defs><style>.cls-1{fill:#adadad;}.cls-2{fill:#9b9b9b;}.cls-3{fill:#77bcb7;}.cls-4{isolation:isolate;opacity:.21;}</style></defs><g id="Layer_1-2"><g><g class="cls-4"><path class="cls-1" d="M787.61,386.24C545.98,292.28,590.6,42.21,325.54,2.38,170.76-20.88,52.78,130.74,16.13,263.77c-60.97,221.3,59.34,410.85,219.14,554.25,123.78,111.07,255.35,184.29,426.24,122.07,269.31-98.05,356.12-464.39,126.09-553.84Z"/></g><g><g class="cls-4"><path class="cls-2" d="M636.85,434.67c13.27-16.79,28.98-30.87,47.23-42.02,27.48-16.79,57.03-24.63,89.33-20.15,15.35,2.13,30.67,4.48,46.05,6.33,15.31,1.84,30.7,3.08,46.11,.89,9.49-1.34,18.46-4.18,25.51-11.03,9.25-9,14.89-19.91,15.06-32.98,.12-9.79-4.98-16.88-13.63-21.22-13.43-6.73-31.84-4.56-41.94,9.47-.74,1.03-1.33,2.16-2.07,3.19-1.8,2.53-4.3,3.17-6.57,1.73-2.24-1.43-2.75-4-1.19-6.7,6.01-10.37,14.88-17.03,26.59-19.46,14.88-3.08,28.43-.24,39.24,11.02,8.94,9.31,10.79,20.73,7.58,32.89-3.24,12.26-9.3,22.98-19.33,31.09-7.38,5.96-16.01,9.03-25.24,10.68-13.06,2.33-26.23,2.22-39.31,.75-19.35-2.18-38.65-4.89-57.95-7.49-21.61-2.91-42.49-.18-62.57,8.22-25.44,10.64-46.52,27.15-63.93,48.44-3.11,3.8-6.38,3.47-8.97-.91v-2.72Z"/></g><g class="cls-4"><path class="cls-2" d="M769.73,414.43c-11.7-.07-23.26,.86-34.39,4.57-17.49,5.83-30.76,16.33-36.93,34.39-1.08,3.16-3.29,4.44-5.99,3.59-2.58-.81-3.76-3.31-2.75-6.43,3.79-11.64,10.72-21.12,20.33-28.59,13.25-10.31,28.62-15.09,45.13-16.11,23.66-1.47,46.89,1.18,69.44,8.7,7.92,2.64,15.56,5.95,21.98,11.57,13.05,11.42,16.12,32.49,6.55,45.64-12.79,17.58-37.89,15.99-48.65-3.12-1.24-2.2-2.29-4.53-3.26-6.86-1.29-3.11-.46-5.58,2.07-6.7,2.63-1.16,4.97,.03,6.47,3.2,1.17,2.45,2.23,4.98,3.7,7.24,4.96,7.66,13.55,10.97,21.38,8.44,9.06-2.93,15.25-11.44,14.74-20.53-.65-11.43-5.95-19.95-16.25-25.18-12.6-6.4-26.16-9.59-40.04-11.47-7.81-1.06-15.69-1.58-23.53-2.34Z"/></g><g class="cls-4"><path class="cls-2" d="M769.71,342.68c-23.23-1.74-45.5,2.27-66.83,11.45-18.96,8.15-35.7,19.59-49.94,34.59-3.04,3.2-5.68,3.92-7.9,1.95-2.43-2.16-2.16-4.7,1.06-8.21,12.15-13.23,26.41-23.75,42.3-31.98,23.53-12.19,48.6-18.11,75.15-17.46,2.63,.06,5.25,.27,7.88,.42,3.64,.2,5.64,2.04,5.47,5.01-.16,2.78-2.24,4.29-5.83,4.24-.45,0-.91,0-1.36,0Z"/></g><g class="cls-4"><path class="cls-2" d="M283.32,611.87c-13.27,16.79-28.98,30.87-47.23,42.02-27.48,16.79-57.03,24.63-89.33,20.15-15.35-2.13-30.67-4.48-46.05-6.33-15.31-1.84-30.7-3.08-46.11-.89-9.49,1.34-18.46,4.18-25.51,11.03-9.25,9-14.89,19.91-15.06,32.98-.12,9.79,4.98,16.88,13.63,21.22,13.43,6.73,31.84,4.56,41.94-9.47,.74-1.03,1.33-2.16,2.07-3.19,1.8-2.53,4.3-3.17,6.57-1.73,2.24,1.43,2.75,4,1.19,6.7-6.01,10.37-14.88,17.03-26.59,19.46-14.88,3.08-28.43,.24-39.24-11.02-8.94-9.31-10.79-20.73-7.58-32.89,3.24-12.26,9.3-22.98,19.33-31.09,7.38-5.96,16.01-9.03,25.24-10.68,13.06-2.33,26.23-2.22,39.31-.75,19.35,2.18,38.65,4.89,57.95,7.49,21.61,2.91,42.49,.18,62.57-8.22,25.44-10.64,46.52-27.15,63.93-48.44,3.11-3.8,6.38-3.47,8.97,.91v2.72Z"/></g><g class="cls-4"><path class="cls-2" d="M150.44,632.1c11.7,.07,23.26-.86,34.39-4.57,17.49-5.83,30.76-16.33,36.93-34.39,1.08-3.16,3.29-4.44,5.99-3.59,2.58,.81,3.76,3.31,2.75,6.43-3.79,11.64-10.72,21.12-20.33,28.59-13.25,10.31-28.62,15.09-45.13,16.11-23.66,1.47-46.89-1.18-69.44-8.7-7.92-2.64-15.56-5.95-21.98-11.57-13.05-11.42-16.12-32.49-6.55-45.64,12.79-17.58,37.89-15.99,48.65,3.12,1.24,2.2,2.29,4.53,3.26,6.86,1.29,3.11,.46,5.58-2.07,6.7-2.63,1.16-4.97-.03-6.47-3.2-1.17-2.45-2.23-4.98-3.7-7.24-4.96-7.66-13.55-10.97-21.38-8.44-9.06,2.93-15.25,11.44-14.74,20.53,.65,11.43,5.95,19.95,16.25,25.18,12.6,6.4,26.16,9.59,40.04,11.47,7.81,1.06,15.69,1.58,23.53,2.34Z"/></g><g class="cls-4"><path class="cls-2" d="M150.45,703.85c23.23,1.74,45.5-2.27,66.83-11.45,18.96-8.15,35.7-19.59,49.94-34.59,3.04-3.2,5.68-3.92,7.9-1.95,2.43,2.16,2.16,4.7-1.06,8.21-12.15,13.23-26.41,23.75-42.3,31.98-23.53,12.19-48.6,18.11-75.15,17.46-2.63-.06-5.25-.27-7.88-.42-3.64-.2-5.64-2.04-5.47-5.01,.16-2.78,2.24-4.29,5.83-4.24,.45,0,.91,0,1.36,0Z"/></g><g><g class="cls-4"><path class="cls-2" d="M866.58,228.43c12.12,13.31,11.67,30.94,3.74,42.42-5.25,7.59-11.82,13.96-19.64,18.95-15.16,9.68-32,13.68-49.73,14.6-2.44,.13-4.9,.18-7.34,.15-3.92-.05-5.69-1.8-5.5-5.72,.6-12.68,3.35-24.94,7.89-36.77,4.79-12.49,11.74-23.62,21.07-33.3,10.45-10.83,26.09-13.89,39.67-7.32,1.54,.75,2.48,.49,3.87-.3,6.83-3.88,13.72-7.69,20.69-11.31,2.77-1.44,5.3-.42,6.46,2.01,1.15,2.41,.17,4.82-2.59,6.26-1.04,.54-2.17,.93-3.2,1.49-4.68,2.56-9.35,5.14-14,7.74-.46,.25-.84,.64-1.4,1.08Zm-68.92,66.65c15.29,.08,34.39-4.02,48.33-13.36,7.41-4.96,13.8-10.93,18.13-18.77,4.99-9.03,2.47-22.37-5.32-28.68-7.74,6.55-14.85,13.79-20.64,22.13-5.47,7.87-10.38,16.12-15.46,24.25-1.92,3.08-4.39,4.03-6.94,2.41-2.27-1.45-2.71-3.84-1.15-6.97,5.17-10.33,11.48-19.96,18.79-28.86,5.22-6.35,11-12.23,16.56-18.34,.07,.08-.02-.1-.16-.17-.32-.16-.66-.28-1.01-.38-9.73-2.62-18.04-.05-25.1,6.95-6.77,6.72-11.91,14.58-15.95,23.16-5.44,11.56-8.76,23.72-10.08,36.63Z"/></g><path class="cls-3" d="M797.67,295.07c1.32-12.91,4.64-25.07,10.08-36.63,4.04-8.58,9.18-16.45,15.95-23.16,7.06-7,15.37-9.57,25.1-6.95,.35,.09,.69,.22,1.01,.38,.14,.07,.23,.26,.16,.17-5.56,6.12-11.34,12-16.56,18.34-7.32,8.9-13.62,18.53-18.79,28.86-1.57,3.13-1.12,5.52,1.15,6.97,2.55,1.63,5.02,.67,6.94-2.41,5.08-8.13,10-16.38,15.46-24.25,5.8-8.34,12.91-15.58,20.64-22.13,7.79,6.31,10.31,19.65,5.32,28.68-4.34,7.84-10.73,13.81-18.13,18.77-13.94,9.34-33.04,13.44-48.33,13.36Z"/></g><g><g class="cls-4"><path class="cls-2" d="M80.6,816.32c-13.01-10.14-15.35-26.14-9.96-37.73,3.56-7.67,8.51-14.44,14.8-20.17,12.19-11.1,26.78-17.32,42.66-20.91,2.19-.49,4.39-.92,6.61-1.28,3.55-.57,5.42,.74,5.86,4.32,1.43,11.55,.84,23.05-1.42,34.44-2.39,12.02-6.94,23.16-13.87,33.35-7.76,11.4-21.42,16.59-34.7,12.77-1.51-.43-2.31-.06-3.45,.87-5.57,4.57-11.2,9.08-16.94,13.42-2.28,1.73-4.72,1.2-6.15-.82-1.41-1.99-.9-4.33,1.37-6.06,.86-.65,1.81-1.18,2.66-1.84,3.83-3.03,7.64-6.1,11.45-9.16,.37-.3,.66-.71,1.1-1.2Zm51.91-70.9c-13.82,2.3-30.44,8.97-41.58,19.57-5.92,5.63-10.77,12.01-13.47,19.77-3.11,8.93,1.24,20.59,9.26,25.08,5.97-7.12,11.27-14.76,15.21-23.2,3.72-7.95,6.87-16.17,10.2-24.31,1.26-3.08,3.34-4.33,5.9-3.25,2.28,.96,3.05,3.05,2.12,6.12-3.07,10.13-7.27,19.81-12.5,28.99-3.73,6.54-8.04,12.75-12.11,19.14-.08-.06,.03,.09,.18,.13,.31,.09,.64,.15,.97,.18,9.2,.86,16.3-2.75,21.6-10.17,5.07-7.12,8.49-15.01,10.81-23.4,3.12-11.29,4.23-22.79,3.42-34.66Z"/></g><path class="cls-3" d="M132.51,745.43c.81,11.87-.3,23.37-3.42,34.66-2.32,8.38-5.74,16.28-10.81,23.4-5.29,7.42-12.4,11.03-21.6,10.17-.33-.03-.66-.09-.97-.18-.14-.04-.25-.19-.18-.13,4.07-6.39,8.38-12.6,12.11-19.14,5.23-9.17,9.43-18.85,12.5-28.99,.93-3.07,.16-5.16-2.12-6.12-2.55-1.07-4.64,.17-5.9,3.25-3.33,8.13-6.49,16.35-10.2,24.31-3.94,8.44-9.24,16.08-15.21,23.2-8.01-4.49-12.37-16.15-9.26-25.08,2.7-7.76,7.55-14.14,13.47-19.77,11.14-10.6,27.76-17.27,41.58-19.57Z"/></g></g><path class="cls-3" d="M344.67,507.26c-16.07,0-30.22-2.58-42.46-7.75-12.25-5.16-22.57-12.24-30.98-21.23-8.42-8.98-14.73-19.51-18.93-31.56-4.21-12.05-6.31-24.96-6.31-38.73,0-14.53,2.2-27.83,6.6-39.88,4.39-12.05,10.7-22.47,18.93-31.27,8.22-8.79,18.45-15.68,30.7-20.66,12.24-4.97,26.39-7.46,42.46-7.46s29.64,2.49,41.88,7.46c12.24,4.98,22.47,11.86,30.7,20.66,8.22,8.8,14.43,19.32,18.65,31.56,4.2,12.25,6.31,25.44,6.31,39.59s-2.11,26.68-6.31,38.73c-4.21,12.05-10.43,22.57-18.65,31.56-8.23,8.99-18.46,16.07-30.7,21.23-12.25,5.16-26.21,7.75-41.88,7.75Zm-50.49,216.31l260.49-406.22h79.75l-259.91,406.22h-80.33Zm50.49-355.73c-13.39,0-22.66,4.02-27.83,12.05-5.16,8.03-7.75,17.41-7.75,28.12s2.58,20.57,7.75,28.4c5.16,7.84,14.43,11.76,27.83,11.76s21.89-4.02,26.68-12.05c4.78-8.03,7.17-17.4,7.17-28.11s-2.39-20.08-7.17-28.12c-4.79-8.03-13.68-12.05-26.68-12.05Zm243.28,364.34c-16.07,0-30.12-2.58-42.17-7.75s-22.29-12.24-30.7-21.23c-8.42-8.98-14.73-19.51-18.93-31.56-4.21-12.05-6.31-24.96-6.31-38.73,0-14.53,2.1-27.92,6.31-40.16,4.2-12.24,10.52-22.75,18.93-31.56,8.41-8.79,18.74-15.68,30.98-20.66,12.24-4.97,26.2-7.46,41.88-7.46s30.21,2.49,42.46,7.46c12.24,4.98,22.47,11.86,30.7,20.66,8.22,8.8,14.53,19.32,18.93,31.56,4.39,12.25,6.6,25.63,6.6,40.16,0,13.77-2.21,26.68-6.6,38.73-4.4,12.05-10.71,22.57-18.93,31.56-8.23,8.99-18.46,16.06-30.7,21.23-12.25,5.16-26.39,7.75-42.46,7.75Zm0-140c-12.25,0-21.14,4.02-26.68,12.05-5.55,8.03-8.32,17.6-8.32,28.69s2.58,20.57,7.75,28.4c5.16,7.84,14.25,11.76,27.25,11.76s22.47-4.02,27.25-12.05c4.78-8.03,7.17-17.4,7.17-28.11s-2.39-20.66-7.17-28.69c-4.79-8.03-13.87-12.05-27.25-12.05Z"/></g></g></svg>