<?xml version="1.0" encoding="UTF-8"?><svg id="Layer_2" xmlns="http://www.w3.org/2000/svg" viewBox="0 0 1163.57 1051.63"><defs><style>.cls-1{fill:#77bcb7;}.cls-2{fill:#adadad;isolation:isolate;opacity:.21;}</style></defs><g id="Layer_1-2"><g><path class="cls-2" d="M550.99,144.03C392.01,400.21,115.65,295.82,13.54,590.34c-59.63,171.98,88.53,339.21,232.78,409.5,239.98,116.94,482.35,19.86,680.39-132.23,153.4-117.8,265.18-252.58,230.53-461.23-54.61-328.8-454.89-506.24-606.24-262.36Z"/><g><g><path d="M478.03,438.9c-.17,0-.35-.01-.52-.01,.38,.01,.75,.02,1.13,.04-.2-.02-.4-.02-.61-.03Zm18.62,2.93c-.21-.06-.42-.12-.62-.17,.48,.13,.96,.27,1.44,.42-.27-.09-.55-.17-.82-.25Zm196.23,34.58c-.23-.38-.5-.74-.79-1.1,.29,.36,.55,.73,.79,1.1Zm-.79-1.1c-.29-.37-.62-.73-.97-1.08,.35,.36,.67,.72,.97,1.08Zm-61.79,65.48c.38-.03,.74-.05,1.1-.1l.24-.03c-.51,.05-1.01,.1-1.52,.14,.06,0,.12-.01,.18-.01Zm-10.3,.21c1.17,.06,2.35,.08,3.54,.07,.33,0,.65,0,.98-.01,.32,0,.65-.01,.98-.01,.52-.01,1.04-.02,1.55-.05-1.16,.05-2.32,.07-3.5,.06-1.19,.01-2.38-.02-3.55-.06Zm-3.14-.2c-1.04-.09-2.07-.19-3.1-.32,1.02,.14,2.06,.25,3.1,.32Zm-6.11-.76c.44,.08,.88,.15,1.32,.2-.93-.14-1.85-.3-2.77-.47,.48,.09,.97,.18,1.45,.27Zm-36.7-24.97c0-.5,.05-.98,.14-1.42,.11-.55,.23-1.1,.36-1.64-.14,.54-.26,1.09-.37,1.64-.09,.44-.13,.92-.13,1.42Zm-27.02,77.61v8.02c0,5.72,.01,14.05,.01,24.14v13.35c0,2.43,0,10.77,0,20.62v41.53c7.69-5.71,18.99-5.58,26.51,.37,.01-1.86,.01-6.4,.01-12.24,.01-2.4,.01-5.02,.01-7.77,.01-6.89,.02-14.55,.02-21.48,.01-9.94,.02-18.36,.03-20.83,.01-2.64,.02-5.21,.02-7.69,.01-2.01,.02-3.96,.02-5.86,.04-9.96,.07-18.27,.09-24.14,.02-4.86,.03-8.04,.03-9.07l-26.76,1.05Zm162.82-136.13c-25.14-21.84-53.99-29.83-86.75-22.92-18.87,3.96-34.81,13.44-49.99,27.88,0-15.06-.31-28.36,.21-41.63,.11-3.46,1.95-7.64,4.38-10.11,41.85-42.19,83.99-84.08,125.91-126.21,24.51-24.62,34.71-54.28,30.74-88.94-6.25-54.86-61.2-96.84-115.81-88.7-22.15,3.3-41.35,12.35-58.22,27.18-2.03-1.61-3.81-2.98-5.57-4.4-42.17-34.15-103.69-30.82-140.15,7.58-38.76,40.81-39.71,101.39-1.93,142.72,10.39,11.38,21.59,22.03,32.5,32.93,7.68,7.66,15.11,8.6,20.92,2.86,5.99-5.92,5.17-12.97-2.55-20.84-11.21-11.4-23-22.3-33.61-34.24-23.5-26.49-25.61-65.24-5.88-94.48,19.87-29.47,57.01-41.63,90.68-29.96,13.59,4.73,24.43,13.23,34.35,23.35,7.75,7.92,14.15,7.78,22.18,.2,2.7-2.54,5.21-5.29,8-7.73,21.14-18.36,45.4-24.72,72.54-17.48,57.51,15.35,77.12,85.28,35.89,129.11-23.48,24.97-48.31,48.65-72.52,72.92-18.13,18.19-36.23,36.4-56.31,56.58-2.18-3.34-3.54-6.36-5.73-8.58-14.44-14.66-28.95-29.23-43.63-43.63-7.42-7.29-16.51-6.87-21.18,.71-4.14,6.74-1.93,12.48,3.26,17.65,17.21,17.14,34.38,34.31,51.52,51.52,1.56,1.56,3.91,3.39,3.99,5.18,.42,8.89,.17,17.81,.17,28.1-3.59-3.18-5.7-5.1-7.89-6.93-37.31-31.38-92.17-30.73-128.05,1.26-9.66,8.63-13.22,18.95-10.85,31.51,11.85,63.03,80.11,97.67,138.17,70.13,2.66-1.27,5.39-2.35,8.39-3.64v57.18l26.76-1.05v-38.09c2.32,1.08,3.86,1.76,5.36,2.5,59.13,29.41,127.56-3.97,140.68-68.56,2.49-12.24-.45-22.66-9.98-30.93Zm-166.51,48.87c-.12,.12-.25,.23-.37,.33-.87,.72-1.75,1.42-2.63,2.09-.88,.68-1.77,1.33-2.66,1.96-1.79,1.27-3.59,2.45-5.42,3.54-.91,.55-1.82,1.07-2.74,1.57-1.39,.75-2.78,1.45-4.19,2.1-.93,.44-1.86,.85-2.81,1.24h-.01c-1.41,.59-2.84,1.12-4.28,1.6-9.48,3.2-19.39,4.18-29.68,2.82-1.88-.26-3.76-.58-5.66-.98-.64-.13-1.27-.28-1.91-.43h0c-1.01-.25-2.03-.52-3.06-.8h-.01c-1.53-.44-3.08-.92-4.63-1.46-2.38-.82-4.68-1.73-6.89-2.71,0,0-.01,.01-.01,0-2.21-1-4.33-2.06-6.37-3.21h0c-.68-.39-1.35-.78-2-1.18,0,0,0,0-.01,0-.66-.41-1.31-.81-1.95-1.23-1.28-.84-2.53-1.72-3.74-2.62-1.2-.92-2.37-1.86-3.5-2.84-1.13-.98-2.23-1.99-3.28-3.04-9.49-9.45-15.89-21.67-19.23-36.38-.31-1.37-.06-3.16,.54-4.9,.14-.41,.3-.82,.48-1.22,.26-.6,.56-1.18,.9-1.72,.08-.13,.17-.26,.25-.39h0c.18-.26,.35-.51,.53-.73h0c.09-.12,.19-.23,.28-.34,.11-.14,.24-.28,.38-.41l.19-.19c.07-.06,.14-.12,.2-.18,.36-.31,.72-.62,1.08-.92,.36-.31,.73-.61,1.09-.9,.71-.57,1.44-1.13,2.17-1.67,.02-.01,.03-.02,.05-.03,.17-.13,.34-.25,.51-.37,.21-.15,.42-.3,.62-.45,.18-.13,.38-.26,.56-.39,.2-.13,.38-.27,.57-.39,.19-.14,.38-.27,.57-.4,.2-.12,.39-.25,.58-.37,.24-.16,.47-.31,.71-.47,.24-.15,.48-.3,.72-.45,.1-.07,.21-.13,.31-.19,.3-.18,.6-.36,.9-.54,.65-.39,1.31-.77,1.97-1.12,.31-.16,.61-.33,.93-.49,.32-.17,.63-.33,.95-.49,.31-.16,.63-.32,.95-.48,.55-.27,1.1-.52,1.66-.78,.75-.34,1.5-.66,2.25-.96,.38-.16,.75-.3,1.13-.45,.38-.14,.75-.29,1.13-.42,.38-.14,.76-.28,1.14-.41,.77-.26,1.53-.51,2.31-.74,.39-.12,.78-.23,1.17-.34,.61-.18,1.23-.35,1.85-.5,.47-.12,.95-.23,1.43-.34,.19-.05,.38-.09,.57-.13,.51-.11,1.02-.21,1.54-.32,.49-.1,.98-.19,1.48-.28,.5-.08,1.01-.17,1.52-.24,.75-.12,1.51-.22,2.27-.3,.28-.04,.55-.07,.82-.1,.4-.04,.81-.08,1.21-.12,.25-.02,.51-.03,.76-.05s.51-.04,.76-.06c.41-.03,.82-.06,1.23-.07,.6-.03,1.21-.06,1.82-.07,.08,0,.16,0,.24,0,.65-.01,1.3-.02,1.96-.02,.13-.01,.26-.01,.39-.01h.35c.42,0,.84,.01,1.25,.02,.38,.01,.75,.02,1.13,.04,1.77,.05,3.52,.18,5.24,.36,1.03,.11,2.05,.24,3.07,.4,.49,.08,.97,.15,1.45,.23,2.59,.45,5.14,1.03,7.63,1.74,.48,.13,.96,.27,1.44,.42,.02,0,.04,.01,.06,.02,.87,.27,1.74,.55,2.6,.85,1.06,.37,2.1,.76,3.13,1.18,.47,.19,.94,.38,1.4,.58s.92,.4,1.37,.6c.14,.06,.28,.13,.41,.19,.33,.15,.66,.3,.98,.46,.46,.22,.91,.44,1.36,.67,.45,.22,.9,.45,1.34,.69,4.96,2.63,9.57,5.82,13.74,9.51,.31,.28,.63,.56,.94,.84,.74,.67,1.46,1.37,2.17,2.08,.27,.26,.53,.53,.78,.8,.09,.09,.18,.18,.26,.27l.18,.18c.64,.66,1.26,1.33,1.86,2.02,.33,.38,.66,.75,.98,1.14,1.07,1.25,2.08,2.55,3.06,3.88,.35,.49,.7,.99,1.05,1.49,.29,.42,.58,.84,.85,1.27,1.33,1.99,2.55,4.07,3.65,6.21,.27,.51,.53,1.02,.78,1.54,.27,.54,.52,1.08,.78,1.63,0,.02,.01,.04,.02,.06,.25,.55,.49,1.1,.73,1.66,.24,.57,.48,1.14,.71,1.72,.23,.57,.45,1.16,.66,1.75,.16,.45,.31,.9,.47,1.35,.22,.66,.44,1.32,.64,1.99,.02,.07,.05,.15,.07,.22,.14,.46,.27,.92,.41,1.37,.14,.49,.27,.98,.39,1.48,.11,.41,.21,.83,.31,1.24,.1,.41,.2,.82,.28,1.24,.06,.22,.11,.45,.15,.68,.06,.22,.1,.45,.15,.68,.6,2.95-.71,7.66-2.85,9.8Zm151.05-22.44c-.09,1.12-.32,2.32-.66,3.63-.06,.24-.13,.49-.2,.73-.13,.47-.26,.93-.4,1.39-.09,.29-.18,.59-.27,.89-.15,.5-.3,.99-.46,1.48-.27,.81-.55,1.62-.85,2.42-.25,.71-.52,1.41-.8,2.1-.08,.22-.18,.45-.27,.67-.21,.51-.42,1.01-.64,1.5-.22,.51-.45,1.02-.69,1.53-.14,.3-.28,.59-.42,.88-.03,.08-.07,.15-.1,.23l-.06,.12c-.16,.32-.31,.64-.47,.95-.22,.45-.45,.9-.7,1.34-.43,.81-.86,1.6-1.32,2.39-.35,.61-.71,1.22-1.08,1.82-.1,.16-.2,.32-.3,.48-.33,.53-.68,1.07-1.03,1.59-.15,.23-.3,.46-.46,.68-.38,.57-.77,1.13-1.18,1.69-.47,.65-.95,1.29-1.44,1.92-.17,.23-.35,.45-.52,.67-.2,.26-.41,.52-.62,.77-.28,.35-.56,.69-.85,1.02-.2,.25-.41,.5-.64,.74-.24,.28-.48,.55-.72,.82-.38,.42-.76,.84-1.15,1.25-.47,.51-.95,1.01-1.45,1.5-.21,.21-.41,.42-.63,.63-.32,.32-.66,.64-1,.96-.42,.39-.84,.78-1.27,1.16-.6,.55-1.21,1.08-1.84,1.59-.59,.5-1.18,.98-1.79,1.46-.09,.07-.19,.15-.28,.21-.58,.46-1.17,.9-1.77,1.33-.26,.19-.53,.37-.79,.56-.41,.3-.84,.59-1.26,.88-.07,.04-.14,.09-.22,.14-.14,.1-.28,.19-.41,.27-.15,.1-.29,.2-.44,.29-.14,.1-.29,.19-.44,.28-.3,.19-.59,.37-.89,.55-.48,.29-.96,.58-1.43,.86-.48,.28-.97,.56-1.46,.83-.21,.12-.43,.24-.64,.35-.21,.13-.43,.24-.65,.35-.75,.4-1.5,.78-2.27,1.14-2.98,1.44-6.08,2.67-9.28,3.68-.47,.15-.93,.29-1.4,.43-.46,.14-.93,.27-1.39,.39-.5,.14-1,.27-1.51,.39-.7,.18-1.41,.35-2.13,.5-.3,.06-.6,.13-.91,.19-1.28,.27-2.58,.49-3.89,.68-.54,.08-1.08,.15-1.62,.22-.46,.06-.92,.11-1.39,.16-.51,.05-1.01,.1-1.52,.14-1.01,.09-2.04,.15-3.07,.2-1.16,.05-2.32,.07-3.5,.06-1.19,.01-2.38-.02-3.55-.06-.53-.03-1.06-.05-1.58-.09-.52-.03-1.04-.07-1.56-.11-1.04-.09-2.07-.19-3.1-.32-.47-.06-.95-.13-1.42-.2-.09-.01-.18-.02-.27-.04-.93-.14-1.85-.3-2.77-.47-.08-.02-.15-.04-.23-.05-.6-.12-1.2-.25-1.79-.38-.41-.09-.82-.19-1.23-.29-.71-.17-1.41-.36-2.11-.55-.55-.16-1.1-.32-1.65-.49-.59-.18-1.18-.37-1.76-.57-.24-.08-.48-.17-.71-.25-.48-.16-.95-.33-1.42-.52-.43-.16-.86-.33-1.29-.51-.77-.3-1.54-.63-2.3-.97-.15-.07-.31-.14-.46-.22-.48-.22-.97-.44-1.45-.68-.04-.01-.09-.04-.13-.06-.36-.18-.73-.36-1.09-.55-.7-.35-1.39-.72-2.07-1.11-.24-.14-.48-.27-.71-.41-.23-.13-.45-.25-.66-.38-.71-.42-1.41-.85-2.11-1.31-.12-.08-.24-.16-.36-.24-.2-.12-.38-.24-.58-.37-.59-.39-1.17-.79-1.74-1.2-.36-.25-.71-.51-1.07-.78-.74-.54-1.48-1.11-2.2-1.7-.73-.58-1.46-1.18-2.17-1.8-.69-.6-1.34-1.41-1.9-2.36-.22-.37-.43-.77-.63-1.18-.88-1.85-1.43-3.97-1.43-5.77,0-.5,.05-.98,.14-1.42,.11-.55,.23-1.1,.36-1.64,.08-.36,.17-.72,.26-1.08,.07-.34,.16-.68,.26-1.01,.14-.56,.29-1.11,.45-1.66,.09-.32,.19-.64,.28-.96,.33-1.07,.68-2.14,1.05-3.18,.23-.66,.47-1.31,.73-1.95,.1-.28,.21-.55,.33-.82,.07-.2,.15-.41,.25-.61,.32-.8,.66-1.59,1.02-2.37,.04-.09,.08-.18,.13-.27,.19-.43,.39-.85,.6-1.27,.47-.97,.97-1.93,1.48-2.87,.25-.46,.51-.92,.77-1.37,.26-.45,.52-.9,.79-1.34,.22-.36,.44-.72,.67-1.08,.1-.15,.2-.3,.3-.46,.21-.33,.43-.66,.65-.99,.22-.34,.45-.67,.68-1.01,.23-.33,.46-.66,.7-.98,1.73-2.41,3.61-4.69,5.62-6.84,.34-.37,.69-.74,1.04-1.1,.6-.61,1.21-1.22,1.83-1.81,.41-.39,.82-.77,1.24-1.15,.48-.44,.96-.86,1.45-1.28s.98-.84,1.48-1.24c.5-.41,1-.81,1.51-1.2,.41-.32,.82-.63,1.24-.94,.18-.13,.36-.26,.55-.4,.42-.3,.84-.6,1.27-.89,.03-.03,.06-.05,.09-.06,.52-.36,1.04-.71,1.56-1.05,1.08-.7,2.17-1.37,3.28-2.01,1.57-.9,3.17-1.75,4.8-2.54,.15-.07,.31-.15,.47-.22,.52-.25,1.04-.49,1.56-.72,.58-.25,1.15-.5,1.73-.75,.01,0,.02-.01,.04-.01,.56-.23,1.12-.46,1.69-.68l.09-.03c1.19-.46,2.39-.88,3.61-1.28,1.82-.59,3.67-1.12,5.54-1.57,4.35-1.05,8.81-1.71,13.3-1.95,5.61-.3,11.28,.05,16.88,1.09,1.44,.27,2.88,.58,4.31,.94,1.43,.36,2.86,.77,4.27,1.22,1.42,.45,2.83,.95,4.23,1.5,.93,.36,1.86,.75,2.78,1.16,5.54,2.45,10.89,5.67,15.92,9.71,.23,.18,.44,.36,.65,.53,.41,.35,.79,.71,1.14,1.07,.35,.36,.67,.72,.97,1.08,.29,.36,.55,.73,.79,1.1,.24,.37,.44,.75,.62,1.13,.09,.19,.18,.38,.25,.58,.07,.16,.13,.33,.18,.5,.1,.28,.18,.57,.23,.86,.05,.15,.08,.29,.1,.44,.06,.29,.1,.59,.12,.89,.01,.13,.02,.26,.03,.4,.03,.39,.03,.8,.01,1.21-.01,.19-.02,.37-.03,.56Z"/><path class="cls-1" d="M646.86,222.88c.01,9.01-5.12,15.08-12.79,15.13-7.72,.06-12.9-5.95-12.91-14.95,0-9.01,5.08-15.04,12.76-15.1,7.68-.06,12.94,6,12.95,14.92Z"/><path class="cls-1" d="M646.93,174.77c-.13,9.07-5.28,14.68-13.24,14.43-7.78-.24-12.61-6.17-12.45-15.3,.15-8.98,5.38-14.63,13.34-14.39,7.88,.23,12.5,5.93,12.36,15.25Z"/><path class="cls-1" d="M657.83,211.47c-8.99-.15-14.72-5.46-14.4-13.3,.32-7.72,6.41-12.6,15.46-12.39,8.85,.2,14.68,5.68,14.37,13.49-.31,7.83-6.05,12.36-15.43,12.2Z"/><path class="cls-1" d="M609.43,211.4c-9.05-.11-14.72-5.23-14.53-13.15,.18-7.81,6.07-12.68,15.17-12.55,8.97,.13,14.75,5.37,14.57,13.21-.18,7.78-6.04,12.6-15.21,12.49Z"/><path class="cls-1" d="M428.2,457.95c.32-.54,.68-1.03,1.06-1.46-.38,.43-.73,.93-1.06,1.46Z"/><path class="cls-1" d="M430.03,455.7c.36-.31,.72-.62,1.08-.91-.36,.3-.72,.61-1.08,.92-.13,.11-.26,.24-.39,.37,.12-.14,.25-.26,.39-.38Z"/><path class="cls-1" d="M432.2,453.89c.72-.57,1.44-1.13,2.17-1.67-.73,.54-1.46,1.1-2.17,1.67Z"/><path class="cls-1" d="M434.42,452.19c.37-.28,.74-.54,1.13-.82-.39,.28-.78,.57-1.18,.85,.02-.01,.03-.02,.05-.03Z"/><path class="cls-1" d="M435.55,451.37c.56-.41,1.13-.8,1.7-1.18-.19,.13-.38,.26-.57,.4-.37,.25-.76,.52-1.13,.78Z"/><path class="cls-1" d="M437.25,450.19c.66-.45,1.33-.88,2.01-1.29-.48,.3-.96,.6-1.43,.92-.19,.12-.38,.25-.58,.37Z"/><path class="cls-1" d="M441.51,447.57c.31-.18,.62-.35,.93-.52-.66,.35-1.32,.73-1.97,1.12,.34-.2,.69-.4,1.04-.6Z"/><path class="cls-1" d="M442.44,447.05c.94-.52,1.88-1,2.83-1.46-.64,.32-1.27,.63-1.9,.97-.32,.16-.62,.33-.93,.49Z"/><path class="cls-1" d="M448.79,505.21c2.26,1.96,4.67,3.78,7.24,5.46-2.57-1.67-4.98-3.5-7.24-5.46Z"/><path class="cls-1" d="M462.93,439.92c-1.02,.18-2.03,.38-3.02,.6,.53-.11,1.06-.22,1.6-.33,.47-.1,.94-.19,1.42-.27Z"/><path class="cls-1" d="M466.72,439.38c-.76,.08-1.52,.18-2.27,.3l1.54-.21c.24-.03,.48-.06,.73-.09Z"/><path class="cls-1" d="M469.51,439.11c-.25,.02-.51,.03-.76,.05,.51-.04,1.01-.08,1.52-.11-.25,.02-.51,.04-.76,.06Z"/><path class="cls-1" d="M473.27,519c1.55,.54,3.1,1.02,4.63,1.46-1.54-.43-3.09-.91-4.64-1.45-6.35-2.19-12.1-4.98-17.23-8.34,5.14,3.35,10.88,6.14,17.24,8.33Z"/><path class="cls-1" d="M475.52,438.88c-.66,0-1.31,0-1.96,.02,.65-.02,1.31-.03,1.96-.03h.39c-.13,0-.26,0-.39,.01Z"/><path class="cls-1" d="M480.98,521.26c2.55,.6,5.07,1.07,7.57,1.41-2.5-.33-5.02-.8-7.57-1.41Z"/><path class="cls-1" d="M527.75,460.55c.16,.15,.3,.3,.44,.45l-.18-.18c-.08-.09-.17-.18-.26-.27Z"/><path class="cls-1" d="M542.97,505.75c.12-.1,.25-.21,.37-.33-.12,.12-.24,.23-.37,.34-1.74,1.43-3.51,2.78-5.29,4.04,1.78-1.26,3.55-2.61,5.29-4.05Z"/><path class="cls-1" d="M544.91,490.3c-.15-.53-.32-1.06-.48-1.59,.02,.07,.05,.15,.07,.22,.14,.46,.27,.92,.41,1.37Z"/><path class="cls-1" d="M543.79,486.72c.22,.66,.44,1.32,.65,1.99-.11-.36-.22-.72-.34-1.08-.1-.3-.2-.61-.3-.91Z"/><path class="cls-1" d="M543.66,486.35c.04,.12,.08,.25,.13,.37-.15-.45-.3-.91-.47-1.35,.11,.32,.23,.65,.34,.98Z"/><path class="cls-1" d="M546.19,495.62c-.18-.87-.37-1.74-.58-2.6,.1,.42,.19,.83,.28,1.24,.11,.46,.2,.9,.3,1.36Z"/><path class="cls-1" d="M585.77,530.23c.12,.08,.24,.16,.36,.24-.31-.19-.63-.4-.94-.61,.2,.13,.38,.25,.58,.37Z"/><path class="cls-1" d="M588.9,532.16c.23,.14,.47,.27,.71,.41-.46-.25-.91-.52-1.37-.79,.21,.13,.43,.25,.66,.38Z"/><path class="cls-1" d="M594.35,534.97c.15,.08,.31,.15,.46,.22-.64-.29-1.28-.58-1.91-.9,.48,.24,.97,.46,1.45,.68Z"/><path class="cls-1" d="M608.11,466.76c1.57-.91,3.17-1.76,4.8-2.54-1.63,.79-3.23,1.64-4.8,2.54Z"/><path class="cls-1" d="M618.49,461.81c1.19-.47,2.4-.89,3.61-1.28-1.22,.4-2.42,.82-3.61,1.28Z"/><path class="cls-1" d="M622.1,460.53c1.83-.6,3.67-1.13,5.54-1.57-1.87,.45-3.72,.98-5.54,1.57Z"/><path class="cls-1" d="M627.64,458.96c4.35-1.06,8.81-1.72,13.3-1.95-4.49,.24-8.95,.9-13.3,1.95Z"/><path class="cls-1" d="M655.16,534.02c.77-.36,1.52-.74,2.27-1.14-.43,.23-.87,.45-1.31,.67-.32,.16-.64,.32-.96,.47Z"/><path class="cls-1" d="M662.13,459.04c-1.43-.36-2.87-.67-4.31-.94,1.44,.26,2.88,.58,4.31,.94Z"/><path class="cls-1" d="M666.4,460.26c-1.41-.45-2.84-.86-4.27-1.22,1.43,.36,2.86,.76,4.27,1.22Z"/><path class="cls-1" d="M663.38,529.37c.13-.08,.27-.17,.41-.27-.28,.19-.56,.38-.85,.56,.15-.09,.29-.19,.44-.29Z"/><path class="cls-1" d="M669.9,524.52c.63-.51,1.24-1.04,1.84-1.59-.27,.24-.53,.47-.81,.7-.34,.3-.68,.6-1.03,.89Z"/><path class="cls-1" d="M688.73,500.2c.14-.29,.28-.58,.42-.88-.17,.37-.34,.74-.52,1.11,.03-.08,.07-.15,.1-.23Z"/><path class="cls-1" d="M690.75,495.62c.28-.69,.55-1.39,.8-2.1-.2,.53-.4,1.09-.62,1.63-.06,.16-.12,.32-.18,.47Z"/><path class="cls-1" d="M693.53,487.34c-.13,.47-.26,.93-.4,1.39,.14-.46,.27-.93,.4-1.39Z"/><path class="cls-1" d="M693.13,488.73c-.23,.79-.47,1.58-.73,2.37,.16-.49,.31-.98,.46-1.48,.1-.3,.19-.59,.27-.89Z"/></g><rect class="cls-1" x="416.43" y="624.84" width="294.52" height="63.63"/><rect class="cls-1" x="440.97" y="704.84" width="248.16" height="205.44"/><g><path d="M621.2,680.7l7.77,7.77h16.43l7.78-7.77h-31.98Zm-96.34,0l-7.77,7.77h85.92l-7.77-7.77h-70.38Zm-85.41,0l7.77,7.77h43.93l7.76-7.77h-59.46Zm215.84,24.14h-154.57l-5.87,5.87h156.35l-.88-.89,4.97-4.98Zm69.34-95.5c-.73-1.56-1.72-3-2.97-4.25-2.82-2.81-6.63-4.39-10.61-4.39H411.05c-6.94,0-12.78,4.72-14.49,11.12-.33,1.24-.51,2.54-.51,3.88v80c0,8.28,6.72,15,15,15h5v205c0,8.28,6.72,15,15,15h260c8.28,0,15-6.72,15-15v-205h5c8.28,0,15-6.72,15-15v-80c0-2.22-.49-4.39-1.42-6.36Zm-48.58,291.36h-230v-189.99h230v189.99Zm20-220H426.05v-50h270v50Zm-40.76,24.14h-154.57l-5.87,5.87h156.35l-.88-.89,4.97-4.98Zm-215.84-24.14l7.77,7.77h43.93l7.76-7.77h-59.46Zm181.75,0l7.77,7.77h16.43l7.78-7.77h-31.98Z"/><path d="M521.05,770.71h80c8.28,0,15-6.72,15-15s-6.72-15-15-15h-80c-8.28,0-15,6.72-15,15s6.72,15,15,15Z"/></g><g><path d="M804.27,12.81c-2.36,4.04-3.82,7.57-6.17,10.36-15.34,18.17-30.52,36.49-46.63,53.95-3.17,3.43-10.19,3.3-15.44,4.81,.57-5.44-.84-12.45,2.03-16.07,15.03-19.01,30.89-37.38,47.09-55.42,2.83-3.15,8.56-4.38,13.14-4.92,1.58-.19,3.73,4.42,5.97,7.29Z"/><path d="M779.19,117.89c-1.98-1.85-7.3-4.56-7.71-7.88-.37-3.04,4.01-8.96,7.25-9.75,14.68-3.6,29.64-6.35,44.64-8.18,3.24-.39,7.1,4.29,10.67,6.63-2.55,3.54-4.53,9.43-7.76,10.23-14.7,3.62-29.75,5.81-47.08,8.95Z"/><path d="M709.34,10.29c-3.01,16.4-4.73,29.62-8.24,42.35-.97,3.51-7.27,5.56-11.12,8.28-2.02-3.77-6.05-7.73-5.71-11.26,1.28-13.16,3.26-26.37,6.61-39.13,1.1-4.18,7.15-7.05,10.94-10.53,2.92,4,5.85,8.01,7.52,10.29Z"/></g></g></g></g></svg>