<?xml version="1.0" encoding="UTF-8"?><svg id="Layer_2" xmlns="http://www.w3.org/2000/svg" viewBox="0 0 1163.57 1061.08"><defs><style>.cls-1{fill:#adadad;}.cls-2{fill:#231f20;}.cls-3{fill:#77bcb7;}.cls-4{isolation:isolate;opacity:.21;}</style></defs><g id="Layer_1-2"><g><g class="cls-4"><path class="cls-1" d="M550.99,153.49C392.01,409.66,115.65,305.28,13.54,599.8c-59.63,171.98,88.53,339.21,232.78,409.5,239.98,116.94,482.35,19.86,680.39-132.23,153.4-117.8,265.18-252.58,230.53-461.23-54.61-328.8-454.89-506.24-606.24-262.36Z"/></g><g><g><path d="M725.84,23.93V0h102.95V21.15l-70.67,86.44h69.38v23.74h-103.14v-21.33l70.68-86.07h-69.19Z"/><path d="M796.27,183.74v-16h68.84v14.14l-47.26,57.8h46.39v15.88h-68.97v-14.26l47.26-57.55h-46.27Z"/><path d="M736.76,282.52v-9.69h41.69v8.56l-28.62,35h28.09v9.62h-41.77v-8.64l28.62-34.86h-28.02Z"/></g><g><g><path d="M573.98,241.81c23.95,4.13,40.68,19.29,57.07,35.86,57.81,58.46,116,116.55,174.35,174.47,17.16,17.03,25.36,36.94,25.33,61.04-.18,146.89-.08,293.78-.1,440.67,0,12.93-2.96,15.84-15.9,15.84-168.01,0-336.02,0-504.02,0-13.35,0-16.13-2.79-16.13-16.31-.01-106.85,0-213.7,0-320.55,0-1.66-.05-3.32,.06-4.97,.5-7.06,4.22-11.08,10.31-11.24,6.37-.16,10.42,4.02,10.9,11.37,.15,2.36,.07,4.74,.07,7.11,0,101.16,0,202.33,0,303.49v9.41h492.94c.15-2.47,.42-4.75,.42-7.03,.02-143.1,.06-286.2-.02-429.29-.02-29.81-17.34-51.07-45.19-55.88-3.93-.68-8.02-.7-12.03-.7-39.81-.05-79.62-.02-119.43-.03-12.02,0-15.24-3.13-15.25-15.05-.04-40.28,.11-80.55-.07-120.83-.13-29.53-17.89-50.88-45.73-55.44-3.25-.53-6.61-.57-9.91-.57-79.38-.03-158.77-.02-238.15-.02h-7.58v9.91c0,101.4,0,202.8-.02,304.2,0,3.3,.09,6.71-.63,9.89-1.2,5.33-5.09,7.86-10.46,7.69-5.06-.16-8.54-2.82-9.66-7.83-.56-2.51-.56-5.17-.56-7.77-.02-107.09,.01-214.17-.11-321.26,0-6.49,1.02-12.09,6.49-16.16h273.01Zm65.28,75.8v115.58h115.6c-38.49-38.48-76.79-76.77-115.6-115.58Z"/><path class="cls-3" d="M639.26,317.61c38.81,38.8,77.11,77.09,115.6,115.58h-115.6v-115.58Z"/></g><g><path class="cls-2" d="M445.05,603.5c-29.75,0-53.96-24.21-53.96-53.96,0-5.25,4.25-9.5,9.5-9.5s9.5,4.25,9.5,9.5c0,19.28,15.68,34.96,34.96,34.96s34.96-15.68,34.96-34.96c0-5.25,4.25-9.5,9.5-9.5s9.5,4.25,9.5,9.5c0,29.75-24.21,53.96-53.96,53.96Z"/><path class="cls-2" d="M638.08,603.5c-29.75,0-53.96-24.21-53.96-53.96,0-5.25,4.25-9.5,9.5-9.5s9.5,4.25,9.5,9.5c0,19.28,15.68,34.96,34.96,34.96s34.96-15.68,34.96-34.96c0-5.25,4.25-9.5,9.5-9.5s9.5,4.25,9.5,9.5c0,29.75-24.21,53.96-53.96,53.96Z"/></g><path class="cls-2" d="M541.57,796.35c-17.79,0-31.73-20.33-31.73-46.29s13.94-46.29,31.73-46.29,31.73,20.33,31.73,46.29-13.94,46.29-31.73,46.29Zm0-73.58c-5.19,0-12.73,10.63-12.73,27.29s7.54,27.29,12.73,27.29,12.73-10.63,12.73-27.29-7.54-27.29-12.73-27.29Z"/></g></g></g></g></svg>