<?xml version="1.0" encoding="UTF-8"?>
<svg id="Layer_2" data-name="Layer 2" xmlns="http://www.w3.org/2000/svg" width="2939.64" height="3589.96" viewBox="0 0 2939.64 3589.96">
  <defs>
    <style>
      .cls-1 {
        fill: #f88700;
      }

      .cls-2 {
        fill: #f5e4d9;
      }

      .cls-3 {
        fill: #f5e2d9;
      }

      .cls-4 {
        fill: #ef8f6a;
      }

      .cls-5 {
        fill: #f3d030;
      }

      .cls-6 {
        fill: #fff;
      }

      .cls-7 {
        fill: #ffc727;
      }

      .cls-8 {
        fill: #fcab80;
      }

      .cls-9 {
        fill: #fda77c;
      }

      .cls-10 {
        fill: #fda37a;
      }

      .cls-11 {
        fill: #fea67c;
      }

      .cls-12 {
        fill: #a5593f;
      }

      .cls-13 {
        fill: #ddd;
      }

      .cls-14 {
        fill: #de7f53;
      }

      .cls-15 {
        fill: #c97450;
      }

      .cls-16 {
        fill: #d6bfb2;
      }

      .cls-17 {
        fill: #437a72;
      }

      .cls-18 {
        fill: #88d8d0;
      }

      .cls-19 {
        fill: #2a244a;
      }

      .cls-20 {
        fill: #5b5b5b;
      }

      .cls-21 {
        fill: #263238;
      }

      .cls-22 {
        fill: #599b94;
      }

      .cls-23 {
        fill: #77bcb7;
      }

      .cls-24 {
        fill: #505572;
      }

      .cls-25 {
        fill: #282449;
      }

      .cls-26 {
        opacity: .1;
      }

      .cls-26, .cls-27, .cls-28 {
        isolation: isolate;
      }

      .cls-27 {
        opacity: .7;
      }

      .cls-29 {
        opacity: .5;
      }

      .cls-28 {
        opacity: .2;
      }
    </style>
  </defs>
  <g id="Layer_2-2" data-name="Layer 2">
    <g>
      <rect class="cls-6" x="13.36" width="2926.28" height="3572.76"/>
      <g>
        <path class="cls-17" d="M2133.43,1063.23c1.72,292.29-181.37,622.72-379.04,838.03-141.86-237.25-170.33-564.8-161.8-690.95,9.69-143.23,62.4-281.06,135.08-404.86,72.68-123.8,173.38-230.44,268.16-338.26,81.05,188.6,136.4,390.76,137.6,596.03Z"/>
        <path class="cls-23" d="M1874.69,605.08c1.75-2.06,3.5-4.12,5.26-6.17l79.77,162.58c3.16-25.86,6.27-52.05,9.34-78.63l-54.43-123.9c1.8-2.05,3.61-4.11,5.42-6.16l50.69,115.39c4.54-39.69,8.97-80.18,13.28-121.47-.25-.17-.49-.34-.69-.56-.26-.29-.48-.62-.64-.99l-18.64-42.04c1.81-2.04,3.62-4.08,5.43-6.11l15.97,36.03c2.09-20.16,4.14-40.53,6.17-61.07,1.4-1.59,2.81-3.19,4.21-4.78,1.02,2.37,2.02,4.76,3.03,7.13-3.47,35.08-7.03,69.61-10.66,103.59l36.96-38.88c.99,2.56,1.96,5.14,2.94,7.71l-41.19,43.34c-3.37,31.22-6.8,61.97-10.29,92.25,0,.27-.03,.53-.09,.79-3.56,30.88-7.19,61.25-10.87,91.15,.02,.4-.04,.79-.14,1.17-2.27,18.46-4.57,36.74-6.88,54.82l122.6-122.65c.76,2.75,1.51,5.5,2.26,8.26l-126.42,126.47c-2,15.5-4.01,30.89-6.03,46.12l142.96-131.85c.67,2.76,1.32,5.53,1.98,8.29l-146.48,135.11c-4.74,35.37-9.55,70-14.41,103.88,.07,.64-.02,1.29-.27,1.88-3.11,21.63-6.24,42.98-9.39,64.01l197.09-161.97c.38,2.9,.74,5.81,1.11,8.72l-199.86,164.25c-7.74,51.32-15.6,100.83-23.51,148.53,.1,.74-.02,1.49-.36,2.15-5.8,34.9-11.63,68.86-17.47,101.82l247.71-196.81c-.32,3.43-.64,6.86-1,10.3l-248.68,197.59c-2.89,16.2-5.78,32.18-8.68,47.91l249.97-192.22c-.61,3.62-1.26,7.24-1.92,10.86l-250.07,192.3c-4.28,23.1-8.55,45.67-12.82,67.73,.08,.74-.06,1.5-.42,2.17-5.88,30.4-11.75,59.83-17.58,88.27l231.22-171.51c-1.57,4.27-3.16,8.54-4.78,12.81l-228.08,169.18c-.18,.13-.38,.18-.57,.27-2.17,10.52-4.34,20.91-6.49,31.16,.02,.62-.1,1.23-.38,1.79-2.85,13.51-5.68,26.79-8.51,39.83l203.44-146.66c-2.19,4.66-4.4,9.32-6.64,13.96l-199.16,143.57c-19.62,90.06-38.5,168.6-55.77,235.78-2.94,3.26-5.89,6.5-8.84,9.72-.32-.53-.63-1.07-.94-1.61,.56-2.14,1.11-4.27,1.67-6.43,20.61-79.91,43.53-176.17,67.31-288.95l-228.81-276.73c-.27-4.25-.5-8.42-.73-12.55l231.49,279.98c8.17-38.98,16.44-79.94,24.74-122.83l-251.74-309.19c.45-3.36,.91-6.71,1.41-10.06l252.18,309.72c13.84-71.92,27.78-149.29,41.55-232.13l-222.77-313.29c1.18-2.61,2.36-5.22,3.56-7.83l220.94,310.72c11.23-68.04,22.33-139.74,33.17-215.12l-163.09-257.3c1.52-2.23,3.05-4.45,4.58-6.67l160.14,252.65c9.95-69.74,19.66-142.62,29.02-218.63l-83.37-169.93Z"/>
      </g>
      <g>
        <path class="cls-22" d="M2389.05,928.79c-15.83-2.83-31.63-4.83-47.35,0-30.87,9.47-52.79,37.28-66.85,65.03-18.75,36.98-34.82,97.38-79.71,111.08-35.38,10.8-73.44-19.95-108.98-9.69-27.79,8.02-42.59,37.47-54.2,63.96-11.61,26.49-26.49,55.93-54.3,63.84-25.83,7.35-51.92-1.02-77.76,8.44-28.73,10.52-49.28,32.97-62.07,60.69-13.58,29.43-17.62,62.41-18.03,94.82-.37,29.26,1.61,60.41-13.11,85.69-15.94,27.37-48.12,41.65-65.89,67.87-18.23,26.9-17.74,65.15,1.18,91.58,18.91,26.43,54.96,39.23,86.3,30.65,20.09-5.5,37.23-18.54,56.55-26.34,52.76-21.29,101.8,.39,153.41,9.25,43.96,7.54,93.11-17.37,115.9-54.79,19.73-32.41,25.67-76.49,58.55-95.42,30.98-17.84,71.16-3.98,105.19-14.93,63.52-20.44,65.94-93.82,75.13-148.02,3.75-22.12,11.39-44.76,28.09-59.74,34.72-31.14,89.17-16.81,123.16-50.06,24.51-23.98,23.08-61.65,19.72-93.04-2.33-21.83-5.44-43.99-1.5-65.59,3.94-21.59,16.4-43.02,36.73-51.31,31.57-12.88,76.28,1.51,89.41-41.35,6.11-19.95-2.49-41.11-4.06-61.91-2.19-28.96,10.52-55.34,30.7-75.35,13.92-13.8,37.31-30.5,26.33-53.94-16.11-34.37-64.11,10.03-82.94,20.63-41.19,23.18-83.46-23.11-123.56,7.24-44.18,33.45-32.1,120.45-99.38,125.84-15.56,1.25-31.12-2.34-46.64-5.11Z"/>
        <g>
          <path class="cls-17" d="M2141.25,1144.88c-.91,3.82-4.75,6.17-8.57,5.26s-6.17-4.75-5.26-8.57c.91-3.82,4.75-6.17,8.57-5.26,3.82,.91,6.17,4.75,5.26,8.57Z"/>
          <path class="cls-17" d="M2187.12,1144.04c-.49,2.05-2.55,3.31-4.6,2.82s-3.31-2.55-2.82-4.6c.49-2.05,2.55-3.31,4.6-2.82s3.31,2.55,2.82,4.6Z"/>
          <path class="cls-17" d="M2151.66,1177.22c-.43,1.79-2.22,2.89-4.01,2.46-1.79-.43-2.89-2.23-2.46-4.01,.43-1.79,2.23-2.89,4.01-2.46,1.79,.43,2.89,2.23,2.46,4.01Z"/>
          <circle class="cls-17" cx="2480.79" cy="952" r="5.27"/>
          <path class="cls-17" d="M2618.27,837.12c-.66,2.76-3.44,4.47-6.2,3.81-2.76-.66-4.47-3.44-3.81-6.2,.66-2.76,3.44-4.47,6.2-3.81s4.47,3.44,3.81,6.2Z"/>
          <path class="cls-17" d="M2645.88,949.36c-.53,2.2-2.74,3.56-4.94,3.03-2.2-.53-3.56-2.74-3.03-4.94,.53-2.2,2.74-3.56,4.94-3.03s3.56,2.74,3.03,4.94Z"/>
          <circle class="cls-17" cx="2482.75" cy="1208.64" r="6.01"/>
          <path class="cls-17" d="M2354.72,1344.75c-.67,2.8-3.49,4.53-6.29,3.86-2.8-.67-4.53-3.49-3.86-6.29,.67-2.8,3.49-4.53,6.29-3.86s4.53,3.49,3.86,6.29Z"/>
        </g>
        <g>
          <path class="cls-17" d="M2739.33,776.22c-.27-.39-.55-.78-.83-1.16-.28-.36-.56-.72-.86-1.06-.27-.31-.53-.61-.8-.89-.05-.03-.08-.06-.09-.09-.31-.31-.62-.61-.94-.89-66.82,57.18-131.64,113.6-194.57,169.38l28.24-144.1c-1.06-.03-2.12-.05-3.17-.02-.3,0-.58,0-.86,.02-.5,.02-1,.03-1.48,.06l-29.38,149.95c-13.46,11.93-26.82,23.84-40.09,35.71-.23,.16-.42,.33-.59,.53-22.15,19.82-44.08,39.55-65.74,59.2-.23,.16-.44,.33-.61,.55-27.97,25.37-55.56,50.61-82.77,75.74-.25,.16-.47,.36-.66,.59-27.41,25.33-54.46,50.54-81.14,75.64l14.45-73.52,19.54-99.45,1.62-8.26,13.59-69.13c-.86,.7-1.7,1.42-2.55,2.14-.83,.73-1.67,1.47-2.48,2.23-.55,.5-1.09,1.02-1.62,1.53l-12.76,64.99-1.62,8.26-24.85,126.42v.02l-10.04,51.12c-8.22,7.73-16.38,15.45-24.51,23.16l-.06,.06c-1.19,1.12-2.37,2.25-3.56,3.37l.75-3.62,39.7-193.73,1.7-8.29,6.78-33.07c-.75,1.41-1.5,2.8-2.2,4.2-.94,1.84-1.86,3.73-2.78,5.69-.44,.91-.86,1.81-1.3,2.75-.05,.11-.11,.23-.16,.34-1.05,2.3-2.11,4.65-3.17,7.04l-3.03,14.82-1.7,8.28-39.69,193.62-1.69,8.22-.05,.23c-18.87,17.95-37.56,35.85-56.07,53.7-3.67,3.55-7.34,7.09-11.01,10.64-4.84,4.67-9.65,9.36-14.46,14.01-31.36,30.46-62.2,60.77-92.51,90.98l11.25-79.44,1.14-8.01,5.34-37.7,1.14-8.04,1.56-11.06,23.48-165.81c-.78,.14-1.56,.3-2.34,.47-.27,.06-.53,.12-.81,.19-.61,.14-1.22,.31-1.83,.48-.22,.06-.44,.14-.64,.2l-22.8,161.03-2.28,16.1-1.14,8.04-5.33,37.61-1.14,8.01-11.93,84.27c-14.68,14.67-29.27,29.3-43.72,43.91-.08,.06-.14,.12-.2,.2l-.66,.66c-3.34,3.39-6.69,6.76-10.01,10.15-13.62,13.81-27.13,27.6-40.53,41.36l5-32.53,1.22-7.97,18.1-117.97,1.23-8.03,5.58-36.27,1.23-8.08,12.03-78.33c-.66,.39-1.31,.78-2,1.14-.09,.05-.19,.11-.3,.16-.69,.37-1.39,.72-2.11,1.06-.3,.14-.58,.28-.89,.41h-.02v.02c-.2,.08-.41,.17-.61,.27l-.2,1.33-11.61,75.58-1.23,8.08-5.56,36.16-1.23,8.04-18.09,117.85-1.22,7.97v.02l-5.81,37.8c-7.12,7.33-14.23,14.65-21.29,21.98-3.19,3.3-6.37,6.59-9.53,9.89-28.88,29.99-57.28,59.88-85.19,89.73-1.02,1.08-.97,2.8,.12,3.81,.36,.33,.77,.55,1.22,.66,.91,.22,1.91-.05,2.59-.78,24.65-26.35,49.67-52.75,75.05-79.21l42.28,2.28,218.59,11.79c.08-.17,.16-.33,.23-.5,.09-.2,.17-.39,.27-.59,.23-.52,.47-1.03,.69-1.53,.41-.87,.78-1.76,1.17-2.64l-214.86-11.61-43.44-2.34c3.64-3.78,7.28-7.56,10.92-11.34,3.17-3.3,6.34-6.58,9.53-9.87l.02-.02c22.6-23.37,45.47-46.76,68.66-70.24l.02-.02,3.84-3.89,13.78-.48h.02l44.31-1.53,230.95-8.04,73.43-2.55c1.19-1.8,2.31-3.62,3.39-5.51l-81.78,2.84-220.59,7.67-24.41,.84h-.03l-33.52,1.17c.23-.23,.44-.44,.66-.67l.02-.02c44.73-45.16,90.59-90.53,137.64-136.2,6.94-6.75,13.9-13.5,20.9-20.24,3.67-3.55,7.36-7.09,11.04-10.65,15.65-15.06,31.43-30.16,47.34-45.31l.02-.02c40.42-38.44,81.69-77.11,123.88-116.08l218.55,29.91c-.05-1.84-.12-3.65-.22-5.48l-213.19-29.16c25.74-23.76,51.81-47.59,78.24-71.57l72.1,9.67c.84,4.45,4.22,8.23,8.9,9.36,6.37,1.53,12.81-2.42,14.34-8.79,1.53-6.37-2.42-12.81-8.79-14.34-6.23-1.48-12.5,2.25-14.21,8.37l-67.1-9c20.21-18.32,40.64-36.69,61.26-55.15l186.46-5.08c1.02-1.69,1.95-3.51,2.8-5.48l-183.03,5c75.85-67.76,154.43-136.43,236.02-206.25Zm-231.31,277.65c.84-3.48,4.36-5.65,7.84-4.81,3.48,.83,5.65,4.34,4.81,7.84-.83,3.48-4.34,5.64-7.84,4.81-3.48-.84-5.64-4.36-4.81-7.84Z"/>
          <path class="cls-17" d="M2361.06,1010.55c-6.37-1.52-12.81,2.42-14.34,8.81-1.52,6.37,2.42,12.81,8.81,14.32,6.37,1.53,12.79-2.42,14.32-8.79,1.53-6.37-2.42-12.81-8.79-14.34Zm3.56,13.09c-.84,3.48-4.36,5.64-7.84,4.81-3.48-.84-5.64-4.36-4.81-7.84s4.34-5.64,7.84-4.81c3.48,.84,5.64,4.36,4.81,7.84Z"/>
        </g>
      </g>
      <g>
        <path class="cls-17" d="M475.21,2778.89c2.92-187.11,124.66-396.1,254.16-531.19,87.54,153.82,101.25,363.86,94.05,444.49-8.17,91.54-43.81,179.04-92.03,257.28-48.22,78.24-114.15,145.12-176.3,212.82-49.28-121.84-81.93-252-79.87-383.4Z"/>
        <path class="cls-23" d="M634.52,3075.7c-1.15,1.29-2.3,2.59-3.45,3.88l-48.82-105.17c-2.38,16.51-4.73,33.23-7.06,50.2l33.14,80.06c-1.18,1.29-2.37,2.58-3.55,3.87l-30.86-74.55c-3.45,25.34-6.84,51.2-10.17,77.57,.15,.11,.31,.22,.44,.37,.16,.19,.3,.4,.4,.64l11.35,27.16c-1.19,1.28-2.37,2.56-3.56,3.84l-9.73-23.28c-1.61,12.88-3.21,25.88-4.79,39.01-.92,1-1.84,2-2.76,3-.62-1.53-1.23-3.07-1.84-4.61,2.7-22.41,5.46-44.46,8.25-66.16l-24.19,24.38c-.6-1.66-1.18-3.32-1.77-4.97l26.96-27.17c2.59-19.93,5.21-39.57,7.86-58.9,0-.17,.03-.34,.07-.51,2.71-19.71,5.45-39.11,8.21-58.2,0-.25,.04-.5,.11-.75,1.71-11.78,3.43-23.45,5.16-35l-80.16,76.82c-.45-1.77-.89-3.54-1.33-5.32l82.66-79.21c1.49-9.9,2.99-19.71,4.5-29.44l-93.32,82.43c-.39-1.78-.77-3.56-1.15-5.34l95.62-84.46c3.52-22.58,7.08-44.67,10.65-66.3-.04-.41,.03-.82,.2-1.2,2.29-13.8,4.58-27.43,6.89-40.84l-128.39,100.96c-.21-1.86-.39-3.73-.59-5.6l130.19-102.38c5.66-32.75,11.37-64.33,17.09-94.75-.05-.47,.04-.95,.26-1.37,4.19-22.26,8.39-43.92,12.58-64.93l-161.26,122.57c.25-2.19,.5-4.38,.78-6.58l161.9-123.05c2.07-10.33,4.15-20.52,6.21-30.55l-162.65,119.6c.44-2.31,.91-4.62,1.38-6.93l162.71-119.64c3.06-14.72,6.1-29.11,9.14-43.18-.04-.48,.06-.96,.3-1.38,4.19-19.38,8.35-38.14,12.47-56.26l-150.36,106.6c1.06-2.71,2.14-5.43,3.24-8.13l148.32-105.15c.11-.08,.25-.11,.37-.17,1.53-6.71,3.06-13.32,4.59-19.86,0-.39,.08-.79,.27-1.14,2.01-8.61,4.01-17.07,5.99-25.38l-132.24,91.07c1.46-2.95,2.95-5.9,4.44-8.84l129.45-89.16c13.8-57.38,26.96-107.39,38.94-150.15,1.93-2.05,3.86-4.08,5.79-6.1,.2,.35,.39,.7,.58,1.04-.39,1.37-.77,2.72-1.16,4.09-14.29,50.87-30.29,112.16-47.06,184.03l142.65,180.28c.11,2.72,.21,5.4,.29,8.04l-144.32-182.4c-5.77,24.84-11.62,50.94-17.53,78.28l156.88,201.37c-.33,2.14-.68,4.28-1.04,6.42l-157.15-201.72c-9.85,45.85-19.84,95.18-29.79,148.01l138.28,203.6c-.79,1.66-1.58,3.31-2.39,4.96l-137.14-201.93c-8.12,43.39-16.22,89.14-24.19,137.24l100.85,166.94c-1,1.41-2.01,2.81-3.02,4.21l-99.03-163.92c-7.33,44.5-14.55,91.02-21.59,139.54l51.02,109.92Z"/>
      </g>
      <g>
        <path class="cls-22" d="M387.98,2790.2c10.14,1.81,20.25,3.09,30.31,0,19.76-6.06,33.8-23.87,42.8-41.63,12-23.68,22.3-62.35,51.03-71.12,22.65-6.91,47.02,12.77,69.78,6.2,17.79-5.14,27.27-23.99,34.7-40.95,7.43-16.96,16.96-35.81,34.77-40.88,16.54-4.71,33.24,.65,49.78-5.41,18.39-6.74,31.55-21.11,39.74-38.85,8.7-18.84,11.28-39.96,11.55-60.71,.24-18.73-1.03-38.68,8.4-54.86,10.21-17.52,30.81-26.67,42.19-43.46,11.67-17.22,11.35-41.71-.75-58.63-12.11-16.92-35.19-25.12-55.25-19.63-12.86,3.52-23.84,11.87-36.2,16.86-33.78,13.63-65.18-.25-98.22-5.92-28.14-4.83-59.61,11.12-74.2,35.08-12.63,20.75-16.44,48.97-37.49,61.09-19.84,11.42-45.56,2.55-67.35,9.56-40.67,13.09-42.22,60.07-48.1,94.77-2.4,14.16-7.29,28.66-17.99,38.25-22.23,19.94-57.09,10.76-78.85,32.05-15.7,15.35-14.77,39.47-12.63,59.57,1.49,13.97,3.48,28.16,.96,41.99-2.52,13.82-10.5,27.54-23.51,32.85-20.21,8.25-48.84-.97-57.25,26.47-3.91,12.77,1.59,26.32,2.6,39.64,1.4,18.54-6.73,35.43-19.66,48.24-8.91,8.84-23.89,19.53-16.85,34.53,10.32,22.01,41.05-6.42,53.1-13.21,26.37-14.84,53.44,14.8,79.11-4.63,28.29-21.41,20.55-77.12,63.62-80.57,9.96-.8,19.92,1.5,29.86,3.27Z"/>
        <g>
          <path class="cls-17" d="M546.63,2651.86c.59-2.45,3.04-3.95,5.49-3.37s3.95,3.04,3.37,5.49-3.04,3.95-5.49,3.37-3.95-3.04-3.37-5.49Z"/>
          <path class="cls-17" d="M517.26,2652.39c.31-1.31,1.63-2.12,2.94-1.81s2.12,1.63,1.81,2.94-1.63,2.12-2.94,1.81-2.12-1.63-1.81-2.94Z"/>
          <path class="cls-17" d="M539.96,2631.15c.27-1.15,1.42-1.85,2.57-1.58,1.15,.27,1.85,1.42,1.58,2.57-.27,1.15-1.42,1.85-2.57,1.58-1.15-.27-1.85-1.42-1.58-2.57Z"/>
          <circle class="cls-17" cx="329.24" cy="2775.34" r="3.38"/>
          <path class="cls-17" d="M241.23,2848.89c.42-1.77,2.2-2.86,3.97-2.44s2.86,2.2,2.44,3.97-2.2,2.86-3.97,2.44-2.86-2.2-2.44-3.97Z"/>
          <path class="cls-17" d="M223.55,2777.04c.34-1.41,1.75-2.28,3.16-1.94,1.41,.34,2.28,1.75,1.94,3.16s-1.75,2.28-3.16,1.94-2.28-1.75-1.94-3.16Z"/>
          <circle class="cls-17" cx="327.99" cy="2611.03" r="3.85"/>
          <path class="cls-17" d="M409.96,2523.89c.43-1.79,2.23-2.9,4.03-2.47,1.79,.43,2.9,2.23,2.47,4.03-.43,1.79-2.23,2.9-4.03,2.47-1.79-.43-2.9-2.23-2.47-4.02Z"/>
        </g>
        <g>
          <path class="cls-17" d="M750.12,2335.61c-.23-.21-.5-.35-.78-.42-.58-.14-1.22,.03-1.66,.5-15.43,16.48-31.06,32.99-46.93,49.54-.37,.39-.75,.78-1.12,1.17l-27.08-1.46-139.94-7.55c-.51,1.11-1.02,2.24-1.51,3.37l137.55,7.43,27.82,1.5c-2.33,2.42-4.66,4.84-6.99,7.26-2.03,2.1-4.06,4.21-6.1,6.31-14.46,14.96-29.12,29.96-43.98,44.99h-.01c-.81,.84-1.63,1.67-2.45,2.5l-8.82,.31h-.01l-28.38,.98-194.86,6.77c-.76,1.15-1.48,2.33-2.17,3.53l193.58-6.72,15.67-.55h.02l21.43-.74c-.14,.14-.27,.28-.41,.42h-.01c-32.88,33.18-66.7,66.56-101.53,100.18h-.01c-2.36,2.3-4.7,4.56-7.06,6.82-10.01,9.64-20.09,19.29-30.27,28.96h0c-10.47,9.99-21.04,19.98-31.7,29.99-15.68,14.74-31.56,29.53-47.64,44.38l-139.91-19.14c.03,1.17,.08,2.34,.14,3.51l136.49,18.67c-16.49,15.2-33.17,30.47-50.09,45.81l-46.16-6.18c-.54-2.85-2.7-5.27-5.7-5.99-4.09-.98-8.2,1.54-9.18,5.63-.98,4.08,1.55,8.2,5.63,9.18,3.99,.95,8-1.44,9.1-5.36l42.96,5.76c-12.95,11.72-26.02,23.49-39.23,35.3l-119.37,3.26c-.65,1.08-1.25,2.25-1.8,3.5l117.19-3.19c-48.56,43.38-98.88,87.35-151.11,132.05,.08,.13,.17,.26,.26,.38,.09,.12,.18,.24,.27,.36,.18,.23,.36,.46,.55,.68,.17,.2,.34,.39,.51,.57,.03,.02,.05,.04,.06,.06,.2,.2,.4,.39,.6,.57,42.78-36.61,84.28-72.73,124.57-108.44l-18.08,92.26c.8,.02,1.6,.02,2.4,0,.31,0,.62-.01,.93-.03,.07,0,.13-.01,.2-.01l18.81-96c8.61-7.64,17.17-15.26,25.67-22.87,.15-.09,.27-.21,.38-.34,14.18-12.68,28.21-25.31,42.09-37.89,.15-.1,.28-.22,.39-.35,17.91-16.24,35.56-32.4,52.99-48.49,.16-.11,.3-.24,.42-.39,16.03-14.81,31.87-29.55,47.5-44.26,1.48-1.39,2.96-2.78,4.44-4.17l-1.68,8.57h0l-7.58,38.56h0l-12.5,63.62-1.04,5.28-8.69,44.26c1.05-.87,2.1-1.76,3.11-2.69,.03-.02,.05-.05,.08-.07,.36-.34,.72-.67,1.07-1.01l8.18-41.62,1.03-5.28,15.91-80.94h0l3.12-15.9,3.31-16.84c5.25-4.96,10.49-9.91,15.7-14.85,.02-.01,.03-.03,.04-.04,.76-.72,1.52-1.43,2.27-2.15l-.48,2.33-9.82,47.88h0l-15.6,76.15-1.09,5.3-4.34,21.17c.48-.89,.95-1.79,1.41-2.68,.4-.79,.79-1.59,1.19-2.41,.2-.41,.39-.82,.59-1.24,.99-2.08,1.97-4.25,2.96-6.48l1.95-9.5,1.08-5.29,14.59-71.16,10.82-52.8,1.08-5.26,.03-.15c12.08-11.49,24.03-22.93,35.87-34.37h.02c2.36-2.28,4.71-4.55,7.05-6.82,23.28-22.52,46.1-44.92,68.49-67.23l-7.2,50.87-.73,5.12-3.42,24.14-.73,5.16h0l-16.03,113.24c.8-.15,1.6-.32,2.4-.52,.27-.06,.54-.13,.8-.21,.14-.04,.27-.09,.41-.13l16.06-113.41,.73-5.16,3.41-24.07,.72-5.12,7.64-53.96c9.41-9.39,18.75-18.76,28-28.12,.04-.04,.09-.07,.12-.12l.42-.42c2.14-2.17,4.28-4.34,6.42-6.5,8.72-8.85,17.37-17.67,25.95-26.49l-3.2,20.84-.78,5.1-11.6,75.53-.78,5.13-3.57,23.22-.79,5.18-7.7,50.13h0c.3-.17,.61-.35,.92-.52,0,0,.03-.02,.05-.03,.3-.16,.59-.31,.89-.47,.51-.25,1.01-.5,1.53-.73h.01l.39-.18v-.02l.13-.83,7.43-48.39,.79-5.18,3.56-23.15,.79-5.14,11.58-75.46,.78-5.1,3.72-24.2c4.57-4.7,9.12-9.4,13.65-14.09,2.03-2.11,4.06-4.21,6.08-6.31,2.36-2.45,4.71-4.89,7.05-7.33,16.06-16.74,31.89-33.45,47.49-50.12,.65-.7,.61-1.79-.08-2.44Zm-438.32,374.52c-.53,2.23-2.78,3.61-5.01,3.08-2.24-.54-3.62-2.79-3.08-5.02,.53-2.23,2.78-3.61,5.01-3.08,2.24,.54,3.62,2.79,3.08,5.02Z"/>
          <path class="cls-17" d="M409.44,2723.04c-4.08-.97-8.2,1.55-9.17,5.64-.98,4.08,1.54,8.2,5.63,9.17,4.08,.98,8.2-1.55,9.18-5.63,.97-4.08-1.55-8.2-5.64-9.18Zm2.28,8.38c-.54,2.23-2.79,3.61-5.02,3.08-2.23-.54-3.61-2.79-3.08-5.02,.54-2.23,2.79-3.61,5.02-3.08,2.23,.54,3.61,2.79,3.08,5.02Z"/>
        </g>
      </g>
      <path class="cls-13" d="M2421.52,1621.92c-655.36-306.15-485.01-994.12-1215.6-1153.9-426.62-93.3-783.03,307.05-909.6,670.63-210.57,604.86,89.41,1154.76,507.85,1583.45,324.12,332.06,676.91,560.16,1164.15,418.47,767.85-223.3,1077.11-1227.19,453.2-1518.64Z"/>
      <g>
        <polygon class="cls-23" points="365.89 1147.68 222.8 1305.6 208.5 1762.63 365.89 1544.28 365.89 1147.68"/>
        <g>
          <rect class="cls-7" x="127.26" y="999.71" width="921.81" height="756.85" transform="translate(-1.67 .71) rotate(-.07)"/>
          <g class="cls-26">
            <rect class="cls-21" x="127.26" y="999.71" width="921.81" height="756.85" transform="translate(-1.67 .71) rotate(-.07)"/>
          </g>
          <g class="cls-28">
            <rect class="cls-21" x="127.39" y="1000.09" width="313.88" height="756.85" transform="translate(-1.67 .35) rotate(-.07)"/>
          </g>
          <path class="cls-7" d="M149.16,1705.08c23.24-53.95,46.22-108.01,68.94-162.16l67.91-162.91,67.13-163.51c22.29-54.7,44.19-109.41,66.09-164.86-23.15,53.85-46.18,107.86-69.07,162.01l-67.91,162.91-67,163.66c-22.2,54.85-44.24,109.81-66.09,164.86Z"/>
          <path class="cls-7" d="M149.16,1052.39c21.86,54.85,43.98,109.81,66.35,164.86l67.39,163.36,68.3,162.76c22.81,54.15,45.88,108.11,69.2,161.86-21.86-54.85-43.98-109.81-66.35-164.86l-67.39-163.36-68.17-162.76c-23.33-54.05-46.44-108.01-69.33-161.86Z"/>
          <g class="cls-27">
            <polygon class="cls-6" points="331.11 1193.87 318.93 1193.87 308.95 1177.68 299.88 1193.87 294.31 1193.87 288.35 1193.87 279.92 1193.87 276.68 1188.02 272.54 1193.87 262.3 1193.87 259.84 1193.87 256.34 1193.87 254.91 1189.82 251.93 1193.87 247.52 1186.67 242.73 1193.87 235.86 1193.87 235.6 1000.08 330.98 1000.08 331.11 1193.87"/>
          </g>
          <rect class="cls-21" x="868.54" y="1597.92" width="6.74" height="108.96"/>
          <rect class="cls-21" x="884.61" y="1597.92" width="6.74" height="108.96"/>
          <rect class="cls-21" x="900.73" y="1597.64" width="6.74" height="108.96" transform="translate(-2.33 1.28) rotate(-.08)"/>
          <rect class="cls-21" x="913.64" y="1602.72" width="6.74" height="108.96"/>
          <rect class="cls-21" x="932.69" y="1597.92" width="6.74" height="108.96"/>
          <rect class="cls-21" x="948.81" y="1597.57" width="6.74" height="108.96" transform="translate(-2.33 1.35) rotate(-.08)"/>
          <rect class="cls-21" x="964.88" y="1597.55" width="6.74" height="108.96" transform="translate(-2.33 1.37) rotate(-.08)"/>
          <rect class="cls-21" x="980.77" y="1597.77" width="6.74" height="108.96"/>
          <rect class="cls-21" x="996.71" y="1597.77" width="6.74" height="108.96"/>
          <path class="cls-21" d="M803.1,1698.64l25.92,8.24h-60.26l25.92-8.39v-40.02c-18.4-2.7-25.92-23.68-25.92-59.95h60.39c0,36.57-7.26,57.55-25.92,59.95l-.13,40.17Z"/>
          <polygon class="cls-21" points="754.37 1653.68 738.69 1653.68 738.69 1707.03 698.38 1707.03 698.38 1653.68 682.57 1653.68 718.47 1598.07 754.37 1653.68"/>
          <g class="cls-26">
            <polygon class="cls-21" points="1049.46 1756.04 1049.46 1703.88 441.4 1608.11 441.53 1756.79 1049.46 1756.04"/>
          </g>
        </g>
        <path class="cls-10" d="M856.61,1760.36s21.47,167.94,21.47,168.01c.5,3.67,73.27-21.11,80.19-24.35,20.17-9.58,38.4-22.69,55.26-37.39,36.46-31.48,63.69-73.27,67.58-140.56,1.08-17.87,5.4-35.95,.65-53.17-4.68-16.71-15.71-31.7-31.84-38.83-.29-.14-.5-.22-.79-.36v122.33h-23.49c-.07,.22-.14,.36-.22,.58-6.12,17.94-17.07,60.09-41.5,60.09-9.65-.07-6.77-6.84,8.79-36.46,4.32-8.29,8.29-16.43,11.31-24.21h-58.57c-10.81,15.71-27.31,32.42-39.19,19.81-16.5-17.43-49.64-15.49-49.64-15.49Z"/>
        <path class="cls-10" d="M945.44,1756.03h58.57c8.07-20.17,10.3-37.25-1.59-44.24-16.57-9.73-40.85,13.54-47.62,28.17-1.87,4.03-5.19,10.01-9.37,16.07Z"/>
        <path class="cls-8" d="M781.56,1001.97s26.7-27.15,0-30.83c-26.7-3.68-97.61-9.21-120.63-19.34-23.02-10.13-163.91-23.97-183.25,50.17,0,0,69.06,5.08,97.61,20.73,28.55,15.65,62.62,34.99,70.9,19.34,8.29-15.65-1.25-27.42-18.75-40.07h154.11Z"/>
        <path class="cls-14" d="M627.44,1005.58c1.13,0,2.26-.54,2.96-1.54,1.14-1.63,.74-3.88-.89-5.01-1.69-1.17-41.75-28.77-78.25-28.77-1.99,0-3.6,1.61-3.6,3.6s1.61,3.6,3.6,3.6c34.26,0,73.73,27.2,74.13,27.47,.63,.44,1.35,.65,2.06,.65Z"/>
        <path class="cls-15" d="M297.06,758.49c45.27,70.62-61.69,99.82-61.69,99.82,0,0,4.49,31.4-33.65,58.32-12.16,8.58-60.09,7.5-53.83,32.53,12.34,49.35-74.02,98.7-74.02,98.7,0,0-11.22-67.29-38.13-93.09-26.92-25.8-68.42-104.31,7.85-144.68,0,0-7.85-79.63,78.51-65.05,0,0,3.36-48.23,52.71-43.74,49.35,4.49,45.98,47.11,45.98,47.11,0,0,48.23-33.65,76.27,10.09Z"/>
        <path class="cls-12" d="M197.65,875.75c27.76,0,38.64-23.52,38.76-23.79l-6.57-2.95c-.48,1.07-12.25,26-44.43,17.92-13.77-3.47-21.19-9.78-27.74-15.34-9.65-8.22-18-15.32-39.48-4.3-13.66,6.99-29.66,6.75-43.92-.7-14.65-7.64-25.04-21.81-27.12-36.99l-7.13,.98c2.42,17.72,13.98,33.57,30.92,42.4,16.35,8.53,34.78,8.79,50.53,.72,17.22-8.8,22.29-4.49,31.53,3.38,6.79,5.78,15.25,12.97,30.65,16.84,5.08,1.28,9.74,1.83,14,1.83Z"/>
        <path class="cls-12" d="M51.42,900.66c50.78,0,85.97-52.72,86.37-53.34l-6.02-3.95c-.44,.66-44.23,66.23-102.63,46.3l-1.53-.52-1.4,.79s-5.57,2.99-10.14,.52c-4.37-2.35-7.13-9.1-7.99-19.53l-7.18,.59c1.09,13.22,5.07,21.74,11.83,25.33,6.16,3.28,12.6,1.32,15.47,.11,8.03,2.58,15.79,3.71,23.21,3.71Z"/>
        <path class="cls-12" d="M261.89,835.66c.99-.58,24.48-14.61,30.15-40.92,3.73-17.28-1.14-35.59-14.47-54.43l-5.88,4.17c12.1,17.09,16.58,33.47,13.33,48.68-4.97,23.19-26.55,36.16-26.76,36.28l3.64,6.22Z"/>
        <path class="cls-11" d="M48.04,1110.65l179.47,93.08,4.11-56.05,2.67-37.03c161.45,3.39,103.17-141.28,103.17-141.28,0,0,39.27-14.63,4.47-35.88-34.73-21.33-81.84-100.94-81.84-100.94l-26.95,17.94c1.15,75.12-71.6,72.3-71.6,72.3-17.94-11.24-47.28,11.77-49.51,33.1-2.23,21.33,17.94,40.35,17.94,40.35l-56.05,51.58-25.86,62.82Z"/>
        <path class="cls-14" d="M134.78,1012.3s5.33,92.87,96.83,135.37l2.67-37.03s-72.26-19.02-99.5-98.34Z"/>
        <path class="cls-15" d="M134.78,980.66c1.22,0,2.41-.62,3.09-1.75,1.03-1.71,.47-3.92-1.23-4.94h0s-4.66-3.81-1.67-18.36c.73-3.52,2.34-5.99,4.92-7.53,6.48-3.88,16.82-.87,16.92-.83,1.93,.58,3.9-.52,4.48-2.42,.57-1.9-.51-3.91-2.41-4.48-.54-.17-13.43-3.97-22.67,1.53-4.36,2.6-7.16,6.73-8.3,12.28-4.09,19.87,4.06,25.42,5,25.98,.58,.35,1.22,.51,1.86,.51Z"/>
        <path class="cls-15" d="M149.04,963.39c.52,0,1.05-.11,1.55-.35,1.79-.86,2.56-3.01,1.7-4.8-4.14-8.7-15.6-8.39-21.73-6.84-1.92,.49-3.09,2.44-2.6,4.37,.48,1.93,2.42,3.09,4.37,2.62,.11-.02,10.85-2.53,13.47,2.95,.61,1.3,1.91,2.05,3.25,2.05Z"/>
        <path d="M787.01,1978.44s15.71,45.97-13.19,57.79c-14.92,6.1-184.87,26.23-345.76,44.27-150.62,16.88-293.28,31.94-293.28,31.94,0,0-46.48,114.57-121.71,141.95V1084.5c13.33,2.56,27.26,5.71,41.83,9.48,22.48,5.81,46.49,13.1,72.11,22.07,.03,.01,.08,.03,.13,.05,8.78,3.08,17.77,6.36,26.94,9.83,11.02,4.17,20.89,8.41,29.75,12.99,1,.52,1.98,1.03,2.94,1.57,18.5,10.02,32.33,21.86,42.54,38.52,2.37,3.87,4.56,7.9,6.55,12.33v.1c.36,.8,.71,1.6,1.06,2.43,8.31,19.52,13.27,44.7,15.97,78.53,.69,8.7,1.23,17.98,1.64,27.89h0c.16,4.1,.31,8.29,.44,12.6h0c.46,16.19,.63,33.91,.56,53.38-.09,25.41-.6,52.07-1.43,79.06h0c-.12,4.06-.24,8.1-.38,12.17h0c-1.7,50.6-4.39,101.86-7.26,147.85-.01,.3-.03,.6-.06,.91l-.02,.44c-.52,8.3-1.06,16.43-1.58,24.34-.24,3.82-.49,7.55-.74,11.21-.15,2.38-.3,4.73-.46,7.04-.31,4.68-.63,9.23-.93,13.63-.01,.27-.03,.52-.06,.79-.05,.73-.1,1.46-.15,2.18-.1,1.45-.2,2.88-.3,4.3-.05,.71-.09,1.42-.15,2.11-.08,1.15-.16,2.3-.24,3.44-.01,.24-.02,.48-.05,.71-.08,1.12-.15,2.21-.23,3.3-1.12,15.41-2.17,29.38-3.11,41.46-.95,12.11-1.78,22.35-2.44,30.32-.01,.2-.02,.4-.05,.59-.02,.33-.06,.65-.08,.98l-.15,1.93c-.06,.66-.09,1-.09,1-.01,.17-.02,.36-.03,.52-.02,.15-.03,.3-.05,.44h0c-.74,8.96-1.19,13.87-1.19,13.87l291.49-4.93,196.34-3.31h.02l3.72-.07,130.76-2.21,3.15,12.61,10.57,42.26h0l27.31,109.16,2.35,9.39-109.61,43.34-3.36,1.32Z"/>
        <path class="cls-23" d="M787.01,1978.44s15.71,45.97-13.19,57.79c-14.92,6.1-184.87,26.23-345.76,44.27-150.62,16.88-293.28,31.94-293.28,31.94,0,0-57.48,10.09-121.71,4.46v-581.13c36.79,5.8,76.74,14.42,114.35,27.2,.05,.01,.08,.02,.13,.05,23.6,8.02,46.28,17.7,66.66,29.34,.82,.46,1.64,.94,2.45,1.42,5.8,3.39,11.4,6.94,16.78,10.67,6.21,4.29,12.1,8.82,17.65,13.6,4.78,4.08,9.3,8.35,13.51,12.82l.17,.17c-.24,3.82-.49,7.55-.74,11.21-.15,2.38-.3,4.73-.46,7.04-.31,4.68-.63,9.23-.93,13.63-.01,.27-.03,.52-.06,.79-.05,.73-.1,1.46-.15,2.18-.1,1.45-.2,2.88-.3,4.3-.05,.71-.09,1.42-.15,2.11-.08,1.15-.16,2.3-.24,3.44-.01,.24-.02,.48-.05,.71-.08,1.12-.15,2.21-.23,3.3-1.15,16.33-2.2,30.17-3.07,41.39-1.27,16.33-2.18,27.12-2.61,31.95-.01,.17-.02,.33-.03,.48l-.12,1.45c-.06,.66-.09,1-.09,1h.02l116.37,.82h2.88l172.48,1.21,329.31,2.29,3.15,12.61,10.57,42.26h0l27.31,109.16,2.35,9.39-109.61,43.34-3.36,1.32Z"/>
        <rect class="cls-19" x="158.01" y="1673.23" width="151.61" height="14.4" transform="translate(-1459.11 1792.37) rotate(-85.86)"/>
        <path class="cls-20" d="M211.66,1170.8l-6.34,8.74c-.08-.06-.93-.66-2.5-1.68-1.12-.73-2.58-1.67-4.39-2.79h-.01c-11.59-7.09-37.09-20.97-71.24-29.75-.03-.01-.08-.02-.13-.03-6.6-1.7-13.53-3.2-20.73-4.42h-.01c-24.12-4.1-51.43-5.09-80.5,.26-4.26,.78-8.51,1.68-12.72,2.72v-11.13c3.63-.83,7.27-1.58,10.93-2.25,19.39-3.54,37.95-4.45,55.32-3.58,17.16,.86,33.16,3.46,47.7,7.01,.05,0,.08,.01,.13,.02,27.61,6.74,49.88,16.85,64.64,24.8h.01c1.27,.69,2.49,1.35,3.64,2,9.69,5.43,15.37,9.48,16.21,10.1Z"/>
        <rect class="cls-22" x="750.96" y="1757.85" width="7.2" height="225.36" transform="translate(-505.67 295.71) rotate(-16.7)"/>
      </g>
      <circle class="cls-1" cx="767.59" cy="545.62" r="89.76"/>
      <circle class="cls-5" cx="898.41" cy="343.9" r="44.88"/>
      <path class="cls-5" d="M1066.72,3195.76l-29.45-7.17c-56.53-13.75-113.5,20.93-127.25,77.45l-4.15,17.04-3.02,12.42c-13.75,56.52,20.92,113.49,77.45,127.25l29.45,7.16c56.53,13.76,113.5-20.92,127.25-77.45l5.94-24.39,1.23-5.06c13.75-56.52-20.92-113.5-77.45-127.25Zm59.14,138.4c-13.73,56.55-70.72,91.25-127.26,77.5-48.16-11.72-80.46-54.81-80.46-102.27,0-7.03,.71-14.16,2.18-21.3,.26-1.24,.54-2.49,.84-3.74,11.74-48.14,54.82-80.41,102.26-80.41,8.24,0,16.62,.98,24.98,3.01,48.16,11.72,80.46,54.81,80.46,102.27,0,5.94-.51,11.95-1.55,17.98-.4,2.32-.89,4.64-1.45,6.96Z"/>
      <path class="cls-5" d="M851.03,3077.25l-17.87-4.35c-5.53-1.35-11.07-1.93-16.51-1.82-1.62,.04-3.23,.13-4.82,.29-9.03,.88-17.66,3.68-25.38,8.08h-.01c-3.48,1.98-6.77,4.29-9.82,6.89-9.91,8.42-17.35,19.94-20.66,33.55l-.12,.5h0l-3.76,15.43h0l-.47,1.94c-8.34,34.29,12.69,68.85,46.99,77.2l17.86,4.35c9.87,2.4,19.77,2.37,29.05,.27,1.55-.34,3.09-.74,4.6-1.21,20.91-6.35,38.02-23.28,43.56-46.05l4.34-17.87c8.35-34.29-12.69-68.86-46.98-77.2Zm35.88,83.96c-5.18,21.34-20.51,37.55-39.62,44.75-1.49,.57-3,1.07-4.53,1.52-10.42,3.06-21.75,3.5-33.06,.75-29.22-7.11-48.82-33.25-48.82-62.04,0-5.02,.6-10.11,1.84-15.2,6.25-25.68,27.23-43.92,51.77-47.94,1.57-.26,3.15-.46,4.74-.6,1.83-.16,3.67-.24,5.52-.24,5,0,10.09,.6,15.16,1.83,29.22,7.11,48.82,33.25,48.82,62.05,0,4.99-.59,10.06-1.82,15.12Z"/>
      <g class="cls-29">
        <path class="cls-6" d="M1577.22,2373.07l-126.23-170.28,170.28-126.23,126.23,170.28-170.28,126.23Zm-104.7-167.09l107.9,145.56,145.56-107.9-107.9-145.56-145.56,107.9Z"/>
      </g>
      <g>
        <g>
          <rect class="cls-6" x="982.34" y="2229.81" width="900.52" height="301.01" rx="53.59" ry="53.59" transform="translate(2865.2 4760.62) rotate(-180)"/>
          <rect class="cls-22" x="1057.53" y="2362.42" width="369.41" height="121.58" rx="13.03" ry="13.03"/>
          <path class="cls-11" d="M1735.08,2867.38s-36.61,150.45-140.65,23.29c-104.04-127.16-321.75-328.2-321.75-328.2,0,0-9.63-68.7-48.17-103.38-38.53-34.68-30.83-29.84-38.53-48.64-7.71-18.8-30.83,27.44-21.19,48.64,9.63,21.19,47.15,71.72,20.17,71.72h-206.88s22.82,48.77,51.72,53.18c28.9,4.41,109.94,34.53,175.44,133.28,65.51,98.75,386.98,592.62,502.72,568.93,115.74-23.68,167.76-165,167.76-165l-140.65-253.83Z"/>
          <path class="cls-11" d="M2223.81,2663.16s-242.85-175.64-258.12-242.85c-15.27-67.2-30.02-109.97-42.5-123.71-12.48-13.75-9.43-38.18-9.43-38.18,0,0-12.9-23.72-29.31-20.73v231.14s-16.38,1.99-31.27-13.9c-14.89-15.88-25.81-23.83-36.73-22.83s-15.88,15.88,0,33.75c15.88,17.87,42.69,50.63,51.62,66.52,8.93,15.88,63.54,63.54,63.54,63.54l83.45,80.41,208.75-13.16Z"/>
          <path class="cls-9" d="M2764.52,2978.9s96.8,112.96,69.62,209.78c-27.18,96.82-151.85,98.35-151.85,98.35l-19.2-200.48,101.43-107.65Z"/>
          <path class="cls-25" d="M2081.58,2335.95l136.9,226.52,70.74-36.42,30.8-15.81q0,.08,.08,.15c1.95,4.12,43.69,87.37,132.18,39.34,0,0,33.79,132.26,173.77,133.83,139.9,1.5,206.07-102.06,215.28-173.32,9.22-71.19,28.77-279.05-264.51-261.89,0,0,9.22-78.46-75.38-107.68-84.52-29.22-184.56,143.05-184.56,143.05,0,0-13.79-10.79-33.79,0,0,0,10.79-78.45-56.87-80.03,0,0,1.5-43.01-53.88-39.94-55.38,3.07-47.66,46.76-47.66,46.76,0,0-58.45-17.53-83.03,30.12-24.65,47.66,39.94,95.32,39.94,95.32Z"/>
          <path class="cls-18" d="M2289.22,2526.06l30.8-15.81c-21.51-66.84-3.15-226.52-3.15-226.52,0,0-13.79-10.79-33.79,0-27.95,115.02,6.14,242.33,6.14,242.33Z"/>
          <path class="cls-24" d="M2842.75,2478.24l5.53-5.05c-5.97-6.54-147.06-160.15-224.68-165.73-46.41-3.4-69.11,14.24-89.16,29.75-14.03,10.85-27.28,21.1-47.35,23.5-95.44,11.43-149.93-14.05-166.6-77.94l-7.25,1.9c26.42,101.28,138.07,87.88,174.75,83.49,22.12-2.66,36.16-13.52,51.03-25.02,19.92-15.4,40.44-31.32,84.04-28.2,74.64,5.37,218.24,161.73,219.68,163.31Z"/>
          <path class="cls-24" d="M2767.11,2638.01l5.77-4.77c-7.46-9.01-183.55-220.39-259.83-202.71-21.39,4.96-40.64,15.23-59.25,25.16-46.65,24.89-86.95,46.38-140.98-30.16l-6.12,4.32c57.85,81.93,102.93,57.9,150.63,32.45,18.18-9.7,36.99-19.73,57.41-24.47,71.98-16.82,250.58,198.01,252.37,200.18Z"/>
          <path class="cls-24" d="M2426.93,2256.71c13.83,0,29.6-1.75,47.39-6.19,82.45-20.6,91.6-60.25,91.95-61.93l-7.34-1.53,3.67,.76-3.66-.79c-.08,.37-9.09,36.89-86.43,56.21-77.89,19.45-115.81-15.78-116.19-16.14l-5.2,5.39c1.28,1.24,25.74,24.21,75.82,24.21Z"/>
          <path class="cls-24" d="M2677.2,2677.98l6.71-3.34c-.78-1.57-79.5-155.6-217.16-89.98l3.22,6.76c131.1-62.45,206.49,85.06,207.23,86.55Z"/>
          <path class="cls-24" d="M2230.51,2279.9l7.24-1.94c-.54-2.03-13.73-49.81-50.77-69.1-18.72-9.76-40.12-10.37-63.59-1.86l2.55,7.05c21.4-7.76,40.76-7.28,57.54,1.44,34.11,17.75,46.9,63.96,47.03,64.42Z"/>
          <path class="cls-24" d="M2267.42,2380.66l7.26-1.87c-.55-2.12-13.71-52.02-44.37-64.39-12.41-5-25.79-3.18-39.78,5.42-52.01,31.99-86.03,2.85-87.45,1.6l-4.98,5.6c.39,.34,39.43,34.2,96.36-.81,11.84-7.28,22.95-8.91,33.04-4.86,27.16,10.95,39.8,58.83,39.93,59.32Z"/>
          <path class="cls-10" d="M2051.38,2426.84c6.22,6.22,20.46,16.86,16.93,34.69-3.6,17.83-5.32,85.5,74.78,86.4,0,0,4.95,16.78,8.77,35.07,3.3,15.66,5.77,32.45,3.75,40.91-4.5,18.43,227.12,9.59,227.12,9.59,0,0-91.57-76.81-63.62-126.19,0,0-95.39,18.66-128.81-42.94,0,0-30.12,5.92-21.58-24.2,0,0,37.99-18.36,23.6-49.83-14.46-31.4-47.88-11.09-47.88-11.09,0,0,9.89-14.46-7.19-22.25-17.01-7.87-33.42-9.22-36.64-32.82-3.3-23.53-21.36,9.97-21.36,9.97,0,0-5.1,11.09-5.1,17.98,0,6.89,4.87,31.92,0,43.46-4.95,11.61-29,24.95-22.78,31.25Z"/>
          <path class="cls-4" d="M2182.67,2478.32c.37,2.47,.6,4.87,.6,7.19-.22-3.07-.45-5.47-.6-7.19Z"/>
          <path class="cls-4" d="M2143.1,2547.94s4.95,16.78,8.77,35.07c31.1-20.46,32.67-70.74,31.55-94.42-.52,42.11-40.31,59.35-40.31,59.35Z"/>
          <path class="cls-4" d="M2175.98,2419.4c1.62,0,3.11-1.05,3.59-2.69,2.61-8.81,1.88-15.6-2.14-20.19-6.3-7.17-18.02-5.41-18.53-5.32-2.04,.33-3.42,2.24-3.11,4.28,.32,2.03,2.24,3.41,4.27,3.12,2.26-.34,8.79-.5,11.74,2.88,2.75,3.15,1.83,8.87,.58,13.11-.59,1.98,.55,4.07,2.53,4.65,.35,.11,.71,.15,1.06,.15Z"/>
          <path class="cls-2" d="M1707.96,2853.51l171.9,315.24,117.5-128.96s130.61,231.17,172.2,327.76c5.47,12.81,9.37,23.3,11.24,30.5,15.74,61.52,14.31,169.05,55.82,177.59,41.59,8.62,597.52,14.31,597.52,14.31,0,0-45.86-143.27-93.14-204.87-25.4-33.12-38.82-112.55-45.78-178.94-6.07-57.25-7.27-104.91-7.27-104.91l98.91-113s-230.87-336.9-333.53-363.8c-.6-.23-1.2-.38-1.8-.52-19.63-4.5-44.06-7.42-70.81-9.14-111.8-7.27-263.02,5.85-263.02,5.85,0,0-2.92-.45-8.32-1.05h-.08c-13.64-1.5-42.71-4.05-78.38-3.22-76.66,1.72-183.81,18.96-234.17,95.39-83.1,126.04-88.8,141.77-88.8,141.77Z"/>
          <path d="M2030.93,2616.35l265.11,380.59s-105.73,292.76-109.48,329.93c-1.42,14.69-8.69,28.92-17.01,40.69,5.47,12.81,9.37,23.3,11.24,30.5,15.74,61.52,14.31,169.05,55.82,177.59,41.59,8.62,597.52,14.31,597.52,14.31,0,0-45.86-143.27-93.14-204.87-25.4-33.12-38.82-112.55-45.78-178.94l-254.4-233.34,12.51-348.36-422.4-8.09Z"/>
          <polygon class="cls-3" points="2380.71 2614.78 2363.18 2934.74 2109.38 2619.57 2109.31 2619.57 2380.71 2614.78"/>
          <rect class="cls-23" x="2277.32" y="2980.63" width="191.63" height="7.5" transform="translate(-316.21 281.47) rotate(-6.36)"/>
          <rect class="cls-23" x="2277.39" y="3017.53" width="216.79" height="7.5" transform="translate(-284.57 248.32) rotate(-5.62)"/>
          <rect class="cls-16" x="1835.55" y="2804.12" width="7.49" height="339.27" transform="translate(-1229.41 1297.66) rotate(-29.62)"/>
          <rect class="cls-16" x="2659.34" y="2896.39" width="7.49" height="207.86" transform="translate(-638.48 721.37) rotate(-13.79)"/>
          <rect class="cls-16" x="2646.32" y="2982.71" width="128.61" height="7.49" transform="translate(-1302.18 3391.13) rotate(-53.53)"/>
          <rect class="cls-16" x="1970.61" y="2975.15" width="165.44" height="7.49" transform="translate(-1529.41 2474.97) rotate(-47.42)"/>
        </g>
        <path class="cls-1" d="M1026.6,2246.98h814.42c12.85,0,23.28,10.43,23.28,23.28v45.78H1003.32v-45.78c0-12.85,10.43-23.28,23.28-23.28Z"/>
        <rect x="1487.15" y="2381.2" width="293.21" height="5.16"/>
        <rect x="1487.15" y="2423.47" width="141.18" height="5.16"/>
        <rect x="1487.15" y="2465.23" width="293.21" height="5.16"/>
      </g>
    </g>
  </g>
</svg>