<svg xmlns="http://www.w3.org/2000/svg" width="173.766" height="44.662" viewBox="0 0 173.766 44.662">
  <g id="b" transform="translate(0 10.66)">
    <g id="c" transform="translate(0 -10.66)">
      <g id="Group_10837" data-name="Group 10837">
        <text id="mytreety" transform="translate(44.766 36)" fill="#fff" font-size="33" font-family="Segoe UI"><tspan x="0" y="0">mytreety</tspan></text>
        <g id="Group_10835" data-name="Group 10835" transform="translate(0 5.571)">
          <path id="Path_15400" data-name="Path 15400" d="M19.279,0a.259.259,0,0,1,.261.261V26.486a.78.78,0,0,1-.11-.01c-.131-.016-.256-.037-.382-.063a6.034,6.034,0,0,1-2-.993,5.454,5.454,0,0,0-4.7-.768,10.069,10.069,0,0,0-2.3,1.15,4.2,4.2,0,0,1-3.345.606,8.527,8.527,0,0,1-2.153-1.04,5.79,5.79,0,0,0-3.282-.909.792.792,0,0,1-.794-.622A19.663,19.663,0,0,1,0,19.545a19.451,19.451,0,0,1,1.531-7.593,1.874,1.874,0,0,1,2.932-.7c.345.287.685.575,1.03.868.089.073.172.146.293.251-.089.1-.167.193-.24.287-.726.888-1.516,1.74-2.164,2.681a5.98,5.98,0,0,0,.753,7.416.5.5,0,0,0,.794-.021c1.15-1.359,2.341-2.681,3.418-4.092a5.8,5.8,0,0,0,.93-5.378c-.026-.1-.063-.2-.1-.324.1.005.178.01.256.021a5.923,5.923,0,0,0,5.456-2.038c1.092-1.239,2.137-2.519,3.2-3.784a.536.536,0,0,0-.141-.915,6.035,6.035,0,0,0-7.9,1.1c-.554.643-1.092,1.3-1.636,1.939-2.07-1.2-2.383-3.329-1.165-4.85l.141-.178h0A19.434,19.434,0,0,1,19.279,0Z" transform="translate(0)" fill="#77bcb7"/>
          <path id="Path_15401" data-name="Path 15401" d="M20.168,51.423a4.971,4.971,0,0,1-1.667-.57,4.7,4.7,0,0,1-.517-.314,4.714,4.714,0,0,0-6.094,0,5.025,5.025,0,0,1-1.714.768A5.757,5.757,0,0,1,5.54,50.56a8.109,8.109,0,0,0-2.158-1.03,3.924,3.924,0,0,0-.528-.1.449.449,0,0,0-.481.6,19.075,19.075,0,0,0,.8,1.834.817.817,0,0,0,.554.434,6.187,6.187,0,0,1,1.991.836,8.064,8.064,0,0,0,2.117,1.019,4.077,4.077,0,0,0,3.449-.685,6.31,6.31,0,0,1,2.352-1.139,4.892,4.892,0,0,1,.554-.089.69.69,0,0,1,.763.554.639.639,0,0,1-.507.784,6.8,6.8,0,0,0-2.8,1.28,5.308,5.308,0,0,1-3.042.789,5.76,5.76,0,0,1-3.057-.93H5.54a.255.255,0,0,0-.34.371,19.529,19.529,0,0,0,15.192,7.6.274.274,0,0,0,.277-.272V51.485c-.167-.01-.329-.031-.491-.052ZM17.33,54.151a1.059,1.059,0,0,1-1.009-.82.672.672,0,0,1,.638-.716,1.012,1.012,0,0,1,1.03.831.688.688,0,0,1-.664.706Z" transform="translate(-1.119 -23.594)" fill="#77bcb7"/>
          <path id="Path_15402" data-name="Path 15402" d="M59.006,18.839c-.706.658-1.385,1.343-2.043,2.064-.183-.564-.355-1.1-.523-1.631a2.913,2.913,0,0,0-1.766-1.887,4.588,4.588,0,0,0-2.122-.24A4.7,4.7,0,0,1,51,16.963c-.6-.178-1.139-.517-1.725-.737a1.233,1.233,0,0,0-.282-.063c-.042.026-.084.052-.125.073h0c-.042.021-.084.047-.125.068s-.073.037-.11.052a2,2,0,0,0,.355.371c.617.46,1.265.873,1.892,1.327A2.829,2.829,0,0,1,52.05,20.82a8.712,8.712,0,0,0-.078,1.218,9.177,9.177,0,0,0,2.341,5.524,8.664,8.664,0,0,0,2.153,1.824,19.564,19.564,0,0,1-14.4,9.689.273.273,0,0,1-.308-.272V20.59L45.2,17.909a.517.517,0,0,0,.089-.726l-.512-.658a.517.517,0,0,0-.726-.089L41.76,18.222V.574a.257.257,0,0,1,.293-.256A19.54,19.54,0,0,1,59.011,18.844Z" transform="translate(-19.936 -0.151)" fill="#77bcb7"/>
        </g>
        <g id="Group_10836" data-name="Group 10836" transform="translate(25.609 15.924)">
          <path id="Path_15403" data-name="Path 15403" d="M52.654,23.541a1.649,1.649,0,0,1-.115.152,6.15,6.15,0,0,1-3.507,1.944h-.021A6.138,6.138,0,0,1,50.1,21.759a6.176,6.176,0,0,1,3.528-1.949,6.264,6.264,0,0,1-.967,3.726Z" transform="translate(-49.003 -19.81)" fill="#fff"/>
          <path id="Path_15404" data-name="Path 15404" d="M53.952,27.248a4.657,4.657,0,0,1-1.484,1.625c-.042.026-.084.052-.125.073h0l-.125.068c-.037.016-.073.037-.11.052a2.011,2.011,0,0,1-.246.1,4.3,4.3,0,0,1-2.812-.131,6.136,6.136,0,0,0,3.507-1.944c.042-.052.078-.1.115-.152a4.852,4.852,0,0,1,1.275.3Z" transform="translate(-49.025 -23.214)" fill="#fff" opacity="0.71"/>
          <path id="Path_15405" data-name="Path 15405" d="M52.663,26.931a1.649,1.649,0,0,1-.115.152,6.15,6.15,0,0,1-3.507,1.944H49.02A4.328,4.328,0,0,1,51.105,27.1,3.557,3.557,0,0,1,52.663,26.931Z" transform="translate(-49.011 -23.199)" fill="#fff" opacity="0.71"/>
        </g>
      </g>
    </g>
  </g>
</svg>
