<?xml version="1.0" encoding="UTF-8"?><svg id="Layer_2" xmlns="http://www.w3.org/2000/svg" viewBox="0 0 1191.84 1229.53"><defs><style>.cls-1{fill:#fff;}.cls-2{fill:#adadad;}.cls-3{fill:#77bcb7;}.cls-4{isolation:isolate;opacity:.21;}</style></defs><g id="Layer_1-2"><g><g class="cls-4"><path class="cls-2" d="M502.17,267.2C372.68,556.61,69.95,486.87,5.15,808.2c-37.84,187.64,140.17,340.98,300.41,393.85,266.59,87.96,505.45-47.44,690.34-233.89,143.21-144.42,240.66-300.67,175.08-513.19C1067.62,120.05,625.45-8.32,502.17,267.2Z"/></g><path class="cls-3" d="M669.23,235.83c-94.14-1.2-188.32-1.05-282.47-.04-48.51,.52-99.92,34.97-97.68,97.6,1.54,42.93,.79,85.97,.02,128.94-.26,14.34,4.17,19.14,18.76,18.88,44.92-.81,89.86-.11,134.78-.42,9.48-.06,14,2.82,17.12,12.49,3.04,9.43,10.44,17.41,15.62,26.2,2.88,4.9,7.36,10.15,7.38,15.25,.41,117.97,.39,235.95,.07,353.92-.02,5.09-2.5,11.18-5.85,15.08-18.13,21.16-28.89,46.11-22.03,72.68,8.05,31.2,2.73,54.34-20.81,76.78-14.65,13.97-14.31,34.49-5.65,53.57,8.04,17.71,22.89,25.56,41.1,26.23,2.87,.11,5.74,.2,8.61,.29,22.44,.65,44.93,.59,67.35-.27,15.31-.59,27.42-6.82,35.24-16.99l.12-.16c2.92-3.82,5.23-8.2,6.88-13.04,1.66-4.84,2.66-10.14,2.95-15.81,.85-16.8-3.9-31.76-16.61-42.45-18.52-15.58-22.09-33.75-15.81-56.3,8.4-30.14,.71-57.2-18.24-81.92-4.44-5.8-7.25-14.4-7.32-21.74-.59-57.31-.33-114.63-.33-171.94s.13-115.59-.13-173.38c-.05-9.09,1.38-15.77,9.53-21.94,6.34-4.8,12.29-13.22,13.62-20.87,2.56-14.76,10.94-15.84,23.04-15.74,54.48,.46,108.97,.37,163.46,.24,29.5-.07,25.64,1.36,25.73-25.2,.14-40.12-1.54-80.32,.41-120.35,2.88-58.77-43.49-98.89-98.86-99.59Z"/><path class="cls-3" d="M767.9,519.61c-.53,37.2-.17,74.41-.18,111.61-.01,40.82-18.52,69.57-54.17,83.68-3.94,1.57-8.1,2.95-12.46,4.15-28.39,7.81-56.8,11.38-84.44-3.5-31.08-16.74-49.04-41.15-48.54-77.81,.55-40.53,.81-81.1-.23-121.62-.38-14.95,5.06-19.74,18.83-18.54,5.66,.49,11.39,.08,17.09,.08-.15-1.48-.3-2.97-.45-4.45,4.61-3.2,9.15-8.89,13.83-9.01,7.67-.19,18.85-6.04,22.26,8.24,.56,2.36,6.33,4.86,9.76,4.95,18.6,.48,37.23,.42,55.84,.05,3.26-.07,9.05-2.06,9.33-3.84,2.45-15.81,14.63-9.59,22.65-9.38,4.64,.13,9.12,6.07,12.23,11.01,19.11-1.68,18.86,10.52,18.65,24.38Z"/><path d="M738.23,328.13v124.24c0,6.34-5.2,11.51-11.53,11.51h-147.34c-4.15,0-7.84-2.24-9.84-5.58-.63-1.04-1.1-2.18-1.37-3.39-.19-.82-.29-1.66-.29-2.54v-124.24c0-.93,.03-1.83,.06-2.76,.17-3.95,.7-7.78,1.54-11.5,1.55-6.81,4.19-13.21,7.71-19.02,2.81-4.64,6.19-8.9,10.03-12.68,11.68-11.51,27.68-18.64,45.26-18.64h41.14c35.55,0,64.63,29.08,64.63,64.6Z"/><path class="cls-1" d="M733.5,382.89c-27.53,8.59-32.91,8.59-49.59-15.02-14.7-20.81-25.95-44.04-38.88-66.12-5.6-9.57-4.65-17.58,3.42-25.61,3.57-3.55,6.07-8.16,8.73-12.61h-13.17c-11.83,19.5-30.8,19.77-50.48,18.92-2.1-.09-4.22-.2-6.33-.28-3.84,3.78-7.22,8.04-10.03,12.68,12.55,.61,25.32,.15,40.31,.15-10.97,17.14-20.54,32.71-30.94,47.7-1.87,2.7-7.19,3.03-10.91,4.46-2.59,1-5.18,2-7.77,3v9.36c1.42,1.63,2.76,3.16,3.95,4.53-1.31,4.09-2.63,8.18-3.95,12.29v24.78c5.76-9.6,11.56-19.25,17.58-29.28,12.43,17.55,23.93,33.8,36.23,51.17-11.66,4.27-23.24,8.69-34.94,12.75-9.62,3.34-15.46,5.35-18.87,7.3v9.31c0,.88,.1,1.72,.29,2.54,21.03-6.99,42.03-13.97,64.07-21.29-2.4,11.53-4.38,21.04-6.31,30.26h10.06c1.36-2.24,2.67-4.51,3.86-6.84,5.46-10.7,7.92-25.44,16.54-31.43,13.2-9.16,30.56-12.32,49.86-19.38-1.61,20.06-3.23,36.58-4.03,53.14-.07,1.48,.52,2.99,1.32,4.51h8.24c1.1-1.26,1.94-2.55,2.16-3.95,2.1-13.54,3.75-27.24,4.19-40.92,.44-13.82,6.02-21.88,19.81-25.19,.1-.03,.21-.05,.31-.09v-11.23c-1.66-.14-3.26-.07-4.73,.39Zm-85.93,30.85c-4.81,1.41-13.54-.11-16.17-3.57-12.52-16.4-23.68-33.85-34.9-51.2-1.18-1.82-.42-5.99,.92-8.16,9.92-16.06,20.22-31.89,30.26-47.57,21.62,33.29,41.54,63.97,61.92,95.34-11.97,4.45-26.74,10.71-42.03,15.16Z"/><path d="M800.36,23.93V0h102.95V21.15l-70.68,86.44h69.38v23.74h-103.14v-21.33l70.67-86.07h-69.19Z"/><path d="M870.79,183.74v-16h68.84v14.14l-47.26,57.8h46.39v15.88h-68.97v-14.26l47.26-57.55h-46.27Z"/><path d="M811.29,282.52v-9.69h41.69v8.56l-28.62,35.01h28.09v9.62h-41.77v-8.64l28.62-34.86h-28.02Z"/></g></g></svg>