<?xml version="1.0" encoding="UTF-8"?><svg id="Layer_2" xmlns="http://www.w3.org/2000/svg" viewBox="0 0 957.8 1091.53"><defs><style>.cls-1{fill:#fff;}.cls-2{fill:#adadad;}.cls-3{fill:#77bcb7;}.cls-4{isolation:isolate;opacity:.21;}</style></defs><g id="Layer_1-2"><g><g class="cls-4"><path class="cls-2" d="M718.41,433.25C516.34,300.18,473.02,94.12,226.6,137.13-19.82,180.14-180.61,881.77,374.85,1068.62c0,0,187.4,87.34,396.86-78.99,209.46-166.33,148.76-423.31-53.3-556.38Z"/></g><path class="cls-3" d="M700.75,273.58h-1.67c-70.14,.48-126.62,57.71-126.14,127.85,.44,70.14,57.67,126.62,127.81,126.14,70.14-.44,126.62-57.67,126.18-127.81-.48-69.48-56.7-125.7-126.18-126.18Zm30.88,426.11c-5.01-9.97-15.5-16.03-26.66-15.33-77.91,.75-155.87,.35-233.83,.35s-154.99,.7-232.6-.31c-13.83-2.11-26.92,6.85-30,20.51-3.91,18.71-6.19,37.73-6.81,56.79-1.05,19.98,3.03,23.15,23.45,23.15,48.14,0,96.23,.35,144.37-.26,12.12,0,18.4,2.28,22.71,15.2,11.64,34.48,44.54,57.23,80.9,55.95,35.8-.35,67.37-23.54,78.44-57.62,1.27-8.83,9.49-14.93,18.31-13.7h.66c50.02,.66,100.09,0,150.16,.31,9.27,0,19.46-1.36,20.25-11.77,4.88-24.81,1.58-50.51-9.36-73.26Zm-141.38-187.67c-62.1-60.79-63.16-160.4-2.37-222.5l-67.59-28.28c12.69-38.39,8.26-61.22-15.42-78.35-19.46-14.85-46.42-14.85-65.88,0-9.09,7.73-16.25,17.48-20.95,28.42-5.93,16.6-3.82,34.96,5.75,49.76-20.07,7.2-39.66,15.68-58.63,25.39-67.99,37.73-109.27,110.15-107.08,187.8-.79,60.3-.61,120.74-.61,181.3h428.92l.09-99.22c-36.23-3.21-70.23-18.84-96.23-44.32Z"/><g><path class="cls-1" d="M636.66,377.64c6.18,0,11.47,2.06,15.88,6.18,4.41,4.12,6.62,9.85,6.62,17.21,0,7.8-2.21,13.64-6.62,17.54-4.41,3.9-9.71,5.85-15.88,5.85s-11.51-1.95-15.99-5.85c-4.49-3.9-6.73-9.74-6.73-17.54,0-3.67,.62-6.95,1.88-9.82,1.25-2.87,2.9-5.29,4.96-7.28,2.06-1.99,4.48-3.53,7.28-4.63,2.79-1.1,5.66-1.65,8.6-1.65Z"/><path class="cls-1" d="M702.62,377.64c6.18,0,11.47,2.06,15.88,6.18,4.41,4.12,6.62,9.85,6.62,17.21,0,7.8-2.21,13.64-6.62,17.54-4.41,3.9-9.71,5.85-15.88,5.85s-11.51-1.95-15.99-5.85c-4.49-3.9-6.73-9.74-6.73-17.54,0-3.67,.62-6.95,1.88-9.82,1.25-2.87,2.9-5.29,4.96-7.28,2.06-1.99,4.48-3.53,7.28-4.63,2.79-1.1,5.66-1.65,8.6-1.65Z"/><path class="cls-1" d="M768.58,377.64c6.18,0,11.47,2.06,15.88,6.18,4.41,4.12,6.62,9.85,6.62,17.21,0,7.8-2.21,13.64-6.62,17.54s-9.71,5.85-15.88,5.85-11.51-1.95-15.99-5.85c-4.49-3.9-6.73-9.74-6.73-17.54,0-3.67,.62-6.95,1.88-9.82,1.25-2.87,2.9-5.29,4.96-7.28,2.06-1.99,4.48-3.53,7.28-4.63,2.79-1.1,5.66-1.65,8.6-1.65Z"/></g><path d="M818.52,23.93V0h102.95V21.15l-70.68,86.44h69.38v23.74h-103.14v-21.33l70.67-86.07h-69.19Z"/><path d="M888.96,183.74v-16h68.84v14.14l-47.26,57.8h46.39v15.88h-68.97v-14.26l47.26-57.55h-46.27Z"/><path d="M829.45,282.52v-9.69h41.69v8.56l-28.62,35.01h28.09v9.62h-41.77v-8.64l28.62-34.86h-28.02Z"/></g></g></svg>