<?xml version="1.0" encoding="UTF-8"?><svg id="Layer_2" xmlns="http://www.w3.org/2000/svg" viewBox="0 0 1408.79 923.62"><defs><style>.cls-1{fill:#ebebeb;}.cls-2{fill:#f5f5f5;}.cls-3{fill:#fff;}.cls-4{fill:#fafafa;}.cls-5{fill:#e0e0e0;}.cls-6{fill:#77bcb7;}.cls-7{opacity:.3;}.cls-8{opacity:.5;}</style></defs><g id="Layer_1-2"><g><g><g><rect class="cls-1" x="599.41" y="244.36" width="111.77" height="29.57"/><path class="cls-5" d="M543.11,274.21c.02,.18,.02,.37,0,.55v7.33c0,5.1,.11,12.43,.18,21.69l-.34-.34,111.77-.23c-.25,.25,.57-.55-.55,.57h0v-29.57l.57,.55-79.65-.25-23.53-.16h-.25l23.39-.16,80.05-.25h.55v29.91h0c-1.13,1.15-.3,.32-.57,.57l-111.77-.23h-.34v-.34c0-9.33,.16-16.75,.21-21.9v-7.19c.08-.19,.18-.38,.3-.55Z"/></g><g><rect class="cls-1" x="389.71" y="76.06" width="107.75" height="28.51"/><path class="cls-5" d="M551.74,75.8c-.02-.18-.02-.35,0-.53v-7.07c0-4.92-.11-11.98-.18-20.91l.33,.33-107.75,.22c.24-.24-.55,.53,.53-.55h0v28.51l-.55-.53,76.79,.24,22.68,.16h.24l-22.55,.16-77.17,.24h-.53v-28.84h0c1.09-1.11,.29-.31,.55-.55l107.75,.22h.33v.33c0,8.99-.16,16.15-.2,21.11v6.93c-.08,.18-.18,.36-.29,.53Z"/></g><path class="cls-5" d="M299.78,470.35v-7.15c0-4.63-.1-11.28-.19-19.69l.31,.31-101.47,.21,.52-.52h0v26.8l-.5-.5,72.31,.23,21.36,.15h7.28c.17-.02,.35-.02,.52,0h-7.57l-21.23,.15-72.67,.23h-.5v-27.3h0l.52-.52,101.47,.21h.31v.31c0,8.47-.13,15.2-.17,19.88v6.53c-.29,.56-.29,.69-.31,.69Z"/><path class="cls-5" d="M313.54,443.51c-.02-.17-.02-.35,0-.52v-6.8c0-4.71-.13-11.35-.21-19.52l.38,.38-60.96,.15,.52-.52h0v26.8l-.48-.5,43.61,.23,12.7,.15h4.65c-.37,.03-.74,.03-1.11,0h-3.32l-12.51,.13-43.95,.23h-.79v-27.3h0c-.13,0,.98-.98,.52-.52l60.96,.15h.38v.38c0,8.34-.17,15-.21,19.75v5.3c0,1.29-.17,2.09-.19,2.06Z"/><path class="cls-5" d="M929.74,54.56v-7.15c0-4.63,0-11.3-.17-19.71l.31,.33-101.47,.19,.52-.52h0v26.84l-.5-.52,72.31,.23,21.34,.15h.25l-21.23,.15-72.67,.23h-.5V27.72h0l.52-.5,101.47,.19h.31v.31c0,8.49-.13,15.23-.17,19.9v6.53c-.09,.16-.2,.3-.33,.42Z"/><path class="cls-5" d="M943.51,27.69c-.02-.17-.02-.33,0-.5v-6.8c0-4.71-.13-11.37-.21-19.54l.38,.38-60.96,.15c-.48,.46,.63-.63,.5-.52h0V27.67l-.48-.48,43.61,.23,12.7,.15h4.65c-.37,.03-.74,.03-1.11,0h-3.34l-12.51,.15-43.95,.23h-.5V.62h0c-.13,.13,.98-.98,.52-.5l60.96,.15h.38v.35c0,8.34-.17,15-.21,19.77v5.3c0,1.31-.31,2.04-.44,2Z"/><path class="cls-5" d="M886.55,317.49v7.15c0,4.63,0,11.3,.17,19.71l-.31-.33,101.47-.19-.52,.52h0v-26.84l.5,.52-72.31-.23-21.34-.15h-.25l21.23-.15,72.67-.23h.5v27.05h0l-.52,.5-101.47-.19h-.31v-.31c0-8.49,.13-15.23,.17-19.9v-6.53c.09-.16,.2-.3,.33-.42Z"/><path class="cls-5" d="M872.78,344.35c.02,.17,.02,.33,0,.5v6.8c0,4.71,.13,11.37,.21,19.54l-.38-.38,60.96-.15c.48-.46-.63,.63-.5,.52h0v-26.82l.48,.48-43.61-.23-12.7-.15h-4.65c.37-.03,.74-.03,1.11,0h3.34l12.51-.15,43.95-.23h.5v27.32h0c.13-.13-.98,.98-.52,.5l-60.96-.15h-.38v-.35c0-8.34,.17-15,.21-19.77v-5.3c0-1.31,.31-2.04,.44-2Z"/><g><rect class="cls-2" x="148.72" y="532.24" width="505.03" height="389.55"/><path class="cls-1" d="M275.4,917.46c.7,0,1.26-86.85,1.26-193.89s-.56-193.94-1.26-193.94-1.26,86.8-1.26,193.94,.37,193.89,1.26,193.89Z"/><rect class="cls-4" x="191.54" y="831.59" width="38.71" height="43.75"/><rect class="cls-1" x="442.28" y="532.48" width="57.37" height="83.12"/><rect class="cls-1" x="442.28" y="835.93" width="57.37" height="83.12"/><rect class="cls-1" x="624.05" y="429.95" width="637.59" height="491.79"/><path class="cls-5" d="M1101.93,915.27c-.7,0-1.31-109.61-1.31-244.82s.61-244.82,1.31-244.82,1.26,109.61,1.26,244.82-.56,244.82-1.26,244.82Z"/><rect class="cls-4" x="1158.7" y="806.64" width="48.88" height="55.27"/><rect class="cls-5" x="818.59" y="430.42" width="72.43" height="104.94"/><rect class="cls-5" x="818.59" y="812.14" width="72.43" height="104.94"/><rect class="cls-6" x="564.62" y="625.86" width="385.63" height="297.43"/><rect class="cls-4" x="597.32" y="855.57" width="29.57" height="33.44"/><g class="cls-7"><rect class="cls-3" x="788.78" y="626.6" width="43.8" height="63.48"/></g><g class="cls-7"><rect class="cls-3" x="788.78" y="858.93" width="43.8" height="63.48"/></g><path class="cls-8" d="M660.89,923.26c-1.17,0-2.15-65.3-2.15-146.13s.98-146.08,2.15-146.08,2.1,65.3,2.1,146.08-.93,146.13-2.1,146.13Z"/><path class="cls-1" d="M1349.4,922.41c0,.65-302.05,1.21-674.7,1.21S0,923.06,0,922.41s301.98-1.21,674.7-1.21,674.7,.51,674.7,1.21Z"/></g></g><g><path class="cls-1" d="M1157.95,274.44c26.95,0,53.9-.04,80.85,.02,12.8,.03,25.41,1.37,37.3,6.56,21.09,9.21,32.81,31.56,26.71,52.17-5.14,17.39-17.98,27.09-34.94,31.56-13.34,3.52-26.03,1.74-37.28-6.72-10.34-7.77-15.2-20.24-11.86-31.26,3.88-12.81,13.42-19.4,26.07-21.77,9.38-1.75,18.13,.22,24.69,7.37,2.88,3.14,4.45,7.61,6.14,11.67,.98,2.35-.19,4.5-2.91,5.09-2.53,.55-3.97-.85-4.7-3.18-3.08-9.84-9.13-14.04-19.47-13.51-13.03,.66-23.56,10.92-22.74,22.48,.56,7.87,4.58,13.96,11.23,18.03,13.97,8.54,28,6.84,41.43-1.07,11.2-6.6,18.28-16.31,17.75-29.95-.56-14.16-7.03-25.02-19.61-31.86-10.21-5.55-21.39-7.46-32.84-7.55-22.46-.18-44.91-.08-67.37-.08-36.68,0-73.36,0-110.04,0-1.12,0-2.25,.06-3.37-.04-2.4-.2-4.08-1.32-4.13-3.92-.04-2.61,1.63-3.77,4.02-4,1.11-.11,2.24-.04,3.37-.04,30.57,0,61.13,0,91.7,0Z"/><path class="cls-1" d="M1260.66,172.58c-.3,13.07-5.39,25.88-13.01,37.85-1.33,2.09-3.26,2.81-5.48,1.85-13.05-5.69-25.21-12.73-33.89-24.39-13.03-17.52-12.55-36.26-3.32-54.99,2.66-5.39,2.52-8.99-1.43-12.96-.7-.7-1.69-1.59-1.69-2.39,0-1.77-.02-4.01,.98-5.2,1.46-1.75,3.62-1.16,5.2,.57,.34,.37,.71,.73,.93,1.16,3.46,6.74,9.23,10.02,16.32,12.25,8.37,2.62,15.82,7.28,22.2,13.45,8.9,8.6,13.24,19.1,13.19,32.8Zm-47.86-38.05c-5.21,10.26-8.02,20.89-5.65,32.21,4.08,19.43,18.83,28.9,34.98,36.98,20.06-26.66,8.82-65.88-19.55-69.47,3.18,6.32,6.82,12.46,9.42,19.01,2.48,6.22,6.19,9.88,12.97,10.63,1.25,.14,3.33,2.63,3.13,3.66-.28,1.46-2.14,2.98-3.69,3.72-1.27,.61-3.07,.12-4.79,.12,1.42,4.82,2.81,9.45,4.13,14.11,.76,2.66,1.14,5.31-2.27,6.5-2.55,.89-4.22-.7-5.46-4.58-2.38-7.47-4.82-14.92-7.42-22.32-1.21-3.44-2.89-6.71-4.45-10.27-1.93,2.52-3.4,4.66-5.09,6.61-1.6,1.84-3.63,2.31-5.59,.57-2.05-1.82-1.89-3.79-.17-5.9,6.15-7.55,6.15-13.62-.5-21.59Z"/><path class="cls-1" d="M1371.48,295.81c.32-.83,1.09-2.65,1.71-4.53,.86-2.59,2.44-4.3,5.26-3.38,3.11,1.02,3.15,3.61,2.11,6.16-2.97,7.26-6.05,14.46-9.1,21.69-.33,.79-.69,1.57-1.15,2.6,1.8,.21,3.63-.06,4.85,.69,1.37,.84,3.09,2.65,2.99,3.91-.1,1.3-2.06,2.68-3.49,3.57-.81,.51-2.2,.03-3.31,.14-3.88,.38-7.16,1.8-9.47,5.19-1.81,2.66-3.89,5.13-5.89,7.74,15.57,1.74,30.84-10.14,32.81-25.94,1.65-13.26-2.19-25.61-7.39-37.84-12.98,7.07-24.86,14.96-32.74,27.55-4.7,7.52-6.93,15.69-5.44,24.62,.48,2.91,.08,5.53-3.33,5.96-3.54,.45-4.28-2.33-4.62-5.07-1.64-13.52,2.35-25.36,10.9-35.77,9.46-11.52,21.72-19.31,34.82-25.95,2.29-1.16,4.6-.9,5.77,1.58,7.29,15.43,12.51,31.39,9.37,48.72-2.89,15.96-14.14,26-31.85,29.4-2.08,.4-4.18,.85-6.28,.91-7.4,.22-14.52,1.2-20.64,5.91-.86,.66-2.03,.92-3.06,1.36-2.66,1.14-5.32,1.52-6.54-1.79-1.12-3.02,1.06-4.24,3.46-5.6,4.95-2.8,10.08-5.54,14.36-9.21,8.26-7.07,14.07-16.23,18.43-26.06,1.33-3,.38-7.24-.25-10.78-.42-2.37-1.96-4.93,.85-6.17,1.72-.76,4.19,.17,6.85,.39Z"/><path class="cls-1" d="M1272.25,248.04c-42.91,0-85.82,0-128.73,0-1.12,0-2.25,.04-3.37-.02-2.46-.14-4.07-1.39-4.09-3.92-.03-2.59,1.68-3.73,4.1-3.92,.99-.08,1.99-.04,2.99-.04,86.2,0,172.39,0,258.59,0,5.31,0,7.06,1,7.05,3.97,0,2.99-1.69,3.93-7.06,3.93-43.16,0-86.32,0-129.48,0Z"/><path class="cls-1" d="M1057.51,312.52c2.01-1.74,3.09-2.96,4.43-3.73,.76-.44,1.95-.15,2.95-.15,35.81,0,71.62,0,107.43,0,7.81,0,15.1,1.61,21.26,6.78,.57,.48,1.11,1.01,1.62,1.55,3.28,3.46,3.96,6.26,1.7,7.99-3.48,2.65-5.24-.2-7.34-2.43-4.95-5.26-11.54-6.06-18.26-6.07-35.06-.04-70.13-.02-105.19-.02-1.37,0-2.92,.31-4.07-.21-1.45-.66-2.58-2.03-4.55-3.7Z"/><path class="cls-1" d="M1124.14,205.5c-19.82,0-39.64,.03-59.47-.05-1.64,0-3.65-.28-4.82-1.24-2.28-1.87-.95-5.76,1.99-6.32,1.21-.23,2.48-.14,3.73-.14,39.27,0,78.54,0,117.81,0,.75,0,1.5,.02,2.24,0,2.62-.07,4.48,.94,4.52,3.77,.05,3.05-1.88,4-4.67,4-13.34-.03-26.68-.01-40.02-.01-7.11,0-14.21,0-21.32,0Z"/><path class="cls-1" d="M1304.93,205.49c-5.36,0-10.72-.05-16.08,.02-2.9,.04-5.15-.89-5.06-4.05,.08-2.93,2.3-3.76,5.01-3.75,10.72,.05,21.44,.05,32.16,0,2.76-.01,4.82,.89,4.83,3.88,.01,2.98-1.99,3.96-4.78,3.92-5.36-.07-10.72-.02-16.08-.02Z"/><path class="cls-1" d="M1092.69,248c-1.5,0-3.24,.48-4.42-.12-1.42-.73-3.24-2.34-3.29-3.64-.06-1.27,1.73-3.57,2.97-3.78,3.27-.53,6.74-.49,10.02,0,1.19,.18,3,2.34,2.91,3.47-.11,1.41-1.64,3.23-3.02,3.87-1.43,.67-3.42,.15-5.16,.15v.04Z"/><path class="cls-1" d="M1356.3,205.41c-1.74,0-3.66,.47-5.15-.14-1.32-.54-3.06-2.32-2.98-3.44,.1-1.39,1.73-3.61,2.96-3.81,3.39-.53,6.97-.54,10.37-.03,1.29,.19,3.15,2.37,3.15,3.64,0,1.27-1.78,3.05-3.19,3.66-1.46,.64-3.41,.14-5.15,.14v-.02Z"/><path class="cls-3" d="M1212.79,134.52c6.65,7.97,6.65,14.04,.5,21.59-1.72,2.11-1.87,4.08,.17,5.9,1.96,1.74,3.99,1.27,5.59-.57,1.69-1.95,3.17-4.09,5.09-6.61,1.56,3.55,3.23,6.83,4.45,10.27,2.61,7.39,5.04,14.85,7.42,22.32,1.24,3.87,2.91,5.47,5.46,4.58,3.41-1.19,3.03-3.84,2.27-6.5-1.32-4.65-2.72-9.29-4.13-14.11,1.72,0,3.52,.49,4.79-.12,1.55-.74,3.41-2.26,3.69-3.72,.2-1.04-1.88-3.53-3.13-3.66-6.79-.75-10.5-4.41-12.97-10.63-2.61-6.55-6.24-12.69-9.43-19.01,28.38,3.59,39.62,42.81,19.56,69.47-16.15-8.08-30.9-17.55-34.98-36.98-2.38-11.32,.43-21.95,5.65-32.21Z"/></g><g><path class="cls-1" d="M217.07,222.77c44.29,0,88.57,0,132.86,0,1,0,2-.02,2.99,.01,2.56,.07,4.44,1.05,4.49,3.9,.05,2.83-1.73,3.95-4.32,4.06-1.25,.05-2.49,.02-3.74,.02-85.21,0-170.41,.01-255.62-.01-12.47,0-24.66,1.38-36.01,6.95-18.54,9.09-26.44,31.89-16.97,48.72,10.57,18.79,37.89,26.12,55.34,14.86,8.57-5.53,12.99-15.47,10.67-24-3.81-14.03-23.58-21.51-35.32-12.98-2.76,2-4.51,5.73-6.04,8.99-1.15,2.43-1.84,4.9-5.07,4.15-3.42-.79-3.41-3.4-2.72-6.23,2.44-9.99,9.33-15.37,18.81-17.69,12.66-3.1,27.91,3.36,34.84,14.41,8.21,13.1,3.42,30.72-10.88,39.98-26.74,17.32-66.95-.39-71.08-31.93-2.28-17.4,4.66-31.8,19.24-41.95,9.99-6.96,21.52-9.68,33.46-10.63,6.58-.52,13.21-.6,19.81-.61,38.42-.05,76.85-.03,115.27-.03Z"/><path class="cls-1" d="M127.7,173.78c-9.02,2.2-15.34,6.4-17.92,14.98-.79,2.64-2.41,4.66-5.48,3.57-3.36-1.2-2.92-3.85-1.85-6.52,.27-.67,.46-1.38,.9-2.71-2.37,.72-4.32,1.3-6.27,1.89-5.84,1.76-11.69,3.5-17.51,5.3-2.58,.8-4.59,.1-5.4-2.44-.83-2.6,.59-4.29,3.08-5.09,1.29-.42,2.6-.77,4.39-1.3-1.24-.94-2.61-1.47-3.03-2.42-.72-1.61-1.67-4.02-.98-5.11,.7-1.11,4-2.01,4.91-1.32,8.15,6.05,16.08,4.14,24.58,.68,13.75-5.6,27.57-10.93,39.32-20.36,2.05-1.65,4.18-1.79,5.93,.35,1.81,2.22,.94,4.17-1.05,5.81-.19,.16-.37,.35-.58,.47-9.12,4.73-13.7,12.81-18.32,21.73-12.28,23.7-35.02,32.25-61.59,24.13-6.86-2.1-13.35-5.44-19.98-8.27-2.53-1.08-3.72-3.01-2.58-5.72,7.37-17.58,18.38-31.7,37.17-38.03,11.83-3.98,23.6-2.61,35.2,1.38,2.41,.83,4.02,2.22,3.23,4.97-.85,2.95-3.16,3.35-5.69,2.52-6.93-2.28-13.96-3.68-21.3-3.09-15.66,1.26-26.36,10.16-34.7,22.61-1.99,2.97-3.59,6.19-5.52,9.57,14.08,6.68,28.03,11.83,43.52,7.7,13.28-3.54,21.31-13.03,27.55-25.28Z"/><path class="cls-1" d="M269.65,268.6c-38.68,0-77.36,0-116.04,0-1.25,0-2.82,.41-3.67-.19-1.42-1-3.15-2.61-3.27-4.07-.09-1.14,1.94-2.68,3.33-3.59,.79-.52,2.19-.15,3.31-.15,77.61,0,155.22,0,232.82,0,.87,0,1.75-.03,2.62,.02,2.43,.13,4.09,1.19,4.17,3.82,.08,2.84-1.66,3.98-4.24,4.14-1.12,.07-2.25,.03-3.37,.03-38.55,0-77.11,0-115.66,0Z"/><path class="cls-1" d="M197.3,297.22c14.71,0,29.42,0,44.12,0,1.12,0,2.56-.37,3.29,.18,1.34,1,2.99,2.49,3.12,3.9,.11,1.13-1.66,2.75-2.95,3.59-.9,.59-2.42,.28-3.66,.28-29.29,.01-58.58,0-87.87,0-.62,0-1.25,0-1.87,0-2.77-.03-5.12-.73-5.03-4.09,.09-3.34,2.47-3.88,5.23-3.87,15.21,.02,30.41,.01,45.62,.01Z"/><path class="cls-1" d="M277.95,297.29c1.49,0,3.24-.49,4.4,.13,1.4,.74,3.16,2.41,3.18,3.71,.02,1.29-1.73,3.45-3.03,3.74-2.72,.61-5.67,.37-8.52,.24-2.43-.11-4.01-1.46-3.91-4.04,.1-2.54,1.7-3.73,4.15-3.82,1.24-.05,2.48,0,3.73,0v.05Z"/></g></g></g></svg>