<?xml version="1.0" encoding="UTF-8"?><svg id="Layer_2" xmlns="http://www.w3.org/2000/svg" viewBox="0 0 1113.05 920.44"><defs><style>.cls-1{fill:#fff;}.cls-2{fill:#adadad;}.cls-3{fill:#437a72;}.cls-4{fill:#599b94;}.cls-5{fill:#77bcb7;}.cls-6{opacity:.21;}.cls-6,.cls-7{isolation:isolate;}.cls-7{opacity:.4;}</style></defs><g id="Layer_1-2"><g><g id="freepik--background-simple--inject-169" class="cls-6"><path class="cls-2" d="M733,913.23s221.45-6.54,341.97-266.57c120.53-260.03-61.23-476.87-318.72-507.06C498.77,109.41,358.15-67.04,142.9,92.7c-215.24,159.74-31.62,908.87,590.1,820.53Z"/><g class="cls-7"><path class="cls-2" d="M733,913.23s221.45-6.54,341.97-266.57c120.53-260.03-61.23-476.87-318.72-507.06C498.77,109.41,358.15-67.04,142.9,92.7c-215.24,159.74-31.62,908.87,590.1,820.53Z"/></g></g><path class="cls-4" d="M827.91,645.18c-.67-3.56-1-7.12-1-10.68,0-6.01,.94-11.46,2.84-16.35,1.89-4.89,4.22-9.29,7.01-13.18,2.78-3.89,5.95-7.45,9.51-10.68,3.56-3.22,7.01-6.17,10.34-8.84,5.78-4.67,10.84-9.12,15.18-13.35,4.34-4.22,6.51-8.68,6.51-13.35s-1.73-8.79-5.17-11.68c-3.45-2.89-8.84-4.34-16.18-4.34-9.34,0-15.85,2.23-19.52,6.67-3.67,4.45-5.51,9.57-5.51,15.35h-57.06v-8.34c0-12.68,2.45-23.41,7.34-32.2,4.89-8.79,11.29-15.9,19.19-21.36,7.89-5.45,16.85-9.4,26.86-11.85,10.01-2.45,20.24-3.67,30.7-3.67,9.79,0,19.41,1.23,28.86,3.67,9.45,2.45,17.9,6.29,25.36,11.51,7.45,5.23,13.46,12.01,18.02,20.35,4.56,8.34,6.84,18.41,6.84,30.2-.45,6.45-1.62,12.29-3.5,17.52-1.89,5.23-4.34,10.07-7.34,14.52-3,4.45-6.56,8.73-10.68,12.85-4.12,4.12-8.51,8.29-13.18,12.51-5.12,4.9-9.84,9.96-14.18,15.18-4.34,5.23-6.51,11.74-6.51,19.52h-54.72Zm28.36,14.35c4.45,0,8.73,.67,12.85,2,4.11,1.33,7.78,3.39,11.01,6.17,3.22,2.78,5.84,6.34,7.84,10.68,2,4.34,3,9.51,3,15.52s-1,11.57-3,16.02c-2,4.45-4.62,8.12-7.84,11.01-3.23,2.89-6.9,5.06-11.01,6.51-4.12,1.44-8.4,2.17-12.85,2.17-4.67,0-9.12-.73-13.35-2.17-4.23-1.44-8.01-3.61-11.35-6.51-3.34-2.89-6.01-6.56-8.01-11.01-2-4.45-3-9.79-3-16.02s1-11.18,3-15.52,4.67-7.89,8.01-10.68c3.34-2.78,7.12-4.84,11.35-6.17,4.22-1.33,8.68-2,13.35-2Z"/><g><path class="cls-1" d="M782.34,185.35V441.84c-47.03,21.99-83.12,63.44-97.91,114h-220.3V185.35h318.21Z"/><g><g><circle class="cls-5" cx="584.8" cy="228" r="6.56"/><circle class="cls-5" cx="604.47" cy="208.33" r="6.56"/><circle class="cls-5" cx="604.47" cy="247.66" r="6.56"/><circle class="cls-5" cx="624.13" cy="228" r="6.56"/><circle class="cls-5" cx="545.46" cy="228" r="6.56"/><circle class="cls-5" cx="565.13" cy="208.33" r="6.56"/><circle class="cls-5" cx="565.13" cy="247.66" r="6.56"/><circle class="cls-5" cx="506.13" cy="228" r="6.56"/><circle class="cls-5" cx="486.46" cy="208.33" r="6.56"/><circle class="cls-5" cx="525.79" cy="208.33" r="6.56"/><circle class="cls-5" cx="525.79" cy="247.66" r="6.56"/><circle class="cls-5" cx="742.14" cy="228" r="6.56"/><circle class="cls-5" cx="761.81" cy="208.33" r="6.56"/><circle class="cls-5" cx="643.8" cy="208.33" r="6.56"/><circle class="cls-5" cx="643.8" cy="247.66" r="6.56"/><circle class="cls-5" cx="663.47" cy="228" r="6.56"/><circle class="cls-5" cx="702.8" cy="228" r="6.56"/><circle class="cls-5" cx="584.8" cy="267.33" r="6.56"/><circle class="cls-5" cx="624.13" cy="267.33" r="6.56"/><circle class="cls-5" cx="545.46" cy="267.33" r="6.56"/><circle class="cls-5" cx="506.13" cy="267.33" r="6.56"/><circle class="cls-5" cx="742.14" cy="267.33" r="6.56"/><circle class="cls-5" cx="663.47" cy="267.33" r="6.56"/><circle class="cls-5" cx="702.8" cy="267.33" r="6.56"/><circle class="cls-5" cx="683.14" cy="208.33" r="6.56"/><circle class="cls-5" cx="722.47" cy="208.33" r="6.56"/><circle class="cls-5" cx="683.14" cy="247.66" r="6.56"/><circle class="cls-5" cx="722.47" cy="247.66" r="6.56"/></g><g><circle class="cls-5" cx="584.8" cy="307.39" r="6.56"/><circle class="cls-5" cx="604.47" cy="287.72" r="6.56"/><circle class="cls-5" cx="604.47" cy="327.06" r="6.56"/><circle class="cls-5" cx="624.13" cy="307.39" r="6.56"/><circle class="cls-5" cx="545.46" cy="307.39" r="6.56"/><circle class="cls-5" cx="565.13" cy="287.72" r="6.56"/><circle class="cls-5" cx="565.13" cy="327.06" r="6.56"/><circle class="cls-5" cx="506.13" cy="307.39" r="6.56"/><circle class="cls-5" cx="486.46" cy="287.72" r="6.56"/><circle class="cls-5" cx="525.79" cy="287.72" r="6.56"/><circle class="cls-5" cx="525.79" cy="327.06" r="6.56"/><circle class="cls-5" cx="742.14" cy="307.39" r="6.56"/><circle class="cls-5" cx="761.81" cy="287.72" r="6.56"/><circle class="cls-5" cx="643.8" cy="287.72" r="6.56"/><circle class="cls-5" cx="643.8" cy="327.06" r="6.56"/><circle class="cls-5" cx="663.47" cy="307.39" r="6.56"/><circle class="cls-5" cx="702.8" cy="307.39" r="6.56"/><circle class="cls-5" cx="584.8" cy="346.73" r="6.56"/><circle class="cls-5" cx="624.13" cy="346.73" r="6.56"/><circle class="cls-5" cx="545.46" cy="346.73" r="6.56"/><circle class="cls-5" cx="506.13" cy="346.73" r="6.56"/><circle class="cls-5" cx="742.14" cy="346.73" r="6.56"/><circle class="cls-5" cx="663.47" cy="346.73" r="6.56"/><circle class="cls-5" cx="702.8" cy="346.73" r="6.56"/><circle class="cls-5" cx="683.14" cy="287.72" r="6.56"/><circle class="cls-5" cx="722.47" cy="287.72" r="6.56"/><circle class="cls-5" cx="683.14" cy="327.06" r="6.56"/><circle class="cls-5" cx="722.47" cy="327.06" r="6.56"/></g><g><path class="cls-4" d="M820.82,305.07v123.82c-13.44,2.9-26.33,7.27-38.48,12.95-47.03,21.99-83.12,63.44-97.91,114-4.76,16.26-7.31,33.47-7.31,51.27,0,7.06,.4,14.03,1.18,20.89,.35,3.04,.77,6.07,1.27,9.07-18.27,3.3-36.84,4.97-55.44,4.97-71.5,0-135.59-23.8-186.21-62.06-3.49-2.64-7.02-5.34-10.47-8.2V305.07h393.37Z"/><rect class="cls-4" x="436" y="171.33" width="376.27" height="28.05"/><polygon class="cls-5" points="504.41 236.66 453.1 171.31 436 171.31 436 305.07 453.1 305.07 504.41 236.66 504.41 236.66"/><polygon class="cls-3" points="504.41 236.66 504.41 305.07 427.45 305.07 504.41 236.66"/><circle cx="555.72" cy="364.93" r="25.65"/><circle cx="692.55" cy="364.93" r="25.65"/><polygon class="cls-5" points="743.85 236.66 795.16 171.31 812.27 171.31 812.27 305.07 795.16 305.07 743.85 236.66 743.85 236.66"/><polygon class="cls-3" points="743.85 236.66 743.85 305.07 820.82 305.07 743.85 236.66"/><path class="cls-1" d="M624.13,493.21c-42.43,0-76.96-34.52-76.96-76.96v-51.31c0-4.73,3.83-8.55,8.55-8.55s8.55,3.82,8.55,8.55v51.31c0,33,26.85,59.86,59.86,59.86s59.86-26.86,59.86-59.86v-51.31c0-4.73,3.83-8.55,8.55-8.55s8.55,3.82,8.55,8.55v51.31c0,42.44-34.53,76.96-76.96,76.96Z"/></g></g></g><path d="M908.34,150.81c-51.53-76.19-129.64-127.54-219.97-144.7-89.59-17.01-180.54,1.77-256.07,52.87-75.84,51.33-127.13,129.1-144.46,219-15.69,81.19-1.66,163.39,38.93,234.45l-54.04,36.55-14.83-21.88L0,701.62l59.18,87.52,257.92-174.48-14.81-21.87,54.08-36.62c51.07,64.41,122.47,108.03,204.08,123.54,44.18,8.39,88.67,8.07,131.48-.53-5.74-13.29-9.93-27.41-12.36-42.11-.5-3-.92-6.03-1.27-9.07-35.23,6.65-71.75,6.69-108.01-.2-54.25-10.28-103.34-35.21-142.84-71.89-16.1-14.94-30.6-31.83-43.22-50.48-43.37-64.16-59.24-141.36-44.59-217.41,14.68-76.04,58.08-141.83,122.2-185.26,63.93-43.24,140.87-59.1,216.63-44.71,76.39,14.51,142.48,57.97,186.09,122.38,43.42,64.15,59.23,141.35,44.55,217.42-2.08,10.8-4.74,21.39-7.95,31.74,17.53,4.1,34.09,10.73,49.26,19.49,4.34-13.42,7.88-27.18,10.59-41.24,17.35-89.89-1.37-181.18-52.67-257.03Z"/></g></g></svg>