<?xml version="1.0" encoding="UTF-8"?><svg id="Layer_2" xmlns="http://www.w3.org/2000/svg" viewBox="0 0 1057.13 986.58"><defs><style>.cls-1{fill:#77bcb7;}.cls-2{fill:#adadad;isolation:isolate;opacity:.21;}</style></defs><g id="Layer_1-2"><g><path class="cls-2" d="M445.41,133.03C330.56,389.72,62.05,327.86,4.56,612.88c-33.57,166.43,124.32,302.44,266.46,349.33,236.46,78.02,448.32-42.08,612.31-207.45,127.03-128.1,213.46-266.68,155.29-455.19C946.96,2.5,554.75-111.35,445.41,133.03Z"/><g><path d="M860.88,52.64c-2.36,4.04-3.82,7.57-6.17,10.36-15.34,18.17-30.52,36.49-46.63,53.95-3.17,3.43-10.19,3.3-15.44,4.81,.57-5.44-.84-12.45,2.03-16.07,15.03-19.01,30.89-37.38,47.09-55.42,2.83-3.15,8.56-4.38,13.14-4.92,1.58-.19,3.73,4.42,5.97,7.29Z"/><path d="M835.79,157.72c-1.98-1.85-7.3-4.56-7.71-7.88-.37-3.04,4.01-8.96,7.25-9.75,14.68-3.6,29.64-6.35,44.64-8.18,3.24-.39,7.1,4.29,10.67,6.63-2.55,3.54-4.53,9.43-7.76,10.23-14.7,3.62-29.75,5.81-47.08,8.95Z"/><path d="M765.95,50.12c-3.01,16.4-4.73,29.62-8.24,42.35-.97,3.51-7.27,5.56-11.12,8.28-2.02-3.77-6.05-7.73-5.71-11.26,1.28-13.16,3.26-26.37,6.61-39.13,1.1-4.18,7.15-7.05,10.94-10.53,2.92,4,5.85,8.01,7.52,10.29Z"/></g><g><path d="M52.3,838.48c2.36-4.04,3.82-7.57,6.17-10.36,15.34-18.17,30.52-36.49,46.63-53.95,3.17-3.43,10.19-3.3,15.44-4.81-.57,5.44,.84,12.45-2.03,16.07-15.03,19.01-30.89,37.38-47.09,55.42-2.83,3.15-8.56,4.38-13.14,4.92-1.58,.19-3.73-4.42-5.97-7.29Z"/><path d="M77.38,733.4c1.98,1.85,7.3,4.56,7.71,7.88,.37,3.04-4.01,8.96-7.25,9.75-14.68,3.6-29.64,6.35-44.64,8.18-3.24,.39-7.1-4.29-10.67-6.63,2.55-3.54,4.53-9.43,7.76-10.23,14.7-3.62,29.75-5.81,47.08-8.95Z"/><path d="M147.23,840.99c3.01-16.4,4.73-29.62,8.24-42.35,.97-3.51,7.27-5.56,11.12-8.28,2.02,3.77,6.05,7.73,5.71,11.26-1.28,13.16-3.26,26.37-6.61,39.13-1.1,4.18-7.15,7.05-10.94,10.53-2.92-4-5.85-8.01-7.52-10.29Z"/></g><path d="M159.66,437.53c4.65-10.26,7.81-21.61,14.28-30.56,13.07-18.08,32.27-25.23,54.38-25.1,23.08,.13,46.15,.03,69.23,.03,2.76,0,5.53,0,9.55,0,0-3.5,0-6.41,0-9.31,0-54.78-.04-109.55,.01-164.33,.04-41.7,27.36-68.89,69.14-68.92,3.3,0,6.6-.1,9.89,.03,7.56,.3,12.49,4.94,12.4,11.53-.09,6.56-5,11-12.7,11.23-5.32,.16-10.66-.12-15.97,.11-21.67,.96-39.66,18.67-39.78,40.34-.33,58.07-.14,116.15-.14,174.22,0,1.46,.31,2.91,.5,4.63h156.09c0-13.33-.21-26.2,.04-39.06,.63-32.94,22.61-58.49,55.03-63.92,4.96-.83,10.1-.76,15.16-.76,56.81-.05,113.61-.03,170.42-.03h8.78c.2-2.69,.51-4.87,.51-7.05,.03-21.56,.11-43.11,0-64.67-.13-26.02-18.03-43.73-44.22-43.74-81.91-.04-163.82-.01-245.74-.02-2.28,0-4.58,.11-6.84-.07-6.72-.54-11.07-4.91-11.19-11.1-.13-6.47,4.41-11.1,11.47-11.61,1.77-.13,3.55-.04,5.32-.04,81.66,0,163.32-.01,244.98,0,41.69,0,69,27.32,69.06,69.05,.03,22.77,0,45.54,0,69.26,3.37,0,6.07,0,8.77,0,33.98,0,67.96-.07,101.95,.02,41.32,.1,68.72,27.46,68.74,68.61,.04,74.56,.06,149.12-.01,223.67-.04,36.85-23.25,62.91-59.88,67.2-5.26,.62-7.9,2.51-7.49,8,.67,9.07,.65,18.23,1.96,27.2,1.26,8.64,.76,16.31-6.68,21.9-7.64,5.75-15.52,4.66-23.51,.27-20.9-11.48-36.74-27.8-46.47-49.56-2.65-5.92-6.02-7.8-12.12-7.5-8.6,.42-17.24,.21-25.86,.07-8.84-.14-13.36-3.94-13.53-11-.17-7.3,4.59-11.57,13.66-11.73,10.14-.18,20.29-.12,30.43,0,12.69,.14,21.59,5.95,26.67,17.76,6.13,14.25,15.25,26.24,27.9,35.39,1.34,.97,2.84,1.7,4.87,2.9,0-10.15-.36-19.43,.08-28.67,.77-16.25,9.57-25.66,25.92-27.29,9.91-.99,18.9-3.67,26.44-10.23,9.48-8.25,14.7-18.77,14.71-31.35,.11-77.09,.2-154.19-.03-231.28-.07-24.07-18.86-41.47-44.11-41.49-99.66-.08-199.33-.04-298.99-.03-7.61,0-15.22-.13-22.82,.1-22.22,.68-39.82,18.08-40.46,40.35-.38,13.36-.07,26.74-.07,40.99,12.12,0,23.46-.15,34.8,.03,34.64,.54,60.31,20.85,66.6,52.97,1.11,5.66,1.09,11.6,1.1,17.41,.08,50.72,.05,101.44,.05,152.16v9.75c3.32,.19,6,.48,8.67,.49,25.11,.03,50.21,.02,75.32,.02,2.03,0,4.06-.07,6.09,.05,8.19,.47,13.23,5.1,12.98,11.83-.25,6.5-5.09,10.83-13.03,10.88-22.82,.15-45.65,.06-68.47,.07-6.8,0-13.6,0-21.56,0,0,12.77-.15,24.83,.04,36.88,.2,12.46-2.19,24.26-8.67,34.94-13.01,21.46-32.22,32.49-57.32,32.52-76.84,.11-153.68,.15-230.52-.13-7.31-.03-11.25,1.81-14.38,8.77-9.32,20.75-24.62,36.28-44.36,47.56-8.27,4.72-16.4,6.93-24.79,.64-8.08-6.06-8.01-14.2-6.63-23.3,1.35-8.95,1.18-18.14,1.61-27.22,.18-3.86-1.32-5.95-5.62-6.4-32.94-3.39-53.07-21.43-60.7-53.59-.1-.43-.62-.75-.94-1.13,0-83.19,0-166.38,0-249.57Zm89.96,338.06c14.95-9.39,25.26-21.4,31.64-36.4,6.18-14.52,16.54-20.3,32.13-20.23,77.59,.32,155.19,.2,232.78,.11,23.83-.03,42.62-17.24,42.73-40.37,.35-77.85,.2-155.69,.05-233.54-.03-13.57-6.46-24.23-17.2-32.34-8.98-6.78-19.36-8.14-30.23-8.14-103.71,.05-207.43,.03-311.14,.03-2.03,0-4.06-.01-6.08,.1-25.19,1.43-41.77,18.73-41.79,43.94-.06,75.31-.06,150.62,0,225.94,.02,25.47,15.79,42.32,41.29,44.41,14.79,1.21,25.02,11.23,25.73,25.97,.47,9.79,.09,19.61,.09,30.52Z"/><path class="cls-1" d="M532.96,243.41c-43.62,0-87.24,0-130.86-.02-3.03,0-6.16,.1-9.07-.57-5.31-1.23-8.11-4.94-8.27-10.41-.16-5.47,2.45-9.36,7.64-10.91,2.85-.85,6.01-.88,9.03-.88,87.75-.04,175.5-.04,263.25-.01,2.78,0,5.63,0,8.31,.62,6.02,1.39,9.02,5.52,8.64,11.63-.36,5.78-3.7,9.33-9.45,10.2-2.74,.41-5.56,.33-8.35,.33-43.62,.02-87.24,.01-130.86,.01Z"/><path class="cls-1" d="M712.01,371.24c-43.62,0-87.24,.01-130.85-.02-3.03,0-6.17,.1-9.06-.65-5.29-1.36-7.93-5.21-7.93-10.67,0-5.47,2.7-9.16,7.96-10.68,1.91-.55,4.01-.58,6.03-.58,89.52-.03,179.04-.03,268.55,0,2.02,0,4.78-.47,5.91,.61,3.21,3.07,7.23,6.47,8.18,10.4,1.3,5.4-2.47,9.67-8.11,11.01-2.91,.69-6.04,.56-9.07,.56-43.87,.03-87.74,.02-131.61,.02Z"/><path class="cls-1" d="M749.59,470c-31.18,0-62.36,0-93.54-.01-2.78,0-5.63,.12-8.33-.4-5.35-1.01-8.43-4.48-8.83-9.93-.42-5.75,2.11-9.98,7.72-11.56,3.1-.87,6.51-.89,9.78-.89,62.36-.05,124.72-.04,187.09-.03,12.27,0,17.81,3.68,17.71,11.67-.1,7.76-5.32,11.15-17.28,11.15-31.43,0-62.87,0-94.3,0Z"/><path class="cls-1" d="M750.15,496.5c31.18,0,62.37,0,93.55,.01,2.78,0,6.3-.84,8.2,.51,3.57,2.54,8.31,6.18,8.66,9.75,.35,3.57-3.55,8.1-6.6,11.24-1.51,1.56-5.27,1.27-8.01,1.27-63.89,.06-127.77,.06-191.66,.02-2.51,0-5.12-.1-7.5-.79-5.59-1.63-8.28-5.67-7.92-11.45,.37-5.82,3.69-9.3,9.38-10.26,2.48-.42,5.05-.28,7.59-.29,31.44-.02,62.87-.01,94.31-.01Z"/><path class="cls-1" d="M749.77,420.91c-32.46,0-64.91-.06-97.37,.05-5.88,.02-10.58-1.63-12.93-7.29-2.69-6.49,1.29-13.67,8.37-15.21,2.19-.48,4.54-.36,6.81-.36,63.39-.02,126.78-.01,190.17-.01,1.01,0,2.03-.02,3.04,0,8.24,.27,13.29,4.61,13.31,11.44,.02,6.83-5.03,11.32-13.28,11.34-32.71,.07-65.42,.03-98.13,.03Z"/><path class="cls-1" d="M711.57,541.68c18.26,0,36.51-.01,54.77,.01,2.53,0,5.1-.05,7.58,.36,6.05,1.02,9.56,4.74,9.61,10.88,.05,6.5-3.55,10.65-10.02,11.21-6.55,.56-13.17,.34-19.76,.35-32.46,.03-64.91,.02-97.37,0-2.53,0-5.09,.04-7.59-.29-6.1-.8-9.67-4.35-9.92-10.54-.27-6.55,3.17-10.51,9.59-11.61,2.47-.43,5.05-.35,7.58-.35,18.51-.03,37.02-.01,55.53-.01Z"/><path class="cls-1" d="M429.77,270.26c10.38,0,20.77-.1,31.15,.03,8.16,.11,13.4,4.69,13.44,11.39,.04,6.74-5.14,11.33-13.34,11.36-21.02,.09-42.04,.09-63.06,0-8.44-.04-13.22-4.27-13.24-11.27-.02-6.97,4.84-11.37,13.14-11.48,10.64-.14,21.27-.04,31.91-.04Z"/><path class="cls-1" d="M423.43,337.94c-8.59,0-17.18,.17-25.77-.05-8.49-.22-13.05-4.51-12.94-11.59,.11-6.8,4.49-10.97,12.61-11.07,16.92-.21,33.85-.2,50.77-.01,8.51,.09,13.09,4.44,12.96,11.52-.12,6.96-4.76,10.98-13.39,11.18-8.08,.18-16.17,.04-24.25,.04Z"/><path class="cls-1" d="M386.02,485.47c11.29-13.88,24.62-23.58,41.35-28.04,41.27-11.01,82.58,15.58,91.35,59.53,9.05,45.33-8.01,81.85-41.64,110.9-14.23,12.3-31.18,21.53-47.23,31.63-10.49,6.6-21.59,12.24-32.41,18.32-6.59,3.71-13.75,5.11-20.34,1.27-25.57-14.92-51.98-28.76-76-45.9-26.77-19.11-44.53-45.69-49.36-79.17-3.36-23.25-.06-45.5,13.03-65.62,4.85-7.46,11.21-9.52,17.16-5.77,6.04,3.8,6.81,10.2,2.14,17.92-16.44,27.18-13.56,62.59,7.18,90.57,12.31,16.6,28,29.21,45.76,39.41,14.72,8.45,29.48,16.83,44.4,24.91,2.2,1.19,6.06,1.65,8.06,.52,20.27-11.48,40.92-22.45,60.26-35.36,23.64-15.78,40.98-37.02,46.94-65.75,3.1-14.93,2.41-29.83-3.65-44.04-8.09-18.97-21.95-30.89-43-32.6-20.62-1.67-36.16,7.52-47.72,24.14-1.3,1.87-2.25,3.97-3.51,5.87-6.66,9.96-19.8,10.3-25.78-.06-11.7-20.27-28.3-31.06-52.12-30.3-6.96,.22-11.87-5.13-11.82-11.32,.04-5.93,4.51-10.64,11.23-11.14,22-1.62,40.82,5.72,56.76,20.73,2.94,2.77,5.59,5.84,8.94,9.37Z"/></g></g></svg>