<?xml version="1.0" encoding="UTF-8"?><svg id="Layer_2" xmlns="http://www.w3.org/2000/svg" viewBox="0 0 1139.39 1038.77"><defs><style>.cls-1{fill:#fff;}.cls-2,.cls-3{fill:#adadad;}.cls-4{fill:#77bcb7;}.cls-5{fill:#606060;}.cls-5,.cls-3{opacity:.4;}.cls-5,.cls-3,.cls-6,.cls-7{isolation:isolate;}.cls-6{opacity:.21;}.cls-7{opacity:.2;}</style></defs><g id="Layer_1-2"><g><g id="freepik--background-simple--inject-169" class="cls-6"><path class="cls-2" d="M697.79,1037.08s236.91,11.08,386.76-256.65c149.85-267.73-26.47-514.01-298.86-567.23C513.31,159.99,377.61-39.83,134.83,113.13-107.95,266.09,26.96,1080.69,697.79,1037.08Z"/><path class="cls-3" d="M697.79,1037.08s236.91,11.08,386.76-256.65c149.85-267.73-26.47-514.01-298.86-567.23C513.31,159.99,377.61-39.83,134.83,113.13-107.95,266.09,26.96,1080.69,697.79,1037.08Z"/></g><path d="M508.22,548.42l37.98,19.95-4.36-107.15-90.6,57.34,37.98,19.89-28.61,54.41h0c-5.04,0-9.94,1.68-13.92,4.78l-50.47-23.35v-.3c.46-12.79-9.54-23.53-22.33-23.98-12.55-.45-23.17,9.18-23.95,21.72h0c-.06,.76-.06,1.51,0,2.27,.03,3.31,.74,6.59,2.09,9.62l-65.7,71.67c-2.11-.66-4.3-1-6.51-1.02-1.14,0-2.29,.12-3.4,.36l-94.6-120.11c4.63-11.9-1.26-25.29-13.15-29.92-11.18-4.35-23.84,.58-29.13,11.35-1.31,2.89-1.98,6.03-1.97,9.2,.07,2.37,.47,4.73,1.19,6.99l-107.8,110.49c-12.01-4.33-25.25,1.89-29.59,13.9s1.89,25.25,13.9,29.59c11.9,4.29,25.04-1.78,29.48-13.62h0c.9-2.55,1.37-5.24,1.37-7.94,0-1.9-.25-3.79-.78-5.61l109-111.86c2.14,.71,4.38,1.07,6.63,1.08,1.42,0,2.85-.13,4.24-.42l94.07,119.45c-6.15,11.35-1.94,25.53,9.41,31.68,11.35,6.15,25.53,1.94,31.68-9.41,1.67-3.03,2.63-6.4,2.81-9.85,.06-.78,.06-1.55,0-2.33-.04-2.42-.44-4.81-1.19-7.11l67.25-73.22c1.28,.24,2.58,.36,3.88,.36,4.6,0,9.09-1.37,12.9-3.94l51.36,23.89c.39,12.76,11.05,22.79,23.81,22.4s22.79-11.05,22.4-23.81c0-.27-.02-.53-.04-.8-.22-4.29-1.65-8.43-4.12-11.94l28.79-54.65Z"/><g><path class="cls-7" d="M802.23,547.61c136.15,2.81,248.8-105.28,251.61-241.43,2.81-136.15-105.28-248.8-241.43-251.61-136.15-2.81-248.8,105.28-251.61,241.43,0,.19,0,.37-.01,.56-2.56,135.96,105.49,248.3,241.44,251.05Zm8.62-420.66c96.43,1.95,173.02,81.7,171.08,178.13-1.95,96.43-81.7,173.02-178.13,171.08-96.43-1.95-173.02-81.7-171.08-178.13v-.04c1.97-96.42,81.72-172.99,178.13-171.04h0Z"/><path d="M668.73,195.6c-.6,.7-1.15,1.35-1.7,1.98,32.5-43.85,85.06-71.83,143.82-70.63,1.6,.02,3.2,.07,4.78,.17-.18,2.58-2.38,4.58-4.98,4.53-54.91-3.05-107.84,20.8-141.92,63.96Z"/><path d="M926.98,420.45c1.03-.85,2.3-1.35,3.6-1.43,1.33,.03,2.6,.58,3.5,1.53l.55,.55c-32.68,34.78-79.38,56.11-130.84,55.06-96.44-1.95-173.02-81.71-171.07-178.14v-.03c.75-36.3,12.53-69.81,32.08-97.36-.07,.12-.12,.23-.2,.33-48.33,68.56-40.28,161.97,19.1,221.25,2.4,2.4,5,4.7,7.53,6.98,28.13,24.2,63.48,38.43,100.51,40.5h12.13c46.06,1.2,90.59-16.6,123.11-49.23Z"/><path d="M985.26,479.05s0,.03-.03,.05c-98.46,97.61-257.43,96.91-355.04-1.58-47.91-48.08-74.28-113.54-73.16-181.4,2.3-137.21,114.26-246.83,250.93-246.83,1.43,0,2.88,0,4.3,.03,2.73,.12,4.88,2.4,4.8,5.13v.28c-1.55-.08-3.1-.13-4.65-.15-136.17-2.83-248.8,105.26-251.63,241.43v.55c-2.55,135.96,105.49,248.3,241.45,251.05,71.66,1.48,136.81-27.78,182.87-75.68l.15,.15c1.8,1.98,1.8,5,0,6.98Z"/><path class="cls-4" d="M817.07,54.73l-1.43,72.11c0,.1,0,.18-.03,.27,94.19,4.43,168.24,83.13,166.32,177.97-.9,44.98-18.75,85.63-47.31,116.01l50.48,50.83c41.43-43.08,67.38-101.26,68.73-165.74,2.78-134.61-102.84-246.23-236.78-251.45Zm-152.17,145.74c.67-.98,1.38-1.95,2.13-2.9-.68,.8-1.3,1.58-1.9,2.4-.07,.18-.15,.35-.22,.5Z"/><path d="M812.38,49.45c141.72,.15,256.49,115.16,256.34,256.88-.15,141.72-115.16,256.49-256.88,256.34-141.72-.15-256.49-115.16-256.34-256.88,.15-141.51,114.83-256.19,256.34-256.34h.55Zm-10.04,493.03c133.44,2.75,243.83-103.2,246.58-236.64,2.75-133.44-103.2-243.83-236.64-246.58-133.44-2.75-243.83,103.2-246.58,236.64v.12h0c-2.68,133.41,103.23,243.77,236.64,246.57v-.11Zm8.62-420.66c98.96,2.01,177.56,83.86,175.55,182.83-2.01,98.96-83.86,177.56-182.83,175.55-98.96-2.01-177.56-83.86-175.55-182.83v-.03c2.03-98.95,83.88-177.52,182.83-175.51Zm-7.09,348.3c93.48,1.91,170.8-72.32,172.71-165.8,1.91-93.48-72.32-170.8-165.8-172.71-93.48-1.91-170.8,72.32-172.71,165.8v.04h0c-1.83,93.42,72.38,170.66,165.8,172.57v.11Z"/></g><g transform="translate(1 1)"><path class="cls-5" d="M679.03,874.86c-54.03,0-98.06-50.03-98.06-112.06s44.03-112.06,98.06-112.06,98.06,50.03,98.06,112.06-43.63,112.06-98.06,112.06h0Z"/><path d="M679.03,878.86c-56.03,0-102.06-52.03-102.06-116.07s45.63-116.07,102.06-116.07,102.06,52.03,102.06,116.07-45.63,116.07-102.06,116.07Zm0-224.13c-51.63,0-94.05,48.43-94.05,108.06s42.02,108.06,94.05,108.06,94.05-48.43,94.05-108.06-42.02-108.06-94.05-108.06Z"/><path class="cls-1" d="M580.98,762.8c0-57.23,37.62-104.46,86.05-111.26-4-.4-8-.8-12.01-.8-54.03,0-98.06,50.03-98.06,112.07s44.03,112.06,98.06,112.06c4,0,8-.4,12.01-.8-48.43-6.8-86.05-54.03-86.05-111.26h0Z"/><g><path d="M655.02,878.86c-56.03,0-102.06-52.03-102.06-116.07s45.63-116.07,102.06-116.07c4,0,8,.4,12.41,.8v8c-46.83,6.4-82.45,52.83-82.45,107.26s35.62,100.86,82.45,107.26v8c-4,.4-8,.8-12.41,.8Zm-16.81-222.53c-43.62,9.21-77.24,53.63-77.24,106.46s33.22,97.26,77.24,106.46c-36.42-18.41-61.24-59.63-61.24-106.46s24.81-88.05,61.24-106.46Z"/><path d="M623.4,858.85h-24.01c-2.4,0-4-1.6-4-4s1.6-4,4-4h24.01c2.4,0,4,1.6,4,4s-2,4-4,4Zm-19.21-20.01h-24.01c-2.4,0-4-1.6-4-4s1.6-4,4-4h24.01c2.4,0,4,1.6,4,4s-2,4-4,4Zm-13.61-24.01h-24.01c-2.4,0-4-1.6-4-4s1.6-4,4-4h24.01c2.4,0,4,1.6,4,4s-1.6,4-4,4Zm-6.4-20.01h-24.01c-2.4,0-4-1.6-4-4s1.6-4,4-4h24.01c2.4,0,4,1.6,4,4s-1.6,4-4,4Zm-3.2-20.01h-23.21c-2.4,0-4-1.6-4-4s1.6-4,4-4h23.61c2.4,0,4,1.6,4,4,0,2.4-2,4-4.4,4Zm.8-20.01h-24.01c-2.4,0-4-1.6-4-4s1.6-4,4-4h24.01c2.4,0,4,1.6,4,4s-2,4-4,4Zm3.2-20.01h-24.01c-2.4,0-4-1.6-4-4s1.6-4,4-4h24.01c2.4,0,4,1.6,4,4s-1.6,4-4,4Zm7.2-20.01h-24.01c-2.4,0-4-1.6-4-4s1.6-4,4-4h24.01c2.4,0,4,1.6,4,4s-1.6,4-4,4Zm14.81-24.01h-24.01c-2.4,0-4-1.6-4-4s1.6-4,4-4h24.01c2.4,0,4,1.6,4,4s-1.6,4-4,4Zm21.61-20.01h-23.61c-2.4,0-4-1.6-4-4s1.6-4,4-4h23.61c2.4,0,4,1.6,4,4s-2,4-4,4Z"/><path d="M679.43,852.85c-2.8,0-5.6,0-8.4-.4-2-.4-3.6-2.4-3.6-4.4,.4-2,2.4-3.6,4.4-3.6,2.4,.4,4.8,.4,7.6,.4,2.4,0,4,1.6,4,4s-1.6,4-4,4l.4-4-.4,4h0Zm23.21-4.4c-1.6,0-3.2-.8-3.6-2.4-.8-2,.4-4.4,2.4-5.2,2.4-.8,4.4-2,6.8-3.2,2-1.2,4.4-.4,5.2,1.6,1.2,2,.4,4.4-1.6,5.2-2.4,1.2-5.2,2.4-7.6,3.2-.4,.8-.8,.8-1.6,.8Zm-54.03-2.8c-.8,0-1.2,0-2-.4-2.4-1.2-4.8-2.8-7.2-4-2-1.2-2.4-3.6-1.2-5.6,1.2-2,3.6-2.4,5.6-1.2,2,1.2,4.4,2.8,6.4,3.6s2.8,3.6,1.6,5.2c-.4,1.6-1.6,2.4-3.2,2.4Zm80.45-14.41c-1.2,0-2-.4-2.8-1.2-1.6-1.6-1.6-4,0-5.6s3.6-3.6,5.2-5.6c1.2-1.6,4-2,5.6-.4,1.6,1.2,2,4,.4,5.6-1.6,2-3.6,4.4-5.6,6-.8,.8-1.6,1.2-2.8,1.2Zm-104.86-5.6c-1.2,0-2.4-.4-3.2-1.6-1.6-2-3.6-4.4-4.8-6.8-1.2-2-.8-4.4,1.2-5.6,2-1.2,4.4-.8,5.6,1.2,1.6,2,2.8,4,4.4,6,1.6,1.6,1.2,4.4-.4,5.6-.8,.8-2,1.2-2.8,1.2Zm122.47-20.41c-.4,0-1.2,0-1.6-.4-2-.8-2.8-3.2-2-5.2,.8-2.4,2-4.8,2.8-7.2,.8-2,2.8-3.2,5.2-2.4,2,.8,3.2,2.8,2.4,5.2-.8,2.8-2,5.2-2.8,7.6-.8,1.6-2.4,2.4-4,2.4Zm-137.68-7.2c-1.6,0-3.2-1.2-3.6-2.8-.8-2.4-1.6-5.2-2.4-8-.4-2,.8-4.4,2.8-4.8,2-.4,4.4,.8,4.8,2.8,.8,2.4,1.2,4.8,2,7.2,.8,2-.4,4.4-2.4,5.2-.4,.4-.8,.4-1.2,.4Zm145.28-23.61h0c-2.4,0-4-2-4-4.4s.4-4.8,.4-7.2,1.6-4,4-4,4,1.6,4,4h0c0,2.8,0,5.2-.4,8,0,2-2,3.6-4,3.6Zm-150.49-7.6c-2.4,0-4-1.6-4-4h0c0-2.8,0-5.6,.4-8.4,0-2.4,2-4,4.4-3.6,2.4,0,4,2,3.6,4.4,0,2.4-.4,5.2-.4,7.6,0,2.4-1.6,4-4,4Zm147.69-23.61c-1.6,0-3.6-1.2-4-3.2-.8-2.4-1.2-4.8-2-7.2-.8-2,.4-4.4,2.4-5.2,2-.8,4.4,.4,5.2,2.4,.8,2.4,1.6,5.2,2.4,8,.4,2-.8,4.4-2.8,4.8-.4,0-.8,.4-1.2,.4Zm-142.48-7.6c-.4,0-.8,0-1.2-.4-2-.8-3.2-2.8-2.4-5.2,.8-2.4,2-5.2,2.8-7.6,.8-2,3.2-2.8,5.2-2,2,.8,2.8,3.2,2,5.2-1.2,2.4-2,4.8-2.8,7.2-.4,2-2,2.8-3.6,2.8Zm130.08-21.61c-1.2,0-2.4-.8-3.2-1.6-1.6-2-2.8-4-4.4-6-1.6-1.6-1.2-4.4,.4-5.6,1.6-1.6,4.4-1.2,5.6,.4,1.6,2,3.6,4.4,4.8,6.8,1.2,2,.8,4.4-1.2,5.6-.8,.4-1.6,.4-2,.4Zm-114.87-6c-.8,0-1.6-.4-2.4-.8-1.6-1.2-2-4-.4-5.6,1.6-2,3.6-4.4,5.6-6,1.6-1.6,4-1.6,5.6,0,1.6,1.6,1.6,4,0,5.6s-3.6,3.6-5.2,5.6c-.8,.8-2,1.2-3.2,1.2Zm92.45-16.01c-.8,0-1.6-.4-2-.8-2-1.2-4.4-2.8-6.4-3.6-2-.8-2.8-3.6-1.6-5.2,.8-2,3.2-2.8,5.2-1.6,2.4,1.2,4.8,2.8,7.2,4,2,1.2,2.4,3.6,1.2,5.6-1.2,.8-2.4,1.6-3.6,1.6Zm-68.04-4c-1.6,0-2.8-.8-3.6-2-1.2-2-.4-4.4,1.6-5.2,2.4-1.2,5.2-2.4,7.6-3.2,2-.8,4.4,.4,5.2,2.4,.8,2-.4,4.4-2.4,5.2-2.4,.8-4.8,2-6.8,3.2-.4-.4-1.2-.4-1.6-.4Zm38.42-6.8h-.4c-2.4-.4-4.8-.4-7.2-.4s-4-1.6-4-4,1.6-4,4-4v0h0c2.8,0,5.6,0,8.4,.4,2,.4,3.6,2.4,3.6,4.4-.8,2-2.4,3.6-4.4,3.6Z"/><path d="M721.06,792.41c-.8-.8-1.6-1.2-2.4-1.2s-2,.4-2.8,1.2c-7.2,7.6-16.81,11.21-28.42,11.21-9.21,0-17.21-2.8-23.61-8-6-4.8-10.01-11.21-12.01-19.21h32.02c2.4,0,4-1.6,4-4s-1.6-4-4-4h-33.62c0-1.6-.4-3.6-.4-5.6s0-4,.4-6h36.02c2.4,0,4-1.6,4-4s-1.6-4-4-4h-34.42c2-7.6,6-14.01,11.61-19.21,6-5.2,13.21-8,20.81-8,8,0,15.21,2.4,22.01,7.2,2.8,2,5.2,4,7.2,6.4v8.4c0,2.4,1.6,4,4,4s4-1.6,4-4v-24.81c0-2.4-1.6-4-4-4s-4,1.6-4,4v5.2c-8.4-6.8-18.01-10.41-28.42-10.41s-20.01,3.6-27.62,10.41c-7.2,6.4-12.01,14.81-14.01,24.81h-8c-2.4,0-4,1.6-4,4s1.6,4,4,4h6.8c0,2-.4,4-.4,6s0,4,.4,5.6h-9.21c-2.4,0-4,1.6-4,4s1.6,4,4,4h10.41c2.4,10.41,7.2,18.81,14.81,24.81,8,6.8,17.61,10.01,29.22,10.01,13.21,0,24.81-4.4,34.02-13.61,1.2-1.2,1.2-2,1.2-2.8,0-.4-1.2-1.6-1.6-2.4"/></g></g><g transform="translate(1 1)"><path class="cls-5" d="M301.08,276.09c25.8,37.08,12.49,91.17-30.08,120.79-42.57,29.62-97.92,23.3-123.72-13.78-25.8-37.08-12.49-91.17,30.08-120.79,42.57-29.62,97.73-23.57,123.72,13.78h0Z"/><path d="M303.82,274.18c26.75,38.45,13.03,94.88-30.91,125.45-43.94,30.58-101.43,24.11-128.38-14.61-26.95-38.72-13.03-94.88,30.91-125.45,43.94-30.58,101.43-24.11,128.38,14.61Zm-153.8,107.02c24.65,35.43,78.14,41.42,119.06,12.94,40.92-28.47,54.09-80.43,29.24-116.14-24.84-35.7-78.14-41.42-119.06-12.94-40.92,28.47-54.09,80.43-29.24,116.14Z"/><path class="cls-1" d="M271,396.88c-39.27,27.33-89.64,24.06-117.44-5.92,1.64,2.94,3.27,5.88,5.18,8.62,25.8,37.08,81.15,43.4,123.72,13.78,42.57-29.62,55.88-83.72,30.08-120.79-1.91-2.75-4.1-5.3-6.28-7.86,18.45,36.48,4.01,84.85-35.26,112.17h0Z"/><g><path d="M315.29,290.66c26.75,38.45,13.03,94.88-30.91,125.45-43.94,30.58-101.43,24.11-128.38-14.61-1.91-2.75-3.55-5.68-5.37-8.9l5.49-3.82c26.75,29.08,75.62,31.35,112.97,5.36,37.35-25.99,52.2-72.6,34.24-107.79l5.49-3.82c2.19,2.56,4.37,5.11,6.47,8.13Zm-144.67,117.79c27.15,25.54,73.68,27.4,109.94,2.17,36.25-25.23,50.88-69.23,36.17-103.84,4.76,33.78-11.68,70.49-43.82,92.85-32.13,22.36-72.27,25.01-102.29,8.81Z"/><path d="M316.66,321.91l11.47,16.48c1.15,1.65,.81,3.51-.84,4.66-1.65,1.15-3.51,.81-4.66-.84l-11.47-16.48c-1.15-1.65-.81-3.51,.84-4.66s3.7-.54,4.66,.84Zm-4.56,22.74l11.47,16.48c1.15,1.65,.81,3.51-.84,4.66s-3.51,.81-4.66-.84l-11.47-16.48c-1.15-1.65-.81-3.51,.84-4.66s3.7-.54,4.66,.84Zm-9.98,20.8l11.47,16.48c1.15,1.65,.81,3.51-.84,4.66s-3.51,.81-4.66-.84l-11.47-16.48c-1.15-1.65-.81-3.51,.84-4.66s3.51-.81,4.66,.84Zm-10.67,13.95l11.47,16.48c1.15,1.65,.81,3.51-.84,4.66-1.65,1.15-3.51,.81-4.66-.84l-11.47-16.48c-1.15-1.65-.81-3.51,.84-4.66,1.65-1.15,3.51-.81,4.66,.84Zm-12.2,11.75l11.08,15.93c1.15,1.65,.81,3.51-.84,4.66-1.65,1.15-3.51,.81-4.66-.84l-11.28-16.2c-1.15-1.65-.81-3.51,.84-4.66,1.65-1.15,3.7-.54,4.85,1.11Zm-14.11,9.01l11.47,16.48c1.15,1.65,.81,3.51-.84,4.66-1.65,1.15-3.51,.81-4.66-.84l-11.47-16.48c-1.15-1.65-.81-3.51,.84-4.66,1.65-1.15,3.7-.54,4.66,.84Zm-15.26,7.36l11.47,16.48c1.15,1.65,.81,3.51-.84,4.66-1.65,1.15-3.51,.81-4.66-.84l-11.47-16.48c-1.15-1.65-.81-3.51,.84-4.66s3.51-.81,4.66,.84Zm-17.17,4.61l11.47,16.48c1.15,1.65,.81,3.51-.84,4.66s-3.51,.81-4.66-.84l-11.47-16.48c-1.15-1.65-.81-3.51,.84-4.66,1.65-1.15,3.51-.81,4.66,.84Zm-23.55,1.3l11.47,16.48c1.15,1.65,.81,3.51-.84,4.66s-3.51,.81-4.66-.84l-11.47-16.48c-1.15-1.65-.81-3.51,.84-4.66,1.65-1.15,3.51-.81,4.66,.84Zm-24.05-5.28l11.28,16.2c1.15,1.65,.81,3.51-.84,4.66s-3.51,.81-4.66-.84l-11.28-16.2c-1.15-1.65-.81-3.51,.84-4.66,1.65-1.15,3.7-.54,4.66,.84Z"/><path d="M285.78,286.32c1.34,1.92,2.68,3.85,3.74,5.96,.68,1.56,.07,3.62-1.3,4.57-1.56,.68-3.62,.07-4.57-1.3-.87-1.84-2.02-3.49-3.36-5.41-1.15-1.65-.81-3.51,.84-4.66,1.65-1.15,3.51-.81,4.66,.84l-2.94,1.64,2.94-1.64h0Zm-14.1-13.83c.76,1.1,.98,2.58,.07,3.62-.99,1.5-3.21,1.83-4.72,.84-1.7-1.27-3.48-2.07-5.45-3.14-1.78-.8-2.38-2.83-1.39-4.33,.8-1.78,2.83-2.38,4.33-1.39,1.97,1.07,4.13,2.42,5.83,3.69,.74-.11,.93,.17,1.31,.72Zm23.88,38.41c.38,.55,.57,.82,.68,1.56,.32,2.22,.37,4.63,.69,6.85,.13,1.95-1.33,3.37-3.27,3.5-1.95,.13-3.37-1.33-3.5-3.27-.13-1.95-.18-4.36-.59-6.11s1.13-3.64,2.81-3.58c1.29-.49,2.41-.05,3.18,1.05Zm-48.3-48.32c.57,.82,.68,1.56,.51,2.5-.33,1.86-1.98,3.01-3.85,2.68s-4.19-.75-6.33-.89c-1.67-.06-3.28-1.79-2.95-3.65,.06-1.67,1.79-3.28,3.65-2.95,2.14,.14,4.74,.37,6.79,.98,.93,.17,1.59,.53,2.16,1.35Zm46.22,74.63c.57,.82,.87,1.84,.43,2.96-.61,2.05-1.3,4.57-2.38,6.54-.8,1.78-2.64,2.65-4.42,1.85-1.78-.8-2.65-2.64-1.85-4.42,.61-2.05,1.41-3.83,2.02-5.89,.33-1.86,2.45-2.93,4.04-2.4,.93,.17,1.78,.8,2.16,1.35Zm-72.48-74.29c.19,.27,.57,.82,.49,1.29,.41,1.76-.86,3.45-2.61,3.86-2.03,.6-4.25,.92-6.28,1.52-1.76,.41-3.53-.39-4.13-2.42-.41-1.76,.39-3.53,2.42-4.13,2.3-.79,4.53-1.11,6.56-1.71,1.48-.22,2.79,.5,3.56,1.6Zm60.8,97.92c.76,1.1,.7,2.77-.2,3.81-1.27,1.7-2.81,3.58-4.35,5.47-1.18,1.23-3.4,1.55-4.63,.37-1.23-1.18-1.55-3.4-.37-4.63,1.27-1.7,2.72-3.12,3.99-4.81,.99-1.5,3.21-1.83,4.72-.84,.47,.08,.66,.36,.85,.63Zm-85.57-88.42h0c1.15,1.65,.54,3.7-1.11,4.85-1.65,1.15-3.49,2.02-5.13,3.17-1.65,1.15-3.51,.81-4.66-.84-1.15-1.65-.81-3.51,.84-4.66h0c1.92-1.34,3.57-2.48,5.68-3.55,1.37-.96,3.43-.35,4.38,1.03Zm66.64,106.89c1.15,1.65,.81,3.51-.84,4.66l-1.91-2.75,1.91,2.75c-1.92,1.34-3.85,2.68-5.96,3.74-1.65,1.15-3.7,.54-4.57-1.3-1.15-1.65-.54-3.7,1.3-4.57,1.65-1.15,3.76-2.21,5.41-3.36,1.65-1.15,3.51-.81,4.66,.83Zm-86.72-90.07c.76,1.1,.9,3.05-.29,4.28-1.27,1.7-2.72,3.12-3.99,4.81-.99,1.5-3.21,1.83-4.72,.84-1.5-.99-1.83-3.21-.84-4.72,1.27-1.7,2.81-3.58,4.35-5.47,1.18-1.23,3.4-1.55,4.63-.37,.19,.27,.66,.36,.85,.63Zm62.81,101.4c.19,.27,.38,.55,.3,1.01,.41,1.76-.39,3.53-2.42,4.13-2.03,.6-4.53,1.11-6.56,1.71-1.76,.41-3.45-.86-3.86-2.61-.41-1.76,.86-3.45,2.61-3.86,2.22-.32,4.25-.92,6.28-1.52,1.56-.68,2.88,.04,3.64,1.13Zm-76.94-78.94c.57,.82,.6,2.03,.43,2.96-.61,2.05-1.41,3.83-2.02,5.89-.33,1.86-2.45,2.93-4.04,2.4-1.86-.33-2.93-2.45-2.4-4.04,.61-2.05,1.3-4.57,2.38-6.54,.8-1.78,2.64-2.65,4.42-1.85,.66,.36,1.04,.91,1.23,1.18Zm50.73,81.69c.38,.55,.49,1.29,.6,2.03-.06,1.67-1.79,3.28-3.65,2.95-2.14-.14-4.74-.37-6.79-.98-1.86-.33-3.01-1.98-2.68-3.85,.33-1.86,1.98-3.01,3.85-2.68s4.19,.75,6.33,.89c.93,.17,1.78,.8,2.35,1.62Zm-55.13-55.8c.38,.55,.49,1.29,.41,1.76,.13,1.95,.18,4.36,.59,6.11s-1.13,3.64-2.81,3.58c-1.76,.41-3.45-.86-3.58-2.81-.32-2.22-.37-4.63-.69-6.85-.13-1.95,1.33-3.37,3.27-3.5,1.12,.44,2.25,.88,2.82,1.71Zm29.74,48.6c.76,1.1,.79,2.3,.35,3.43-.8,1.78-2.83,2.38-4.33,1.39-1.97-1.07-4.13-2.42-5.83-3.69-1.5-.99-1.83-3.21-.84-4.72,.99-1.5,3.21-1.83,4.72-.84,1.7,1.27,3.67,2.34,5.45,3.14-.08,.47,.3,1.01,.49,1.29Zm-23.01-23.12l.19,.27c.87,1.84,2.02,3.49,3.17,5.13s.81,3.51-.84,4.66c-1.65,1.15-3.51,.81-4.66-.84l2.75-1.91-2.75,1.91h0c-1.34-1.92-2.68-3.85-3.74-5.96-.68-1.56-.07-3.62,1.3-4.57,1.76-.41,3.62-.07,4.57,1.3Z"/><path d="M224.44,286.62c-.17,.93-.06,1.67,.32,2.22s1.23,1.18,2.16,1.35c8.66,1.31,15.72,6.18,21.26,14.15,4.4,6.32,6.3,13.15,5.78,20.03-.43,6.41-2.91,12.22-7.45,17.41l-15.29-21.97c-1.15-1.65-3.01-1.98-4.66-.84s-1.98,3.01-.84,4.66l16.05,23.07c-1.1,.76-2.28,1.99-3.65,2.95-1.37,.96-2.75,1.91-4.31,2.59l-17.2-24.72c-1.15-1.65-3.01-1.98-4.66-.84-1.65,1.15-1.98,3.01-.84,4.66l16.43,23.62c-6.17,2.26-12.48,2.57-18.72,1.21-6.44-1.64-11.8-5.24-15.43-10.46-3.82-5.49-5.61-11.58-5.57-18.55,.04-2.88,.26-5.48,.95-8l5.77-4.01c1.65-1.15,1.98-3.01,.84-4.66-1.15-1.65-3.01-1.98-4.66-.84l-17.03,11.85c-1.65,1.15-1.98,3.01-.84,4.66,1.15,1.65,3.01,1.98,4.66,.84l3.57-2.48c-.66,9.02,1.46,17.33,6.43,24.47,5.16,7.42,12.03,12.01,20.33,13.98,7.83,1.89,15.89,1.17,23.72-2.24l3.82,5.49c1.15,1.65,3.01,1.98,4.66,.84,1.65-1.15,1.98-3.01,.84-4.66l-3.25-4.67c1.37-.96,2.94-1.64,4.31-2.59s2.75-1.91,3.65-2.95l4.4,6.32c1.15,1.65,3.01,1.98,4.66,.84,1.65-1.15,1.98-3.01,.84-4.66l-4.97-7.14c5.99-6.62,9.47-13.93,9.96-22.01,.85-8.74-1.54-16.86-7.08-24.83-6.31-9.06-14.87-14.93-25.58-16.85-1.4-.25-1.95,.13-2.5,.51-.28,.19-.53,1.59-.88,2.25"/></g></g><g transform="translate(1 1)"><path class="cls-5" d="M520.86,93.26c-18.97,18.68-51.73,16.34-73.18-5.44-21.45-21.78-23.29-54.57-4.32-73.25,18.97-18.68,51.73-16.34,73.18,5.44,21.45,21.78,23.43,54.43,4.32,73.25h0Z"/><path d="M522.24,94.66c-19.67,19.38-53.82,17.02-75.97-5.46-22.14-22.48-24.12-56.53-4.3-76.04,19.81-19.51,53.82-17.02,75.97,5.46,22.14,22.48,24.12,56.53,4.3,76.04ZM444.74,15.97c-18.13,17.85-16.28,49.53,4.34,70.46,20.62,20.94,52.12,23.41,70.39,5.42,18.27-17.99,16.28-49.53-4.34-70.46-20.62-20.94-52.12-23.41-70.39-5.42Z"/><path class="cls-1" d="M447.68,87.82c-19.79-20.09-22.91-49.68-8.26-68.82-1.54,1.24-3.09,2.49-4.49,3.87-18.97,18.68-17.13,51.47,4.32,73.25,21.45,21.78,54.21,24.12,73.18,5.44,1.41-1.38,2.67-2.91,3.94-4.43-19.36,14.36-48.89,10.78-68.69-9.31h0Z"/><g><path d="M513.81,102.96c-19.67,19.38-53.82,17.02-75.97-5.46-22.14-22.48-24.12-56.53-4.3-76.04,1.41-1.38,2.95-2.63,4.63-4.01l2.77,2.81c-14.23,18.44-10.68,47.06,8.14,66.17,18.82,19.11,47.38,23.09,66.04,9.15l2.77,2.81c-1.27,1.52-2.53,3.05-4.08,4.57ZM430.96,30.65c-12.13,18.32-8.58,45.54,9.69,64.09,18.27,18.55,45.29,22.66,63.93,10.67-19.15,6.13-42.12,.24-58.31-16.2-16.19-16.44-21.73-39.49-15.31-58.55Z"/><path d="M495.79,106.87l-8.43,8.3c-.84,.83-1.96,.82-2.79-.02-.83-.84-.82-1.96,.02-2.79l8.43-8.3c.84-.83,1.96-.82,2.79,.02s.68,2.1-.02,2.79Zm-13.66-.38l-8.43,8.3c-.84,.83-1.96,.82-2.79-.02-.83-.84-.82-1.96,.02-2.79l8.43-8.3c.84-.83,1.96-.82,2.79,.02s.68,2.1-.02,2.79Zm-13.08-3.73l-8.43,8.3c-.84,.83-1.96,.82-2.79-.02s-.82-1.96,.02-2.79l8.43-8.3c.84-.83,1.96-.82,2.79,.02s.82,1.96-.02,2.79Zm-9.17-4.81l-8.43,8.3c-.84,.83-1.96,.82-2.79-.02s-.82-1.96,.02-2.79l8.43-8.3c.84-.83,1.96-.82,2.79,.02,.83,.84,.82,1.96-.02,2.79Zm-8.04-5.92l-8.15,8.03c-.84,.83-1.96,.82-2.79-.02-.83-.84-.82-1.96,.02-2.79l8.29-8.17c.84-.83,1.96-.82,2.79,.02,.83,.84,.68,2.1-.16,2.93Zm-6.64-7.3l-8.43,8.3c-.84,.83-1.96,.82-2.79-.02s-.82-1.96,.02-2.79l8.43-8.3c.84-.83,1.96-.82,2.79,.02s.68,2.1-.02,2.79Zm-5.8-8.13l-8.43,8.3c-.84,.83-1.96,.82-2.79-.02s-.82-1.96,.02-2.79l8.43-8.3c.84-.83,1.96-.82,2.79,.02,.83,.84,.82,1.96-.02,2.79Zm-4.39-9.52l-8.43,8.3c-.84,.83-1.96,.82-2.79-.02-.83-.84-.82-1.96,.02-2.79l8.43-8.3c.84-.83,1.96-.82,2.79,.02s.82,1.96-.02,2.79Zm-3.1-13.55l-8.43,8.3c-.84,.83-1.96,.82-2.79-.02-.83-.84-.82-1.96,.02-2.79l8.43-8.3c.84-.83,1.96-.82,2.79,.02s.82,1.96-.02,2.79Zm.67-14.5l-8.29,8.17c-.84,.83-1.96,.82-2.79-.02s-.82-1.96,.02-2.79l8.29-8.17c.84-.83,1.96-.82,2.79,.02,.83,.84,.68,2.1-.02,2.79Z"/><path d="M513.39,85.39c-.98,.97-1.97,1.94-3.09,2.77-.84,.55-2.1,.4-2.79-.3-.55-.84-.4-2.1,.3-2.79,.98-.69,1.82-1.52,2.81-2.49,.84-.83,1.96-.82,2.79,.02s.82,1.96-.02,2.79l-1.24-1.54,1.24,1.54h0Zm6.63-9.57c-.56,.55-1.4,.83-2.1,.4-.97-.43-1.38-1.68-.96-2.66,.57-1.11,.85-2.22,1.28-3.48,.29-1.11,1.41-1.66,2.38-1.24,1.11,.29,1.66,1.41,1.24,2.38-.43,1.25-1,2.64-1.56,3.75,.14,.42,0,.56-.29,.83Zm-19.94,17.7c-.28,.28-.42,.42-.84,.55-1.26,.41-2.65,.68-3.91,1.09-1.12,.27-2.09-.43-2.36-1.55-.27-1.12,.43-2.09,1.55-2.36,1.12-.27,2.51-.54,3.49-.95s2.23,.3,2.36,1.27c.41,.7,.27,1.4-.29,1.95Zm23.26-32.88c-.42,.42-.84,.55-1.4,.55-1.12,0-1.95-.85-1.94-1.97,0-1.12,.02-2.51-.11-3.77-.13-.98,.71-2.09,1.83-2.08,.98-.13,2.09,.71,2.08,1.83,.13,1.26,.26,2.79,.11,4.05,0,.56-.15,.98-.57,1.39Zm-38.75,34.29c-.42,.42-.98,.69-1.68,.55-1.25-.15-2.79-.3-4.04-.73-1.11-.29-1.8-1.27-1.52-2.38,.29-1.11,1.27-1.8,2.38-1.52,1.25,.15,2.37,.44,3.62,.59,1.12,0,1.94,1.13,1.8,2.11,0,.56-.29,1.11-.57,1.39Zm35.94-49.52c-.14,.14-.42,.42-.7,.41-.98,.41-2.09-.16-2.5-1.13-.55-1.12-.96-2.38-1.51-3.5-.41-.98-.12-2.09,1-2.64,.98-.41,2.09-.12,2.64,1,.69,1.26,1.1,2.52,1.65,3.64,.27,.84-.01,1.67-.57,2.23Zm-50.83,45.08c-.56,.55-1.54,.69-2.23,.26-1.11-.57-2.36-1.27-3.61-1.98-.83-.56-1.24-1.82-.68-2.65,.56-.83,1.82-1.24,2.65-.68,1.11,.57,2.08,1.27,3.19,1.84,.97,.43,1.38,1.68,.96,2.66,0,.28-.14,.42-.28,.56Zm42.84-58.53h0c-.84,.83-2.1,.68-2.93-.16s-1.52-1.82-2.35-2.67-.82-1.96,.02-2.79,1.96-.82,2.79,.02h0c.97,.98,1.8,1.83,2.63,2.95,.69,.7,.54,1.96-.16,2.65Zm-55.46,49.37c-.84,.83-1.96,.82-2.79-.02l1.41-1.38-1.41,1.38c-.97-.98-1.94-1.97-2.77-3.09-.83-.84-.68-2.1,.3-2.79,.84-.83,2.1-.68,2.79,.3,.83,.84,1.66,1.97,2.49,2.81,.83,.84,.82,1.96-.02,2.79Zm43.69-59.36c-.56,.55-1.68,.82-2.51,.26-1.11-.57-2.08-1.27-3.19-1.84-.97-.43-1.38-1.68-.96-2.66,.43-.97,1.68-1.38,2.66-.96,1.11,.57,2.36,1.27,3.61,1.98,.83,.56,1.24,1.82,.68,2.65-.14,.14-.14,.42-.28,.56Zm-52.65,46.6c-.14,.14-.28,.28-.56,.27-.98,.41-2.09,.12-2.64-1-.55-1.12-1.1-2.52-1.65-3.64-.41-.98,.16-2.09,1.13-2.5,.98-.41,2.09,.16,2.5,1.13,.41,1.26,.96,2.38,1.51,3.5,.55,.84,.27,1.68-.3,2.23Zm38.2-52.57c-.42,.42-1.12,.55-1.68,.55-1.25-.15-2.37-.44-3.62-.59-1.12,0-1.94-1.13-1.8-2.11,0-1.12,1.13-1.94,2.11-1.8,1.25,.15,2.79,.3,4.04,.73,1.11,.29,1.8,1.27,1.52,2.38-.14,.42-.42,.69-.56,.83Zm-42.4,37.61c-.28,.28-.7,.41-1.12,.55-.98,.13-2.09-.71-2.08-1.83-.13-1.26-.26-2.79-.11-4.05,0-1.12,.85-1.95,1.97-1.94,1.12,0,1.95,.85,1.94,1.97s-.02,2.51,.11,3.77c0,.56-.29,1.11-.71,1.53Zm26.92-37.59c-.28,.28-.7,.41-.98,.41-1.12,.27-2.51,.54-3.49,.95s-2.23-.3-2.36-1.27c-.41-.98,.16-2.09,1.27-2.36,1.26-.41,2.65-.68,3.91-1.09,1.12-.27,2.09,.43,2.36,1.55-.14,.7-.29,1.39-.71,1.81Zm-25.27,22.12c-.56,.55-1.26,.69-1.96,.54-1.11-.29-1.66-1.41-1.24-2.38,.43-1.25,1-2.64,1.56-3.75,.43-.97,1.68-1.38,2.66-.96,.97,.43,1.38,1.68,.96,2.66-.57,1.11-.99,2.36-1.28,3.48-.28,0-.56,.27-.7,.41Zm11.14-15.67l-.14,.14c-.98,.69-1.82,1.52-2.67,2.35-.84,.83-1.96,.82-2.79-.02s-.82-1.96,.02-2.79l1.38,1.41-1.38-1.41h0c.98-.97,1.97-1.94,3.09-2.77,.84-.55,2.1-.4,2.79,.3,.41,.98,.4,2.1-.3,2.79Z"/><path d="M507.1,49.78c-.56,0-.98,.13-1.26,.41s-.56,.83-.57,1.39c.1,5.16-2.03,9.75-6.1,13.76-3.23,3.18-7.01,4.97-11.06,5.35-3.77,.39-7.39-.47-10.86-2.59l11.24-11.07c.84-.83,.85-1.95,.02-2.79s-1.95-.85-2.79-.02l-11.8,11.63c-.55-.56-1.39-1.13-2.08-1.83s-1.38-1.41-1.94-2.25l12.65-12.46c.84-.83,.85-1.95,.02-2.79s-1.95-.85-2.79-.02l-12.08,11.9c-1.93-3.36-2.74-6.99-2.57-10.76,.31-3.9,1.87-7.38,4.54-10.01,2.81-2.77,6.17-4.42,10.22-5.08,1.68-.27,3.21-.39,4.74-.24l2.91,2.95c.83,.84,1.95,.85,2.79,.02s.85-1.95,.02-2.79l-8.58-8.71c-.83-.84-1.95-.85-2.79-.02s-.85,1.95-.02,2.79l1.8,1.83c-5.3,.52-9.92,2.57-13.58,6.17s-5.78,8.18-6.1,13.2c-.32,4.74,.9,9.35,3.66,13.56l-2.81,2.77c-.84,.83-.85,1.95-.02,2.79,.83,.84,1.95,.85,2.79,.02l2.39-2.35c.69,.7,1.24,1.54,1.94,2.25s1.38,1.41,2.08,1.83l-3.23,3.18c-.84,.83-.85,1.95-.02,2.79s1.95,.85,2.79,.02l3.65-3.6c4.44,2.82,9.03,4.11,13.78,3.59,5.16-.38,9.64-2.58,13.72-6.59,4.64-4.57,7.19-10.13,7.24-16.54,0-.84-.27-1.12-.55-1.4-.14-.14-.98-.15-1.39-.29"/></g></g></g></g></svg>